<svg viewBox="78 421.44628099173565 1267.4999999999998 504.9586776859503" fill="none" xmlns="http://www.w3.org/2000/svg" xmlns:xlink="http://www.w3.org/1999/xlink" overflow="visible" width="1267.4999999999998px" height="504.9586776859503px"><g id="Master/Vehicles/Medium Vehicle"><g id="Medium Vehicle" transform="scale(1 1)"><g id="Medium Vehicle/Hearse"><g id="hearse"><g id="cars"><path id="Path" d="M821 718.81C832.38 645.53 835 580.24 833.36 506.1C833.13 495.78 831.86 483.78 823.14 478.27C820.7 476.73 808 475.81 793.32 475.27C777.2 474.71 758.69 474.63 748.71 474.75C738.73 474.87 728.06 475.24 719.88 480.99C711.36 486.99 707.43 497.45 703.97 507.28C678.62 579.4 654.9 646.1 631.18 718.78L821 718.81Z" fill="#4A5D70"/><path id="Path_2" d="M828.431 691.44C826.853 684.573 824.927 677.791 822.661 671.12C820.304 663.949 817.155 657.063 813.271 650.59L813.081 650.25C808.147 641.501 800.67 634.46 791.641 630.06C784.011 626.48 775.761 625.58 769.421 625.19C760.756 624.59 752.055 624.764 743.421 625.71C735.21 626.65 727.409 629.802 720.851 634.83C718.591 636.5 716.431 638.35 714.331 640.14C709.721 644.08 705.331 647.81 700.111 649.8C691.901 652.92 683.181 652.8 673.941 652.64H670.581C668.061 652.64 662.991 652.5 662.991 652.5C661.949 652.474 661.003 653.101 660.621 654.07C660.232 655.033 660.479 656.135 661.241 656.84C663.701 659.12 665.121 665.27 664.071 669.09L662.681 672.94L663.681 673.94C664.332 674.591 664.571 675.549 664.301 676.43L662.151 683.43C661.394 687.495 658.719 690.944 654.971 692.69L671.221 696.56L673.351 720.78C673.469 722.068 674.547 723.055 675.841 723.06H828.241C829.581 723.056 830.682 721.999 830.741 720.66C831.114 710.863 830.339 701.056 828.431 691.44V691.44Z" fill="#1B1812"/><path id="Path" d="M662.66 672.9L664.05 669.05C665.1 665.23 663.68 659.05 661.22 656.8C660.984 656.579 660.794 656.314 660.66 656.02C653.53 655.17 646.21 654.46 639 656.02C632.863 657.304 627.051 659.826 621.92 663.43C616.38 667.35 613.06 671.49 610.81 677.24C608.56 682.99 608.64 688.54 611.04 692.89C614.43 699.06 619.52 702.48 624.92 702.48C626.341 702.477 627.752 702.248 629.1 701.8C633.24 700.45 638.58 696.58 641.35 693.63C642.252 692.678 643.1 691.676 643.89 690.63C646.106 692.323 648.802 693.269 651.59 693.33C652.405 693.338 653.217 693.227 654 693C657.91 691.82 661.42 687.63 662.08 683.4L664.23 676.4C664.5 675.519 664.262 674.561 663.61 673.91L662.66 672.9Z" fill="#fcb7a0"/><path id="Path_3" d="M647.19 692.2C646.239 692.208 645.368 691.674 644.943 690.824C644.518 689.973 644.613 688.956 645.19 688.2C647.5 685.01 648.48 682.04 648.12 679.35C647.932 678.258 647.651 677.184 647.28 676.14C646.942 675.156 646.658 674.155 646.43 673.14C646.19 672.243 646.468 671.287 647.15 670.657C647.833 670.028 648.808 669.828 649.683 670.139C650.558 670.45 651.188 671.221 651.32 672.14C651.517 672.985 651.757 673.819 652.04 674.64C652.492 675.968 652.827 677.333 653.04 678.72C653.57 682.72 652.28 686.91 649.2 691.17C648.732 691.814 647.986 692.196 647.19 692.2Z" fill="#1B1812"/><path id="Path_4" d="M672.439 679.05C672.125 679.053 671.812 678.995 671.519 678.88C670.24 678.37 669.611 676.924 670.109 675.64C672.109 670.64 672.209 661.39 669.469 656.46C669.035 655.679 669.051 654.726 669.51 653.96C669.969 653.194 670.802 652.731 671.695 652.745C672.588 652.76 673.405 653.249 673.839 654.03C677.509 660.62 677.179 671.33 674.769 677.46C674.394 678.419 673.469 679.051 672.439 679.05V679.05Z" fill="#2A3640"/><path id="Path_5" d="M700.68 692.38C700.361 692.378 700.046 692.317 699.75 692.2C699.134 691.951 698.642 691.468 698.383 690.856C698.124 690.245 698.12 689.555 698.37 688.94C702.608 678.467 708.334 668.66 715.37 659.82C716.229 658.738 717.802 658.556 718.885 659.415C719.967 660.274 720.149 661.848 719.29 662.93C712.547 671.395 707.061 680.789 703 690.82C702.617 691.764 701.699 692.381 700.68 692.38Z" fill="#2A3640"/><path id="Path" d="M802.001 578.24V578.24C800.204 576.908 798.07 576.104 795.841 575.92C794.901 575.8 793.951 575.73 792.991 575.69L793.081 575.25C793.531 572.96 794.461 568.19 791.301 565.12C789.481 563.36 787.071 562.95 784.941 562.7C773.801 561.355 762.54 561.355 751.401 562.7C748.281 563.1 744.741 563.87 742.211 566.58C739.451 569.58 738.451 573.58 737.571 577.15C737.441 577.69 737.311 578.22 737.171 578.73C735.479 585.128 734.144 591.614 733.171 598.16C732.611 602.01 732.441 606.35 735.441 609.37C737.901 611.84 741.291 612.18 744.541 612.31L773.151 613.48C773.801 613.48 774.501 613.48 775.241 613.48C777.773 613.611 780.288 612.992 782.471 611.7C786.391 609.11 787.371 604.11 787.951 601.12L788.111 600.34C790.482 600.579 792.877 600.271 795.111 599.44C799.504 597.763 802.928 594.226 804.461 589.78C805.801 586.1 805.511 581.1 802.001 578.24Z" fill="#fcb7a0"/><path id="Path_6" d="M756.61 602.61C754.387 602.614 752.198 602.064 750.24 601.01C749.066 600.332 748.646 598.841 749.295 597.65C749.943 596.458 751.423 596.002 752.63 596.62C754.771 597.786 757.317 597.951 759.59 597.07C761.863 596.19 763.634 594.354 764.43 592.05C764.728 591.182 765.478 590.548 766.383 590.4C767.288 590.251 768.202 590.613 768.76 591.34L769.38 592.13C769.788 592.654 769.97 593.318 769.888 593.976C769.805 594.634 769.465 595.233 768.94 595.64C768.67 595.849 768.361 596.002 768.03 596.09C766.505 598.655 764.169 600.64 761.39 601.73C759.865 602.316 758.244 602.614 756.61 602.61V602.61Z" fill="#1B1812"/><path id="Shape" fill-rule="evenodd" clip-rule="evenodd" d="M676.92 680C679.813 684.636 681.959 689.698 683.28 695C684.461 700.314 684.896 705.766 684.57 711.2V712.66C684.632 714.308 684.491 715.957 684.15 717.57C683.435 720.424 682.458 723.206 681.23 725.88C679.079 730.908 675.979 735.475 672.1 739.33C666.72 744.54 658.55 746.33 651.55 746.33C649.79 746.332 648.033 746.215 646.29 745.98C634 744.27 624.13 734.37 619.13 718.82C614.11 703.1 615.75 686.75 623.4 676.1C632.99 662.66 651.31 658.99 664.99 667.66C665.54 667.94 666.03 668.29 666.54 668.66C670.688 671.746 674.211 675.595 676.92 680ZM646.14 728.9C653.71 732.21 661.34 730.42 664.71 724.42V724.46C668.47 717.84 670.32 707.29 668.92 700.4C667.74 694.8 666.08 690.52 663.74 687.33C660.389 682.64 655.022 679.804 649.26 679.68C647.515 679.672 645.782 679.97 644.14 680.56C636.14 683.47 630.5 693.5 631.14 703.9C631.79 714.9 638.14 725.39 646.14 728.9Z" fill="#2A3640"/><path id="Path" d="M647.001 673.64C646.718 672.82 646.478 671.985 646.281 671.14C645.871 669.23 646.341 664.14 647.181 663.21C648.741 661.77 649.421 660.29 649.181 658.78C648.895 657.248 647.829 655.978 646.371 655.43C645.99 655.242 645.565 655.159 645.141 655.19C643.07 655.302 641.01 655.573 638.981 656C632.843 657.284 627.032 659.806 621.901 663.41C616.361 667.33 613.041 671.47 610.791 677.22C608.541 682.97 608.621 688.52 611.021 692.87C614.411 699.04 619.501 702.46 624.901 702.46C626.321 702.457 627.733 702.228 629.081 701.78C633.221 700.43 638.561 696.56 641.331 693.61C646.461 688.15 648.711 682.8 648.031 677.72C647.808 676.332 647.464 674.967 647.001 673.64Z" fill="#fcb7a0"/><path id="Path_7" d="M640.55 693.26C640.009 693.261 639.482 693.086 639.05 692.76C632.62 687.93 626.55 678.88 627.47 669.57C627.605 668.189 628.834 667.18 630.215 667.315C631.595 667.45 632.605 668.679 632.47 670.06C631.74 677.44 636.77 684.77 642.07 688.76C642.931 689.406 643.282 690.53 642.941 691.55C642.601 692.571 641.646 693.26 640.57 693.26H640.55Z" fill="#1B1812"/><path id="Path_8" d="M631.361 700.52C630.944 700.519 630.535 700.412 630.171 700.21C623.171 696.41 618.861 687.3 618.241 680.27C618.116 678.889 619.135 677.669 620.516 677.545C621.896 677.421 623.116 678.439 623.241 679.82C623.731 685.39 627.171 692.89 632.581 695.82C633.59 696.365 634.099 697.527 633.816 698.638C633.532 699.75 632.528 700.526 631.381 700.52H631.361Z" fill="#1B1812"/><path id="Path_9" d="M692.769 723.1C686.209 712.18 675.029 704.17 661.299 700.54C651.199 697.87 640.779 697.92 630.709 697.96C628.709 697.96 626.779 697.96 624.819 697.96C578.209 697.71 552.069 698.29 551.819 698.3C550.468 698.338 549.389 699.438 549.379 700.79L549.289 725.01C549.284 725.676 549.545 726.316 550.015 726.787C550.485 727.259 551.124 727.523 551.789 727.52V727.52L690.639 726.88C691.54 726.874 692.368 726.385 692.809 725.6C693.248 724.82 693.232 723.865 692.769 723.1Z" fill="#1B1812"/><path id="Path_10" d="M784.23 681.89C783.959 681.286 783.459 680.814 782.84 680.58C782.221 680.345 781.533 680.367 780.93 680.64C779.668 681.208 778.372 681.699 777.05 682.11C777.445 677.578 777.585 673.028 777.47 668.48C777.431 667.099 776.281 666.011 774.9 666.05C773.519 666.089 772.431 667.239 772.47 668.62C772.602 673.53 772.418 678.444 771.92 683.33C764.09 684.7 755.59 684.15 747.28 683.59C744.08 683.38 740.77 683.16 737.57 683.06C734.91 682.98 730.57 682.9 727.2 682.83H724.46H724.41C723.029 682.83 721.91 683.949 721.91 685.33C721.91 686.711 723.029 687.83 724.41 687.83H727.16C730.5 687.89 734.66 687.97 737.32 688.06C745.26 696.42 749.5 709.54 747.64 720.06C747.403 721.411 748.293 722.702 749.64 722.96C749.786 722.974 749.934 722.974 750.08 722.96C751.291 722.96 752.327 722.092 752.54 720.9C754.43 710.23 751.08 697.74 744.1 688.36L746.98 688.54C751.58 688.85 756.24 689.16 760.85 689.16C768.52 689.16 776.07 688.3 783.02 685.16C784.242 684.578 784.779 683.128 784.23 681.89V681.89Z" fill="#2A3640"/><path id="Path" d="M736.94 720.07C738.8 709.5 735.03 698.84 726.33 690.07L723.93 687.66L721.01 687.53C712.01 687.12 702.74 686.69 693.86 689.68C676.68 695.44 666.22 706.29 664.41 720.22C664.302 720.943 664.522 721.676 665.01 722.22C665.485 722.761 666.17 723.07 666.89 723.07H739.41C738.67 723.072 737.968 722.747 737.491 722.181C737.015 721.616 736.813 720.868 736.94 720.14V720.07Z" fill="#fcb7a0"/><path id="Path_11" d="M677.759 723V723C677.095 722.992 676.46 722.72 675.997 722.243C675.533 721.766 675.279 721.125 675.289 720.46C675.508 711.173 680.432 702.633 688.359 697.79C689.554 697.111 691.073 697.523 691.76 698.713C692.447 699.903 692.045 701.425 690.859 702.12C684.433 706.063 680.451 713.002 680.289 720.54C680.267 721.917 679.136 723.017 677.759 723Z" fill="#1B1812"/><path id="Path_12" d="M689.691 723C689.567 723.01 689.444 723.01 689.321 723C688.665 722.906 688.073 722.554 687.677 722.023C687.281 721.492 687.113 720.825 687.211 720.17C688.471 711.63 694.471 703.67 703.211 698.88C703.995 698.451 704.948 698.473 705.711 698.938C706.475 699.403 706.932 700.24 706.911 701.133C706.891 702.027 706.395 702.841 705.611 703.27C698.181 707.27 693.141 713.9 692.111 720.89C691.922 722.087 690.902 722.976 689.691 723Z" fill="#1B1812"/><path id="Path_13" d="M359.17 843.78C359.032 842.511 357.957 841.553 356.68 841.56H251.52C250.246 841.563 249.178 842.523 249.04 843.79C247.92 854.18 248.55 865.47 250.73 873.99C254.92 890.38 265.84 907.58 284.05 907.58C284.48 907.58 284.92 907.58 285.35 907.58C297.06 907.06 308.8 907.18 316 907.35C318.177 907.885 320.409 908.157 322.65 908.16C324.28 908.161 325.906 908.017 327.51 907.73C337.36 905.93 346.35 898.82 352.18 888.22C358.68 876.38 361.1 861 359.17 843.78Z" fill="#1B1812"/><path id="Path_14" d="M294.369 901.79C287.549 901.79 279.369 901.27 278.929 901.25C277.548 901.161 276.501 899.971 276.589 898.59C276.678 897.209 277.868 896.161 279.249 896.25C279.369 896.25 291.249 897.01 298.069 896.72C298.962 896.681 299.809 897.121 300.289 897.875C300.77 898.628 300.812 899.581 300.399 900.375C299.987 901.168 299.182 901.681 298.289 901.72C297.089 901.77 295.759 901.79 294.369 901.79Z" fill="#2A3640"/><path id="Path_15" d="M274.52 896.17C273.626 896.182 272.794 895.717 272.337 894.95C271.88 894.183 271.866 893.23 272.302 892.45C272.738 891.67 273.556 891.182 274.45 891.17L292.15 890.71C293.043 890.687 293.88 891.142 294.347 891.904C294.814 892.665 294.839 893.618 294.412 894.404C293.986 895.189 293.173 895.687 292.28 895.71L274.58 896.17H274.52Z" fill="#2A3640"/><path id="Path_16" d="M265.85 884.57C264.469 884.57 263.35 883.451 263.35 882.07C263.35 880.689 264.469 879.57 265.85 879.57L285.22 879.2C286.113 879.182 286.948 879.642 287.41 880.407C287.872 881.171 287.891 882.124 287.46 882.907C287.029 883.689 286.213 884.182 285.32 884.2L265.94 884.57H265.85Z" fill="#2A3640"/><path id="Path_17" d="M929.17 843.78C929.032 842.511 927.957 841.553 926.68 841.56H821.52C820.246 841.563 819.178 842.523 819.04 843.79C817.92 854.18 818.55 865.47 820.73 873.99C824.92 890.38 835.84 907.58 854.05 907.58C854.48 907.58 854.92 907.58 855.35 907.58C867.06 907.06 878.8 907.18 886 907.35C888.177 907.885 890.409 908.157 892.65 908.16C894.28 908.161 895.906 908.017 897.51 907.73C907.36 905.93 916.35 898.82 922.18 888.22C928.68 876.38 931.1 861 929.17 843.78Z" fill="#1B1812"/><path id="Path_18" d="M864.369 901.79C857.549 901.79 849.369 901.27 848.929 901.25C847.548 901.161 846.501 899.971 846.589 898.59C846.678 897.209 847.868 896.161 849.249 896.25C849.369 896.25 861.249 897.01 868.069 896.72C869.45 896.659 870.618 897.729 870.679 899.11C870.74 900.491 869.67 901.659 868.289 901.72C867.089 901.77 865.759 901.79 864.369 901.79Z" fill="#2A3640"/><path id="Path_19" d="M844.52 896.17C843.139 896.189 842.004 895.086 841.985 893.705C841.965 892.324 843.069 891.189 844.45 891.17L862.15 890.71C863.043 890.687 863.88 891.142 864.347 891.904C864.814 892.665 864.839 893.618 864.412 894.404C863.986 895.189 863.173 895.687 862.28 895.71L844.58 896.17H844.52Z" fill="#2A3640"/><path id="Path_20" d="M835.85 884.57C834.469 884.57 833.35 883.451 833.35 882.07C833.35 880.689 834.469 879.57 835.85 879.57L855.22 879.2C856.113 879.182 856.948 879.642 857.41 880.407C857.872 881.171 857.891 882.124 857.46 882.907C857.029 883.689 856.213 884.182 855.32 884.2L835.94 884.57H835.85Z" fill="#2A3640"/><path id="Path_21" d="M587.241 800.2C586.051 800.2 557.991 799.83 549.241 800.1C542.531 800.3 525.851 803.66 515.851 830.33C511.851 842.11 511.431 860.88 514.781 873.99C518.971 890.38 529.891 907.58 548.101 907.58C548.531 907.58 548.971 907.58 549.401 907.58C568.151 906.75 586.961 907.58 587.151 907.58C587.834 907.619 588.502 907.369 588.991 906.89C589.481 906.42 589.76 905.77 589.761 905.09V802.7C589.764 802.033 589.498 801.392 589.024 800.922C588.551 800.452 587.908 800.192 587.241 800.2Z" fill="#1B1812"/><path id="Path_22" d="M558.369 901.79C551.549 901.79 543.369 901.27 542.929 901.25C542.036 901.193 541.241 900.664 540.844 899.861C540.447 899.059 540.508 898.106 541.004 897.361C541.5 896.617 542.356 896.193 543.249 896.25C543.369 896.25 555.249 897.01 562.069 896.72C563.45 896.659 564.618 897.729 564.679 899.11C564.74 900.491 563.67 901.659 562.289 901.72C561.089 901.77 559.759 901.79 558.369 901.79Z" fill="#2A3640"/><path id="Path_23" d="M538.52 896.17C537.139 896.189 536.004 895.086 535.985 893.705C535.965 892.324 537.069 891.189 538.45 891.17L556.15 890.71C557.043 890.687 557.88 891.142 558.347 891.904C558.814 892.665 558.839 893.618 558.412 894.404C557.986 895.189 557.173 895.687 556.28 895.71L538.58 896.17H538.52Z" fill="#2A3640"/><path id="Path_24" d="M529.85 884.57C528.469 884.57 527.35 883.451 527.35 882.07C527.35 880.689 528.469 879.57 529.85 879.57L549.22 879.2C550.113 879.182 550.948 879.642 551.41 880.407C551.872 881.171 551.891 882.124 551.46 882.907C551.029 883.689 550.213 884.182 549.32 884.2L529.94 884.57H529.85Z" fill="#2A3640"/><path id="Path_25" d="M1157.24 800.2C1156.05 800.2 1127.99 799.83 1119.24 800.1C1112.53 800.3 1095.85 803.66 1085.85 830.33C1081.85 842.11 1081.43 860.88 1084.78 873.99C1088.97 890.38 1099.89 907.58 1118.1 907.58C1118.53 907.58 1118.97 907.58 1119.4 907.58C1138.15 906.75 1156.96 907.58 1157.15 907.58C1157.83 907.619 1158.5 907.369 1158.99 906.89C1159.48 906.42 1159.76 905.77 1159.76 905.09V802.7C1159.76 802.033 1159.5 801.392 1159.02 800.922C1158.55 800.452 1157.91 800.192 1157.24 800.2V800.2Z" fill="#1B1812"/><path id="Path_26" d="M1128.37 901.79C1121.55 901.79 1113.37 901.27 1112.93 901.25C1111.55 901.161 1110.5 899.971 1110.59 898.59C1110.68 897.209 1111.87 896.161 1113.25 896.25C1113.37 896.25 1125.25 897.01 1132.07 896.72C1132.96 896.681 1133.81 897.121 1134.29 897.875C1134.77 898.628 1134.81 899.581 1134.4 900.375C1133.99 901.168 1133.18 901.681 1132.29 901.72C1131.09 901.77 1129.76 901.79 1128.37 901.79Z" fill="#2A3640"/><path id="Path_27" d="M1108.52 896.17C1107.14 896.189 1106 895.086 1105.98 893.705C1105.97 892.324 1107.07 891.189 1108.45 891.17L1126.15 890.71C1127.04 890.687 1127.88 891.142 1128.35 891.904C1128.81 892.665 1128.84 893.618 1128.41 894.404C1127.99 895.189 1127.17 895.687 1126.28 895.71L1108.58 896.17H1108.52Z" fill="#2A3640"/><path id="Path_28" d="M1099.85 884.57C1098.47 884.57 1097.35 883.451 1097.35 882.07C1097.35 880.689 1098.47 879.57 1099.85 879.57L1119.22 879.2C1120.6 879.172 1121.74 880.269 1121.77 881.65C1121.8 883.031 1120.7 884.172 1119.32 884.2L1099.94 884.57H1099.85Z" fill="#2A3640"/><path id="Path_29" d="M340 691.94C336 686.2 329.24 679.17 319.42 678.27C309.12 677.27 297.84 684.27 293.19 694.51C288.987 704.092 290.035 715.166 295.96 723.79C299.87 729.58 305.96 734.48 313.62 737.96C316.463 739.343 319.57 740.096 322.73 740.17C324.132 740.174 325.528 739.989 326.88 739.62C332.45 738.11 337.24 733.78 340.28 730.41C351.3 718.23 347 702.07 340 691.94Z" fill="#1B1812"/><path id="Shape_2" fill-rule="evenodd" clip-rule="evenodd" d="M1294.8 579.07C1308.14 628.13 1315.17 666.2 1317.58 702.5C1317.79 705.329 1319.86 708.143 1321.92 710.94C1324.04 713.809 1326.14 716.66 1326.2 719.49C1327.13 758.7 1321.97 794.8 1310.83 827.03C1303.9 847.09 1280.79 864.03 1260.38 864.03H1197.72L1172.84 849.92L1075.92 864.03H626.249L609.999 855.65L509.729 864.03H228.449C214.119 864.93 196.469 865.85 177.789 865.85C170.729 865.85 163.519 865.72 156.289 865.41C147.159 865.01 136.889 864 130.289 856.92C126.276 852.609 124.55 846.933 123.04 841.965L122.999 841.83L101.319 767.18C96.4094 750.87 91.6994 730.13 98.9594 714.43C104.899 701.55 118.529 695.85 133.419 694.85C146.019 694.01 192.189 695.71 213.969 697.39C238.589 699.28 319.409 704.95 319.409 704.95C356.289 639.67 393.329 567.55 426.549 500.89C433.429 487.08 443.049 472.48 451.669 462.78C461.769 451.41 473.949 446.22 498.219 442.91C517.389 440.29 536.959 439.39 555.959 438.53C561.599 438.27 567.439 438 573.159 437.69C597.889 436.36 623.089 435.4 648.089 434.82C672.889 434.21 698.089 434.04 723.089 434.21C747.879 434.37 773.089 434.9 798.089 435.79C813.539 436.34 829.159 437.04 844.789 437.87C849.534 438.122 854.278 440.481 859.017 442.838C863.688 445.162 868.353 447.482 873.009 447.78C897.739 449.36 922.899 451.31 947.809 453.59C972.429 455.84 997.589 458.48 1022.43 461.42C1047 464.33 1072.03 467.62 1096.81 471.21C1112.05 473.38 1127.52 475.75 1142.81 478.21C1169.29 482.339 1195.54 487.843 1221.45 494.7C1236.94 498.87 1250.88 506.07 1258.12 511.07C1259.39 511.939 1260.47 512.656 1261.39 513.275C1266.36 516.594 1267.12 517.1 1271.54 523.21C1283.47 539.69 1289.35 559.07 1294.8 579.07ZM631.179 718.81H820.999C832.379 645.53 834.999 580.24 833.359 506.13C833.139 495.81 831.859 483.81 823.139 478.3C820.699 476.73 807.999 475.81 793.319 475.3C777.199 474.78 758.699 474.67 748.709 474.78C738.719 474.89 728.059 475.27 719.879 481.02C711.359 487.01 707.429 497.48 703.969 507.31C701.015 515.714 698.084 524.044 695.171 532.319C673.091 595.056 652.135 654.599 631.179 718.81Z" fill="#2A3640"/><path id="Path_30" d="M1326.21 719.31C1326.08 713.77 1325.82 708.167 1325.45 702.5C1323.04 666.2 1316.01 628.13 1302.67 579.07C1297.22 559.07 1291.34 539.69 1279.41 523.21C1273.47 515.295 1266.28 508.404 1258.12 502.81C1250.88 497.86 1236.94 490.61 1221.45 486.44C1195.54 479.605 1169.29 474.117 1142.81 470C1127.52 467.54 1112.05 465.17 1096.81 463C1072.03 459.41 1047 456.12 1022.43 453.21C997.589 450.27 972.429 447.64 947.809 445.38C922.899 443.1 897.739 441.15 873.009 439.57C863.629 438.97 854.222 438.427 844.789 437.94C868.239 439.61 877.659 478.94 877.659 515.84C877.659 552.74 873.459 668.25 862.199 719.39L1326.21 719.31Z" fill="#1B1812"/><path id="Path_31" d="M463.779 713.62C511.439 715.93 552.609 718.42 577.969 717.62C586.736 717.34 595.496 717.007 604.249 716.62C633.389 645.2 659.889 566.82 683.649 493.34C684.723 490.047 684.134 486.438 682.07 483.657C680.006 480.876 676.722 479.267 673.259 479.34C636.259 480.08 539.869 482.72 488.739 484.34C480.099 484.62 471.179 484.63 463.119 487.76C455.059 490.89 446.509 500.01 441.439 510.36C436.369 520.71 377.879 640.36 343.939 704.28C369.269 706.51 444.189 712.67 463.779 713.62Z" fill="#4A5D70"/><path id="Path_32" d="M343.939 704.38C368.329 706.38 438.679 712.22 461.359 713.49C524.872 681.908 586.36 646.409 645.469 607.2C658.889 569.03 671.619 530.58 683.649 493.38C685.194 488.605 683.199 483.4 678.859 480.88C577.19 562.223 467.277 632.688 350.919 691.12C348.499 695.74 346.169 700.18 343.939 704.38Z" fill="#718F99"/><path id="Path_33" d="M414.451 565.29C405.331 583.72 394.761 604.98 384.051 626.29C471.08 583.445 555.058 534.663 635.391 480.29C613.811 480.83 588.031 481.52 562.821 482.23C514.271 511.69 465.001 539.45 414.451 565.29Z" fill="#718F99"/><path id="Path_34" d="M626.26 864C627.312 861.634 628.198 859.199 628.91 856.71C632.12 846.27 635.36 835.71 636.25 824.85C637.14 813.99 635.52 802.55 629.64 793.34C619.3 777.16 595.64 771.34 578.95 780.94C568.12 787.17 561.08 798.31 555.56 809.52C551.29 818.22 547.64 827.25 542.56 835.52C538.153 842.957 532.093 849.28 524.85 854C519.85 857.18 514.3 860.12 509.73 864H626.26Z" fill="#1B1812"/><path id="Path_35" d="M1197.73 864C1198.43 862.37 1199.09 860.72 1199.73 859.08C1203.96 848.24 1207.41 837.08 1208.98 825.57C1210.55 814.06 1208.08 801.35 1199.79 793.18C1189.1 782.64 1167.28 782.37 1153.79 788.9C1140.3 795.43 1130.24 807.37 1121.4 819.51C1112.56 831.65 1104.4 844.51 1092.85 854.18C1088.81 857.599 1084.33 860.464 1079.53 862.7C1078.37 863.209 1077.18 863.644 1075.96 864H1197.73Z" fill="#1B1812"/><path id="Path_36" d="M1290.5 910.72H133.5C132.119 910.72 131 909.601 131 908.22C131 906.839 132.119 905.72 133.5 905.72H1290.5C1291.88 905.72 1293 906.839 1293 908.22C1293 909.601 1291.88 910.72 1290.5 910.72Z" fill="#1B1812"/><path id="Path_37" d="M482.65 829C477.08 822.56 467.95 821.59 459.84 821.19C343.45 815.41 225.1 818.54 110.64 821.57C103.83 821.75 93.5499 822.02 89.0399 831.87C86.9205 836.683 86.8843 842.159 88.9399 847C89.7289 848.905 90.6236 850.765 91.6199 852.57C96.8927 862.05 106.902 867.915 117.75 867.88H457.21H459.91C461.03 867.88 462.23 867.95 463.49 868.02C464.75 868.09 466.18 868.17 467.57 868.17C469.948 868.236 472.32 867.873 474.57 867.1C478.35 865.67 480.42 862.44 481.95 859.48C486.58 850.49 490.41 838 482.65 829Z" fill="#1B1812"/><path id="Path_38" d="M387.999 821.35C386.815 821.345 385.796 820.51 385.559 819.35C380.195 794.563 376.454 769.453 374.359 744.18C372.359 719.48 380.359 711.77 383.929 709.6C389.449 706.23 395.929 706.42 402.599 706.95C403.492 707.02 404.281 707.56 404.667 708.369C405.053 709.177 404.979 710.13 404.472 710.869C403.965 711.607 403.102 712.02 402.209 711.95C396.369 711.49 390.779 711.29 386.529 713.88C377.999 719.09 378.869 738.09 379.339 743.79C381.419 768.845 385.13 793.738 390.449 818.31C390.598 818.963 390.478 819.648 390.117 820.212C389.756 820.776 389.184 821.171 388.529 821.31C388.355 821.343 388.177 821.357 387.999 821.35V821.35Z" fill="#1B1812"/><path id="Shape_3" d="M935.099 839C890.909 839 845.999 838.38 801.869 837.77C750.339 837.06 701.669 836.39 654.399 836.63V836.63C653.532 836.634 652.725 836.187 652.269 835.45C651.818 834.708 651.78 833.786 652.169 833.01L658.009 821.42C667.099 791.55 665.009 760.03 652.169 734.91C651.542 733.678 652.033 732.172 653.264 731.545C654.496 730.918 656.002 731.408 656.629 732.64C670.049 758.96 672.269 791.93 662.719 823.09C662.678 823.223 662.628 823.353 662.569 823.48L658.469 831.61C704.469 831.43 751.869 832.08 801.949 832.78C885.839 833.93 972.589 835.13 1051.66 832.03C1052.66 832.03 1053.66 831.97 1054.72 831.95C1058.72 831.88 1062.22 831.81 1065.64 830.4C1067.59 829.59 1069.57 828.68 1071.53 827.7C1075.49 825.703 1079.32 823.466 1083 821C1090.35 815.936 1097.37 810.397 1104 804.42C1106.79 801.96 1109.6 799.42 1112.32 796.96C1121.88 788.33 1131.77 779.4 1142.75 772.14C1159.15 761.29 1175.92 755.99 1191.24 756.81C1210.12 757.81 1226.98 768.87 1233.18 784.34C1240.72 803.15 1236.12 815.64 1227.18 833.05H1278.34C1279.72 833.05 1280.84 834.169 1280.84 835.55C1280.84 836.931 1279.72 838.05 1278.34 838.05H1223.06C1222.18 838.046 1221.37 837.587 1220.92 836.84C1220.47 836.092 1220.44 835.162 1220.85 834.39C1230.61 815.73 1235.78 804.3 1228.53 786.2C1223.03 772.51 1207.94 762.7 1190.97 761.8C1176.72 761.06 1160.97 766.06 1145.5 776.31C1134.83 783.31 1125.08 792.16 1115.66 800.67C1112.93 803.14 1110.1 805.67 1107.29 808.17C1100.48 814.304 1093.27 819.983 1085.72 825.17C1081.87 827.764 1077.86 830.122 1073.72 832.23C1071.65 833.23 1069.55 834.23 1067.5 835.09C1063.2 836.87 1058.9 836.95 1054.75 837.02L1051.75 837.09C1014.27 838.53 974.999 839 935.099 839Z" fill="#1B1812"/><path id="Path_39" d="M1332.35 803.46C1329.02 800.83 1324.82 800.25 1321.15 799.91C1315.48 799.38 1300.1 800.46 1290.68 802.03C1280.46 803.73 1271.59 807.86 1265.03 814.03C1258.47 820.2 1254.33 828.36 1250.94 835.59C1246.47 845.15 1242.37 855.02 1238.78 864.94C1238.51 865.683 1238.61 866.51 1239.04 867.171C1239.48 867.831 1240.2 868.246 1240.99 868.29C1244.9 868.5 1249.56 868.58 1254.47 868.58C1264.58 868.58 1275.72 868.24 1283.38 868.01L1285.38 867.94C1294.29 867.733 1303.1 865.931 1311.38 862.62C1315.82 860.743 1319.83 857.98 1323.17 854.5C1330.67 846.58 1333.54 835.33 1335.84 826.29C1337.68 819.1 1339.3 809 1332.35 803.46Z" fill="#1B1812"/><path id="Path_40" d="M466.2 677.83C431.594 679.462 397.307 685.227 364.07 695C362.875 695.348 362.119 696.522 362.295 697.754C362.471 698.985 363.526 699.9 364.77 699.9C365.01 699.897 365.249 699.86 365.48 699.79C375.48 696.863 385.576 694.297 395.77 692.09C391.79 696.315 388.351 701.018 385.53 706.09C384.859 707.297 385.293 708.819 386.5 709.49C387.706 710.161 389.229 709.727 389.9 708.52C393.478 702.071 398.131 696.281 403.66 691.4C403.98 691.112 404.221 690.747 404.36 690.34C424.842 686.352 445.586 683.859 466.43 682.88C467.81 682.817 468.878 681.646 468.815 680.265C468.751 678.884 467.58 677.817 466.2 677.88V677.83Z" fill="#1B1812"/><path id="Path_41" d="M585 686.57C548.208 686.028 511.51 690.431 475.89 699.66C474.672 699.976 473.878 701.149 474.038 702.397C474.198 703.646 475.261 704.581 476.52 704.58C476.733 704.577 476.944 704.55 477.15 704.5C488.45 701.573 499.85 699.14 511.35 697.2L496.88 712.88C495.944 713.896 496.009 715.479 497.025 716.415C498.042 717.351 499.624 717.286 500.56 716.27L519.27 696C519.285 695.969 519.305 695.942 519.33 695.92C541.05 692.691 562.995 691.226 584.95 691.54V691.54C586.331 691.54 587.45 690.421 587.45 689.04C587.45 687.659 586.331 686.54 584.95 686.54L585 686.57Z" fill="#1B1812"/><path id="Shape_4" fill-rule="evenodd" clip-rule="evenodd" d="M631.18 721.31H821C822.234 721.31 823.283 720.409 823.47 719.19C834 651.34 837.71 587.59 835.86 506.04C835.6 494.66 834.05 482.21 824.47 476.15C823.33 475.44 820.67 473.8 793.41 472.8C778.04 472.28 759.45 472.15 748.68 472.28C737.59 472.4 726.93 472.97 718.45 478.97C708.94 485.65 704.7 497.69 701.61 506.48C698.69 514.78 695.797 523.013 692.93 531.18C670.75 594.18 649.81 653.69 628.81 718.03C628.561 718.791 628.69 719.625 629.159 720.274C629.628 720.923 630.38 721.308 631.18 721.31ZM818.86 716.31H634.63C655.175 653.501 675.699 595.169 697.391 533.52L697.63 532.84C700.504 524.673 703.4 516.44 706.32 508.14C710.05 497.57 713.74 488.39 721.32 483.06C728.65 477.92 738.03 477.41 748.74 477.28C759.45 477.15 777.94 477.27 793.23 477.8C817.63 478.65 821.32 480.1 821.8 480.38C829.38 485.15 830.63 496.15 830.86 506.15C832.68 586.55 829.09 649.55 818.86 716.31Z" fill="#1B1812"/><path id="Path_42" d="M691.45 681C680.08 676.26 665.59 680.1 657.74 689.94V689.94C653.443 695.468 651.234 702.334 651.5 709.33C651.7 720.33 655.34 727.33 662.33 730.33C665.445 731.592 668.78 732.221 672.14 732.18C680.344 731.97 688.297 729.313 694.98 724.55C699.714 721.321 703.385 716.763 705.53 711.45C709.83 699.93 703.39 686 691.45 681Z" fill="#1B1812"/><path id="Path_43" d="M496.26 763.92H489.26C487.879 763.92 486.76 762.801 486.76 761.42C486.76 760.039 487.879 758.92 489.26 758.92H496.26C497.64 758.92 498.76 760.039 498.76 761.42C498.76 762.801 497.64 763.92 496.26 763.92Z" fill="#1B1812"/><path id="Path_44" d="M521.639 801C521.377 801.001 521.116 800.957 520.869 800.87C520.236 800.668 519.71 800.222 519.408 799.63C519.105 799.039 519.052 798.351 519.259 797.72C527.439 772.5 544.119 751.9 565.009 741.21C588.249 729.31 617.009 730.68 636.609 744.6C637.736 745.401 638 746.963 637.199 748.09C636.398 749.216 634.836 749.481 633.709 748.68C615.609 735.8 588.909 734.59 567.279 745.68C547.559 755.78 531.789 775.31 524.009 799.29C523.669 800.31 522.715 800.999 521.639 801Z" fill="#1B1812"/><path id="Path_45" d="M802.23 750.69V750.69L775.5 750.5C774.119 750.5 773 749.381 773 748C773 746.619 774.119 745.5 775.5 745.5V745.5L802.23 745.69C803.611 745.69 804.73 746.809 804.73 748.19C804.73 749.571 803.611 750.69 802.23 750.69V750.69Z" fill="#1B1812"/><path id="Path_46" d="M809 797.34H808.75C766.296 793.072 723.533 792.818 681.03 796.58C680.137 796.659 679.27 796.255 678.755 795.521C678.241 794.786 678.157 793.833 678.535 793.021C678.914 792.208 679.697 791.659 680.59 791.58C723.406 787.788 766.483 788.042 809.25 792.34C810.631 792.409 811.694 793.584 811.625 794.965C811.556 796.346 810.381 797.409 809 797.34V797.34Z" fill="#1B1812"/><path id="Path_47" d="M818.099 827.79C817.245 827.789 816.451 827.351 815.993 826.63C815.535 825.909 815.477 825.004 815.839 824.23C826.619 801.29 831.579 770.88 830.999 731.23C830.977 729.849 832.079 728.712 833.459 728.69C834.84 728.668 835.977 729.769 835.999 731.15C836.589 771.55 831.479 802.68 820.359 826.32C819.961 827.212 819.077 827.788 818.099 827.79V827.79Z" fill="#1B1812"/><path id="Path_48" d="M1201.85 606.74C1200.38 602.62 1195.32 600.27 1190.85 601.61C1186.68 602.85 1183.85 606.94 1184.4 610.92C1184.51 611.799 1184.76 612.654 1185.15 613.45C1171.07 613.9 1156.96 609.39 1148.15 604.7C1140.42 600.59 1134.95 595.76 1129.66 590.59C1131.19 584.196 1128.09 577.593 1122.2 574.68C1118.91 573.168 1115.14 573.063 1111.77 574.39C1103.89 568.69 1095.4 563.887 1086.45 560.07C1073.69 554.51 1054.64 552.97 1037.59 556.07C1035.67 556.28 1033.88 557.125 1032.49 558.47C1030.27 560.345 1029.25 563.286 1029.84 566.134C1030.43 568.981 1032.53 571.278 1035.31 572.12C1036.32 572.492 1037.39 572.684 1038.46 572.69C1040.23 572.709 1041.95 572.131 1043.34 571.05C1045.56 569.205 1046.66 566.338 1046.25 563.48C1046.12 562.35 1045.78 561.255 1045.25 560.25C1058.75 559.69 1072.16 562.559 1084.25 568.59C1091.32 572.37 1097.86 577.079 1103.69 582.59C1102.88 584.88 1102.75 587.356 1103.31 589.72C1104.7 594.956 1109.07 598.863 1114.43 599.66C1115.3 599.794 1116.17 599.861 1117.05 599.86C1118.72 599.881 1120.39 599.572 1121.94 598.95C1128.94 604.506 1136.72 608.997 1145.03 612.28C1156.26 616.526 1168.16 618.737 1180.16 618.81C1183.94 618.816 1187.71 618.552 1191.45 618.02L1192.02 617.92C1192.77 617.81 1193.51 617.68 1194.26 617.54C1196.83 617.34 1199.17 615.991 1200.63 613.87C1202.18 611.835 1202.63 609.173 1201.85 606.74V606.74Z" fill="#2A3640"/><path id="Path_49" d="M1123.76 589.13C1122.45 589.133 1121.35 588.112 1121.27 586.8C1121.14 584.997 1120.09 583.388 1118.49 582.55C1118.09 582.369 1117.67 582.245 1117.23 582.18C1115.88 581.966 1114.96 580.711 1115.15 579.361C1115.34 578.01 1116.58 577.062 1117.93 577.23C1118.84 577.359 1119.73 577.622 1120.57 578.01C1123.83 579.613 1126 582.832 1126.25 586.46C1126.3 587.121 1126.08 587.775 1125.65 588.275C1125.21 588.775 1124.59 589.079 1123.93 589.12L1123.76 589.13Z" fill="#4A5D70"/><path id="Path_50" d="M1041.77 566.83C1040.42 566.831 1039.31 565.759 1039.27 564.41C1039.29 563.919 1039.07 563.449 1038.68 563.15L1038.18 562.96C1036.88 562.488 1036.21 561.053 1036.68 559.755C1037.16 558.457 1038.59 557.788 1039.89 558.26L1040.54 558.5L1040.74 558.58C1042.89 559.652 1044.26 561.845 1044.27 564.25C1044.29 564.913 1044.05 565.558 1043.59 566.042C1043.14 566.526 1042.51 566.809 1041.85 566.83H1041.77Z" fill="#4A5D70"/><path id="Path_51" d="M1197.5 611.88H1197.3C1195.92 611.768 1194.9 610.566 1195 609.19C1195 609.14 1195 609.09 1195 609.04C1194.7 608.506 1194.13 608.177 1193.52 608.18C1192.63 608.119 1191.83 607.587 1191.44 606.783C1191.05 605.979 1191.11 605.026 1191.61 604.283C1192.11 603.54 1192.97 603.119 1193.86 603.18C1196.46 603.282 1198.76 604.915 1199.71 607.34C1199.96 608.052 1200.05 608.808 1199.99 609.56C1199.9 610.866 1198.81 611.878 1197.5 611.88Z" fill="#4A5D70"/><path id="Shape_5" fill-rule="evenodd" clip-rule="evenodd" d="M487.521 717.28C518.961 718.88 546.781 720.28 567.401 720.28C571.201 720.28 574.761 720.23 578.021 720.15C585.891 719.88 594.501 719.56 604.331 719.15C605.308 719.112 606.172 718.506 606.541 717.6C637.311 642.15 665.171 558.57 686.001 494.15C687.295 490.098 686.555 485.671 684.014 482.259C681.474 478.848 677.444 476.871 673.191 476.95C637.771 477.63 541.191 480.26 488.641 481.95L486.561 482.01C478.421 482.25 470.011 482.54 462.191 485.54C453.701 488.85 444.671 498.2 439.191 509.37L438.311 511.18C419.051 550.47 371.101 647.9 341.731 703.18C341.334 703.923 341.337 704.815 341.74 705.555C342.143 706.294 342.891 706.781 343.731 706.85C370.471 709.1 444.151 715.15 463.661 716.1C471.821 716.49 479.791 716.89 487.521 717.28ZM487.771 712.31L463.901 711.12L463.881 711.09C445.281 710.17 377.171 704.63 347.881 702.17C377.411 646.34 423.881 551.9 442.761 513.34L443.641 511.54C448.521 501.59 456.691 493 463.981 490.16C470.98 487.438 478.924 487.201 486.623 486.972L486.691 486.97L488.791 486.91C541.271 485.24 637.861 482.61 673.271 481.91C675.924 481.844 678.445 483.067 680.035 485.193C681.624 487.319 682.085 490.084 681.271 492.61C660.601 556.52 633.011 639.36 602.551 714.22C593.401 714.6 585.321 714.9 577.901 715.13C557.133 715.785 525.398 714.195 488.635 712.353L487.771 712.31Z" fill="#1B1812"/><path id="Path_52" d="M343.94 706.88H343.7L322.11 704.88C320.729 704.75 319.715 703.526 319.845 702.145C319.975 700.764 321.199 699.75 322.58 699.88L344.17 701.93C345.551 701.993 346.619 703.164 346.555 704.545C346.492 705.926 345.321 706.993 343.94 706.93V706.88Z" fill="#1B1812"/><path id="Path_53" d="M623.17 842.14C620.6 819.14 607.72 802.35 591.17 800.29C575.66 798.35 561.3 809.84 553.62 830.29C549.62 842.07 549.19 860.84 552.54 873.95C558.93 898.95 573.69 907.51 586.13 907.51C587.74 907.511 589.346 907.367 590.93 907.08C610.15 903.6 627.42 880.15 623.17 842.14Z" fill="#1B1812"/><path id="Shape_6" fill-rule="evenodd" clip-rule="evenodd" d="M558.389 870.89C562.809 888.73 573.399 899.51 585.999 899.51C587.335 899.492 588.666 899.358 589.979 899.11C606.079 896.27 620.499 876.39 616.979 843.91C614.849 824.28 604.119 809.95 590.279 808.28C574.959 806.44 564.279 820.26 559.279 833.89C556.029 843.89 555.649 859.79 558.389 870.89ZM564.009 835.56C569.169 821.36 577.859 813.16 587.569 813.16H587.579C588.278 813.16 588.976 813.203 589.669 813.29C602.929 814.89 610.439 830.11 611.999 844.49C614.349 866.23 607.139 891.04 589.139 894.23C577.609 896.27 567.449 886.69 563.249 869.69C560.739 859.56 561.089 844.56 564.009 835.56Z" fill="#2A3640"/><path id="Path_54" d="M602.51 849.11C601.34 839.52 595.63 832.66 587.98 831.63C582.26 830.86 574.62 833.74 570.35 844.19C568.57 849.02 568.35 856.71 569.85 862.06C571.91 869.42 577.35 876.17 585.22 876.17C586.191 876.164 587.158 876.067 588.11 875.88C596.68 874.17 604.38 864.42 602.51 849.11Z" fill="#2A3640"/><path id="Path_55" d="M595.579 854.31H595.529C594.866 854.297 594.235 854.021 593.776 853.543C593.316 853.064 593.066 852.423 593.079 851.76C593.139 848.76 591.639 844.4 589.079 842.76C588.293 842.283 587.833 841.412 587.88 840.494C587.928 839.575 588.476 838.757 589.307 838.364C590.138 837.97 591.118 838.065 591.859 838.61C596.039 841.4 598.129 847.41 598.039 851.92C597.981 853.242 596.902 854.29 595.579 854.31Z" fill="#4A5D70"/><path id="Path_56" d="M1193.17 842.14C1190.6 819.14 1177.72 802.35 1161.17 800.29C1145.67 798.35 1131.3 809.84 1123.62 830.29C1119.62 842.07 1119.19 860.84 1122.54 873.95C1128.93 898.95 1143.69 907.51 1156.13 907.51C1157.74 907.511 1159.35 907.367 1160.93 907.08C1180.15 903.6 1197.42 880.15 1193.17 842.14Z" fill="#1B1812"/><path id="Shape_7" fill-rule="evenodd" clip-rule="evenodd" d="M1128.39 870.89C1132.81 888.73 1143.4 899.51 1156 899.51C1157.33 899.492 1158.67 899.358 1159.98 899.11C1176.08 896.27 1190.5 876.39 1186.98 843.91C1184.85 824.28 1174.12 809.95 1160.28 808.28C1144.96 806.44 1134.28 820.26 1129.28 833.89C1126.03 843.89 1125.65 859.79 1128.39 870.89ZM1134.01 835.56C1139.17 821.36 1147.86 813.16 1157.57 813.16H1157.58C1158.28 813.16 1158.98 813.203 1159.67 813.29C1172.93 814.89 1180.44 830.11 1182 844.49C1184.35 866.23 1177.14 891.04 1159.14 894.23C1147.61 896.27 1137.45 886.69 1133.25 869.69C1130.74 859.56 1131.09 844.56 1134.01 835.56Z" fill="#2A3640"/><path id="Path_57" d="M1172.51 849.11C1171.34 839.52 1165.63 832.66 1157.98 831.63C1152.25 830.86 1144.62 833.74 1140.35 844.19C1138.57 849.02 1138.35 856.71 1139.85 862.06C1141.91 869.42 1147.35 876.17 1155.22 876.17C1156.19 876.164 1157.16 876.067 1158.11 875.88C1166.68 874.17 1174.38 864.42 1172.51 849.11Z" fill="#2A3640"/><path id="Path_58" d="M1165.58 854.31V854.31C1164.92 854.297 1164.29 854.021 1163.83 853.543C1163.37 853.064 1163.12 852.423 1163.13 851.76C1163.19 848.76 1161.69 844.4 1159.13 842.76C1158.34 842.283 1157.88 841.412 1157.93 840.494C1157.98 839.575 1158.53 838.757 1159.36 838.364C1160.19 837.97 1161.17 838.065 1161.91 838.61C1166.09 841.4 1168.18 847.41 1168.09 851.92C1168.03 853.261 1166.92 854.317 1165.58 854.31Z" fill="#4A5D70"/><path id="Path_59" d="M1094.11 801.26H1093.86C1045.77 796.61 893.009 795.34 846.209 799.19C845.316 799.265 844.451 798.858 843.939 798.122C843.427 797.386 843.347 796.433 843.729 795.622C844.111 794.811 844.896 794.265 845.789 794.19C892.789 790.32 1046.08 791.6 1094.35 796.26C1095.24 796.303 1096.04 796.819 1096.45 797.614C1096.86 798.409 1096.82 799.362 1096.33 800.114C1095.85 800.866 1095 801.303 1094.11 801.26V801.26Z" fill="#1B1812"/><path id="Path_60" d="M319.55 731.83C319.34 727.56 319.35 722.83 322.15 719.59C325.64 715.59 332.85 717.17 338.15 717.97C341.5 718.47 345.37 719.7 347.31 722.48C348.7 724.48 348.67 727.09 348.63 729.48C348.252 751.654 350.944 773.774 356.63 795.21C357.093 796.935 356.728 798.776 355.643 800.194C354.558 801.612 352.876 802.446 351.09 802.45H336.32C332.853 802.454 329.824 800.108 328.96 796.75C326.058 785.717 323.821 774.521 322.26 763.22C321.23 755.16 320 740 319.55 731.83Z" fill="#4A5D70"/><path id="Shape_8" fill-rule="evenodd" clip-rule="evenodd" d="M336.319 805H350.999V804.95C353.569 804.959 355.995 803.771 357.564 801.736C359.132 799.701 359.663 797.052 358.999 794.57C353.409 773.366 350.757 751.495 351.119 729.57C351.169 726.97 351.219 723.74 349.349 721.05C347.359 718.19 343.609 716.27 338.509 715.5L337.009 715.26L336.993 715.257C331.645 714.408 324.325 713.245 320.259 717.96C316.849 721.9 316.819 727.25 317.059 731.96C317.469 739.97 318.719 755.2 319.779 763.59C321.356 774.995 323.614 786.295 326.539 797.43C327.693 801.888 331.715 805.001 336.319 805ZM324.689 762.96C323.639 754.71 322.409 739.63 321.999 731.71V731.69C321.819 727.95 321.739 723.79 323.999 721.2C326.259 718.61 331.759 719.49 336.179 720.2L337.719 720.44C341.379 720.99 344.039 722.22 345.209 723.91C346.091 725.172 346.086 727.167 346.08 729.047C346.08 729.192 346.079 729.336 346.079 729.48C345.699 751.881 348.408 774.228 354.129 795.89C354.391 796.877 354.18 797.929 353.559 798.74C352.949 799.536 352.002 800.002 350.999 800H336.269C333.946 799.998 331.916 798.428 331.329 796.18C328.459 785.248 326.242 774.155 324.689 762.96Z" fill="#1B1812"/><path id="Path_61" d="M112.419 734.49C111.759 728.32 112.419 721.94 116.909 717.49C119.589 714.84 125.109 713.18 134.479 713.49C138.47 713.584 141.716 716.734 141.929 720.72C142.929 745.87 146.929 772.07 154.849 795.72C155.339 797.333 155.018 799.084 153.987 800.419C152.957 801.753 151.344 802.506 149.659 802.44H134.349C130.707 802.494 127.459 800.159 126.349 796.69C124.349 789.95 121.139 778.69 119.459 770.9C116.939 759.11 113.309 742.68 112.419 734.49Z" fill="#4A5D70"/><path id="Shape_9" fill-rule="evenodd" clip-rule="evenodd" d="M134.359 805H149.669C152.244 805.02 154.67 803.799 156.189 801.72C157.595 799.772 157.968 797.263 157.189 794.99C149.929 773.3 145.509 747.6 144.399 720.67C144.102 715.391 139.823 711.213 134.539 711.04C125.119 710.73 118.619 712.26 115.119 715.73C110.759 720.03 109.009 726.43 109.909 734.73C110.714 742.254 113.731 756.254 116.206 767.735L116.349 768.4L117.009 771.46C118.789 779.53 122.159 791.21 124.009 797.46C125.431 801.972 129.628 805.03 134.359 805ZM118.669 719.29C119.949 718 123.359 716 132.059 716C132.789 716 133.569 716 134.469 716.07C137.133 716.157 139.296 718.251 139.469 720.91C140.549 748.3 145.059 774.48 152.469 796.61C152.729 797.359 152.598 798.188 152.119 798.82C151.542 799.596 150.626 800.047 149.659 800.03H134.349C131.814 800.071 129.551 798.446 128.779 796.03C126.929 789.85 123.629 778.31 121.929 770.43L121.269 767.36C118.789 755.88 115.709 741.59 114.909 734.22C114.169 727.41 115.399 722.52 118.669 719.29Z" fill="#1B1812"/><path id="Shape_10" fill-rule="evenodd" clip-rule="evenodd" d="M309.001 793.41C305.104 770.173 302.885 746.685 302.361 723.13C302.285 718.739 298.798 715.169 294.411 714.99L294.024 714.975C254.284 713.409 213.185 711.791 168.161 711.99C163.406 712.006 159.561 715.865 159.561 720.62V722.76C160.471 746.35 163.981 770.14 166.951 788.23C167.951 794.68 169.431 801.23 174.211 803.67C177.211 805.24 190.721 805.67 203.971 805.67C214.171 805.67 224.241 805.42 229.271 805.28L268.691 804.16L274.141 804.02L276.891 803.95C284.062 803.769 294.21 803.512 300.881 803.31C303.322 803.243 305.615 802.12 307.165 800.233C308.715 798.345 309.37 795.878 308.961 793.47L309.001 793.41ZM269.679 725.59V725.59L269.581 723.72L269.341 719.02L280.471 719.45C281.371 743.14 283.471 775.57 286.831 798.64L275.581 798.92C272.509 779.535 270.835 747.638 269.679 725.59ZM236.431 717.91C237.341 742.09 239.551 777.25 242.891 799.83L254.471 799.5C250.681 776.39 248.381 742.26 247.761 718.26L236.431 717.91ZM208.891 799.83C204.141 776.58 200.891 745.7 200.191 717.11C204.721 717.17 209.191 717.25 213.661 717.34C214.501 732.84 216.841 770.09 221.371 800.4C217.031 800.49 212.861 800.55 208.921 800.57C208.951 800.326 208.937 800.079 208.881 799.84L208.891 799.83ZM164.571 722.52C165.461 745.83 168.951 769.37 171.891 787.37L171.921 787.38C172.791 792.72 174.001 797.84 176.561 799.2C177.481 799.61 180.581 799.96 185.291 800.2C180.601 772.6 177.861 734.42 176.781 716.91H168.191C166.195 716.91 164.576 718.524 164.571 720.52V722.52ZM190.351 800.37C185.631 773.1 182.851 734.69 181.751 716.9C186.251 716.9 190.717 716.933 195.151 717C195.851 745.82 199.151 777 203.911 800.54C198.871 800.6 194.291 800.54 190.381 800.43L190.351 800.37ZM226.371 800.24L229.141 800.16L237.831 799.91C234.491 777.01 232.301 741.82 231.401 717.71C227.174 717.597 222.917 717.49 218.631 717.39C219.491 733.15 221.851 770.24 226.371 800.24ZM268.561 799.04L259.481 799.3C255.681 776.51 253.361 742.46 252.741 718.37L264.341 718.78L264.601 723.91C265.711 745.91 267.381 778.71 270.511 798.99L268.561 799.04ZM300.741 798.2C301.738 798.177 302.674 797.716 303.301 796.94L303.331 797C303.989 796.208 304.251 795.158 304.041 794.15C300.107 770.674 297.864 746.947 297.331 723.15C297.3 721.411 295.918 719.999 294.181 719.93L285.491 719.59C286.401 743.32 288.521 775.67 291.871 798.44L300.741 798.2Z" fill="#1B1812"/><path id="Path_62" d="M1320 710.79H875.799C875.065 710.794 874.366 710.474 873.889 709.914C873.413 709.355 873.208 708.614 873.329 707.89C884.759 638.01 888.449 543.75 886.639 505.3C885.549 482.14 880.479 460.8 872.739 446.75C872.241 445.965 872.219 444.968 872.683 444.162C873.148 443.356 874.021 442.875 874.95 442.912C875.879 442.949 876.711 443.499 877.109 444.34C885.219 459.03 890.509 481.17 891.639 505.07C893.429 543.2 889.849 635.9 878.729 705.79H1320C1321.38 705.79 1322.5 706.909 1322.5 708.29C1322.5 709.671 1321.38 710.79 1320 710.79V710.79Z" fill="#2A3640"/></g></g></g></g><g id="Hair" transform="translate(656 467) scale(1 1)"><g id="Hair/Mohawk"><g id="mohawk"><g id="hair"><path id="Path" d="M112.24 144.94C112.224 142.357 110.786 139.993 108.5 138.79C105.917 137.545 102.865 137.778 100.5 139.4C98.2508 140.842 96.9813 143.407 97.2001 146.07C97.1904 146.173 97.1904 146.277 97.2001 146.38C97.8701 149.77 101.2 152.16 103.64 153.67C104.463 154.195 105.517 154.195 106.34 153.67C109.57 151.51 112.45 149 112.24 144.94Z" fill="#9390ff"/><path id="Path" d="M97.9402 104.92C98.6095 105.402 99.4734 105.522 100.249 105.243C101.025 104.963 101.613 104.318 101.82 103.52C102.91 99.31 107.38 96.74 111.34 96.05C112.992 95.7782 114.669 95.6943 116.34 95.8C116.587 95.7848 116.834 95.7848 117.08 95.8C120.967 95.9467 124.914 96.2533 128.92 96.72C131.05 96.97 133.46 97.38 135.28 99.14C138.45 102.21 137.51 106.98 137.06 109.27L136.97 109.71C137.97 109.71 138.88 109.82 139.82 109.94C141.342 110.108 142.827 110.516 144.22 111.15L144.62 110.81C145.288 110.25 145.614 109.381 145.48 108.52C145.338 107.664 144.768 106.94 143.97 106.6L138.68 104.38C141 102.38 143.02 100.68 143.51 100.29C143.906 100.051 144.225 99.7044 144.43 99.29C144.709 98.688 144.737 97.9999 144.508 97.3772C144.279 96.7545 143.812 96.2483 143.21 95.97H143.11C141.632 95.4249 140.127 94.9576 138.6 94.57L137.24 94.18C138.18 92.27 139.24 90.08 139.41 89.71C139.863 88.9001 139.83 87.9059 139.325 87.1277C138.819 86.3495 137.924 85.9153 137 86L129.49 86.56L129.35 79.35C129.317 78.4193 128.769 77.5841 127.929 77.1828C127.089 76.7815 126.095 76.8806 125.35 77.44C125.3 77.44 121.35 80.57 118.19 82.62C116.72 79.98 114.65 76.29 114.65 76.29C114.211 75.508 113.387 75.02 112.49 75.01V75.01C111.603 75.0097 110.782 75.4773 110.33 76.24C110.33 76.29 107.9 80.37 105.96 83.4L100 78.59C99.2081 77.9443 98.1027 77.8457 97.2088 78.3411C96.3149 78.8365 95.8125 79.826 95.9402 80.84L96.9402 88.26L87.3602 87.72C86.3812 87.6527 85.4565 88.1761 85.0102 89.05C84.553 89.919 84.6469 90.9752 85.2502 91.75C85.4702 92.12 92.3302 100.91 97.9402 104.92Z" fill="#9390ff"/></g></g></g></g><g id="Facial Hair" transform="translate(656 466) scale(220 200)"><g id="Facial Hair/None" stroke="none" stroke-width="1" fill="none" fill-rule="evenodd" fill-opacity="0"/></g><g id="Accessories" transform="translate(656 462) scale(1 1)"><g id="Accessories/Cap"><g id="snapback"><g id="hair"><path id="Path" d="M145.42 92.8399C144.68 86.9099 141.68 81.8399 137.42 79.3099C134.08 77.3099 130.33 76.9099 126.42 76.6299C120.85 76.2199 115.19 75.9699 109.59 75.8899C103.59 75.7899 97.2399 75.9699 91.6799 78.9399C86.1199 81.9099 83.0899 87.9399 83.3499 95.3399C83.3984 96.6854 84.5036 97.7508 85.8499 97.7499H85.9999C87.1503 97.7039 88.1206 96.8782 88.3499 95.7499L139.7 106.75V106.83C139.58 107.48 139.724 108.15 140.099 108.694C140.474 109.238 141.05 109.611 141.7 109.73C141.85 109.745 142 109.745 142.15 109.73C143.357 109.73 144.393 108.868 144.61 107.68C145.605 102.8 145.878 97.7996 145.42 92.8399Z" fill="#FFC037"/><path id="Path_2" d="M142.1 104.82C138.461 104.914 134.826 104.524 131.29 103.66C128.09 102.82 124.7 101.66 121.42 100.44C118.92 99.55 116.33 98.62 113.8 97.86L113.34 97.72C107.769 95.862 102.052 94.4738 96.2498 93.57C92.4688 93.1831 88.6707 92.9862 84.8698 92.98C79.403 92.9447 73.9577 93.6683 68.6898 95.13C67.4798 95.43 63.3198 96.6 60.6898 99.13C59.6945 100.086 59.0979 101.382 59.0198 102.76C58.8336 104.859 59.5626 106.937 61.0198 108.46C62.6019 110.039 64.79 110.856 67.0198 110.7C68.7045 110.572 70.3635 110.212 71.9498 109.63C72.4198 109.48 72.8798 109.33 73.3498 109.2C80.5998 107.15 88.5798 109.04 96.2898 110.87L98.6598 111.43C103.259 112.6 107.976 113.244 112.72 113.35C113.54 113.35 114.36 113.35 115.18 113.27H115.79V113.27C117.21 113.15 119.03 112.81 121.13 112.41C122.82 112.1 124.73 111.74 126.82 111.41C131.949 110.616 137.116 110.086 142.3 109.82C143.681 109.787 144.773 108.641 144.74 107.26C144.707 105.879 143.561 104.787 142.18 104.82H142.1Z" fill="#FA4A1B"/><path id="Path_3" d="M124.92 106.59H124.8C123.423 106.525 122.358 105.357 122.42 103.98L123.04 90.66C123.225 88.7935 123.134 86.9099 122.77 85.07C122.5 83.7202 121.637 82.5635 120.42 81.92C119.141 81.3981 118.528 79.9385 119.05 78.66C119.572 77.3815 121.031 76.7681 122.31 77.29C124.985 78.5198 126.939 80.9206 127.6 83.79C128.117 86.1191 128.265 88.5149 128.04 90.89L127.42 104.21C127.356 105.544 126.255 106.592 124.92 106.59V106.59Z" fill="#FA4A1B"/><path id="Path_4" d="M105.69 112.82C105.453 112.816 105.218 112.783 104.99 112.72C101.21 111.62 96.74 108.62 93.48 106.43L93.09 106.17C90.001 104.006 86.4568 102.579 82.73 102C75.19 100.82 69.02 101.56 62.73 104.4C61.4749 104.946 60.0145 104.38 59.4533 103.132C58.8922 101.884 59.4389 100.417 60.68 99.84C67.83 96.62 75.1 95.74 83.54 97.06C87.9851 97.7704 92.2112 99.48 95.9 102.06L96.29 102.32C99.11 104.21 103.38 107.07 106.41 107.96C107.603 108.308 108.359 109.479 108.186 110.709C108.012 111.939 106.962 112.855 105.72 112.86L105.69 112.82Z" fill="#DB3414"/></g></g></g></g></g></svg>