<svg xmlns="http://www.w3.org/2000/svg" xmlns:xlink="http://www.w3.org/1999/xlink" width="500" zoomAndPan="magnify" viewBox="0 0 375 374.999991" height="500" preserveAspectRatio="xMidYMid meet" version="1.0"><defs><g/><clipPath id="255ab1f168"><path d="M 232 126 L 331 126 L 331 250 L 232 250 Z M 232 126 " clip-rule="nonzero"/></clipPath><clipPath id="b2b8bcf382"><path d="M 309.933594 124.753906 L 331.800781 235.425781 L 252.886719 251.019531 L 231.015625 140.351562 Z M 309.933594 124.753906 " clip-rule="nonzero"/></clipPath><clipPath id="acbd860e4c"><path d="M 311.679688 133.585938 L 329.996094 226.292969 C 330.960938 231.167969 327.789062 235.902344 322.914062 236.867188 L 261.65625 248.972656 C 256.777344 249.933594 252.042969 246.761719 251.082031 241.886719 L 232.761719 149.179688 C 231.796875 144.304688 234.96875 139.570312 239.84375 138.605469 L 301.105469 126.5 C 305.980469 125.535156 310.714844 128.707031 311.679688 133.585938 Z M 311.679688 133.585938 " clip-rule="nonzero"/></clipPath><clipPath id="e5af440b04"><path d="M 0 0 L 99 0 L 99 124 L 0 124 Z M 0 0 " clip-rule="nonzero"/></clipPath><clipPath id="2f9503be4b"><path d="M 77.933594 -1.246094 L 99.800781 109.425781 L 20.886719 125.019531 L -0.984375 14.351562 Z M 77.933594 -1.246094 " clip-rule="nonzero"/></clipPath><clipPath id="1bff120637"><path d="M 79.679688 7.585938 L 97.996094 100.292969 C 98.960938 105.167969 95.789062 109.902344 90.914062 110.867188 L 29.65625 122.972656 C 24.777344 123.933594 20.042969 120.761719 19.082031 115.886719 L 0.761719 23.179688 C -0.203125 18.304688 2.96875 13.570312 7.84375 12.605469 L 69.105469 0.5 C 73.980469 -0.464844 78.714844 2.707031 79.679688 7.585938 Z M 79.679688 7.585938 " clip-rule="nonzero"/></clipPath><clipPath id="b3f92f486e"><rect x="0" width="99" y="0" height="124"/></clipPath><clipPath id="508e341eb1"><path d="M 181 160 L 289 160 L 289 217 L 181 217 Z M 181 160 " clip-rule="nonzero"/></clipPath><clipPath id="bf9599af09"><path d="M 179.175781 200.230469 L 283.378906 157.8125 L 291.289062 177.242188 L 187.085938 219.660156 Z M 179.175781 200.230469 " clip-rule="nonzero"/></clipPath><clipPath id="465a93127a"><path d="M 187.511719 196.839844 L 275.039062 161.207031 C 279.640625 159.335938 284.894531 161.546875 286.765625 166.152344 L 287.890625 168.910156 C 289.761719 173.511719 287.550781 178.761719 282.945312 180.636719 L 195.421875 216.265625 C 190.816406 218.140625 185.566406 215.929688 183.691406 211.324219 L 182.570312 208.566406 C 180.695312 203.964844 182.90625 198.710938 187.511719 196.839844 Z M 187.511719 196.839844 " clip-rule="nonzero"/></clipPath><clipPath id="2d5a386efc"><path d="M 0 0 L 108 0 L 108 57 L 0 57 Z M 0 0 " clip-rule="nonzero"/></clipPath><clipPath id="79ee2019d1"><path d="M -1.824219 40.230469 L 102.378906 -2.1875 L 110.289062 17.242188 L 6.085938 59.660156 Z M -1.824219 40.230469 " clip-rule="nonzero"/></clipPath><clipPath id="520e004f10"><path d="M 6.511719 36.839844 L 94.039062 1.207031 C 98.640625 -0.664062 103.894531 1.546875 105.765625 6.152344 L 106.890625 8.910156 C 108.761719 13.511719 106.550781 18.761719 101.945312 20.636719 L 14.421875 56.265625 C 9.816406 58.140625 4.566406 55.929688 2.691406 51.324219 L 1.570312 48.566406 C -0.304688 43.964844 1.90625 38.710938 6.511719 36.839844 Z M 6.511719 36.839844 " clip-rule="nonzero"/></clipPath><clipPath id="65017b5de4"><rect x="0" width="108" y="0" height="57"/></clipPath><clipPath id="a8e5087a29"><path d="M 26.007812 178.527344 L 138.507812 178.527344 L 138.507812 291.027344 L 26.007812 291.027344 Z M 26.007812 178.527344 " clip-rule="nonzero"/></clipPath><clipPath id="87e0aad7a2"><path d="M 43.257812 178.527344 L 121.257812 178.527344 C 125.835938 178.527344 130.222656 180.347656 133.457031 183.582031 C 136.691406 186.816406 138.507812 191.203125 138.507812 195.777344 L 138.507812 273.777344 C 138.507812 278.351562 136.691406 282.742188 133.457031 285.976562 C 130.222656 289.210938 125.835938 291.027344 121.257812 291.027344 L 43.257812 291.027344 C 38.683594 291.027344 34.296875 289.210938 31.0625 285.976562 C 27.828125 282.742188 26.007812 278.351562 26.007812 273.777344 L 26.007812 195.777344 C 26.007812 191.203125 27.828125 186.816406 31.0625 183.582031 C 34.296875 180.347656 38.683594 178.527344 43.257812 178.527344 Z M 43.257812 178.527344 " clip-rule="nonzero"/></clipPath><clipPath id="07c3c26907"><path d="M 0.0078125 0.527344 L 112.507812 0.527344 L 112.507812 113.027344 L 0.0078125 113.027344 Z M 0.0078125 0.527344 " clip-rule="nonzero"/></clipPath><clipPath id="bd0a8f5cf0"><path d="M 17.257812 0.527344 L 95.257812 0.527344 C 99.835938 0.527344 104.222656 2.347656 107.457031 5.582031 C 110.691406 8.816406 112.507812 13.203125 112.507812 17.777344 L 112.507812 95.777344 C 112.507812 100.351562 110.691406 104.742188 107.457031 107.976562 C 104.222656 111.210938 99.835938 113.027344 95.257812 113.027344 L 17.257812 113.027344 C 12.683594 113.027344 8.296875 111.210938 5.0625 107.976562 C 1.828125 104.742188 0.0078125 100.351562 0.0078125 95.777344 L 0.0078125 17.777344 C 0.0078125 13.203125 1.828125 8.816406 5.0625 5.582031 C 8.296875 2.347656 12.683594 0.527344 17.257812 0.527344 Z M 17.257812 0.527344 " clip-rule="nonzero"/></clipPath><clipPath id="8eaddc2057"><rect x="0" width="113" y="0" height="114"/></clipPath></defs><g fill="#ffffff" fill-opacity="1"><g transform="translate(116.445231, 253.237978)"><g><path d="M 195.640625 -83.546875 C 195.773438 -83.691406 195.910156 -83.726562 196.046875 -83.65625 C 196.191406 -83.582031 196.265625 -83.476562 196.265625 -83.34375 C 196.398438 -83.207031 196.332031 -83 196.0625 -82.71875 C 184.34375 -77.894531 172.445312 -73.3125 160.375 -68.96875 C 148.3125 -64.625 136.21875 -60.523438 124.09375 -56.671875 L 137.53125 14.265625 C 137.800781 16.335938 136.90625 17.648438 134.84375 18.203125 C 134.425781 18.203125 134.007812 18.164062 133.59375 18.09375 C 133.1875 18.03125 132.773438 17.925781 132.359375 17.78125 C 124.910156 12.957031 117.460938 8.203125 110.015625 3.515625 C 102.578125 -1.171875 95.066406 -5.789062 87.484375 -10.34375 C 80.722656 -14.75 73.207031 -19.332031 64.9375 -24.09375 C 56.664062 -28.851562 48.804688 -32.75 41.359375 -35.78125 C 39.847656 -36.46875 39.4375 -37.5 40.125 -38.875 C 40.257812 -39.570312 40.878906 -40.054688 41.984375 -40.328125 C 54.253906 -42.398438 66.554688 -44.847656 78.890625 -47.671875 C 91.234375 -50.492188 103.472656 -53.628906 115.609375 -57.078125 L 114.15625 -64.109375 C 109.195312 -86.859375 104.441406 -109.609375 99.890625 -132.359375 C 85.273438 -109.890625 69.867188 -87.757812 53.671875 -65.96875 C 37.472656 -44.1875 19.71875 -23.851562 0.40625 -4.96875 C 0.269531 -4.820312 0.0664062 -4.820312 -0.203125 -4.96875 C -0.335938 -5.238281 -0.335938 -5.441406 -0.203125 -5.578125 C 8.890625 -16.742188 17.742188 -28.117188 26.359375 -39.703125 C 34.984375 -51.285156 43.296875 -63.003906 51.296875 -74.859375 C 59.566406 -86.578125 67.59375 -98.503906 75.375 -110.640625 C 83.164062 -122.773438 90.785156 -134.910156 98.234375 -147.046875 C 99.066406 -148.554688 100.378906 -149.3125 102.171875 -149.3125 C 102.578125 -149.3125 102.988281 -149.242188 103.40625 -149.109375 C 103.820312 -148.972656 104.234375 -148.765625 104.640625 -148.484375 C 105.742188 -147.796875 106.4375 -146.765625 106.71875 -145.390625 C 109.46875 -132.148438 112.117188 -118.878906 114.671875 -105.578125 C 117.222656 -92.273438 119.738281 -78.9375 122.21875 -65.5625 L 123.46875 -59.359375 C 135.738281 -62.941406 147.90625 -66.734375 159.96875 -70.734375 C 172.03125 -74.734375 183.921875 -79.003906 195.640625 -83.546875 Z M 50.25 -37.015625 C 57.144531 -33.847656 63.9375 -30.398438 70.625 -26.671875 C 77.3125 -22.953125 83.894531 -19.160156 90.375 -15.296875 C 96.851562 -11.441406 103.367188 -7.582031 109.921875 -3.71875 C 116.472656 0.132812 122.914062 4.0625 129.25 8.0625 L 116.234375 -54.1875 C 105.335938 -50.875 94.40625 -47.769531 83.4375 -44.875 C 72.476562 -41.976562 61.414062 -39.359375 50.25 -37.015625 Z M 50.25 -37.015625 "/></g></g></g></svg>