<svg xmlns="http://www.w3.org/2000/svg" xmlns:xlink="http://www.w3.org/1999/xlink" width="2000" zoomAndPan="magnify" viewBox="0 0 1500 1499.999933" height="2000" preserveAspectRatio="xMidYMid meet" version="1.0"><defs><g/><clipPath id="3872e39c12"><rect x="0" width="154" y="0" height="95"/></clipPath></defs><rect x="-150" width="1800" fill="#ffffff" y="-149.999993" height="1799.99992" fill-opacity="1"/><rect x="-150" width="1800" fill="#000000" y="-149.999993" height="1799.99992" fill-opacity="1"/><g fill="#ffffff" fill-opacity="1"><g transform="translate(251.564044, 878.499896)"><g><path d="M 567.59375 -242.40625 C 568 -242.800781 568.398438 -242.898438 568.796875 -242.703125 C 569.203125 -242.503906 569.40625 -242.203125 569.40625 -241.796875 C 569.800781 -241.398438 569.597656 -240.800781 568.796875 -240 C 534.796875 -226 500.296875 -212.695312 465.296875 -200.09375 C 430.296875 -187.5 395.195312 -175.601562 360 -164.40625 L 399 41.40625 C 399.800781 47.40625 397.203125 51.203125 391.203125 52.796875 C 390.003906 52.796875 388.800781 52.695312 387.59375 52.5 C 386.394531 52.300781 385.195312 52 384 51.59375 C 362.394531 37.59375 340.789062 23.789062 319.1875 10.1875 C 297.59375 -3.40625 275.796875 -16.800781 253.796875 -30 C 234.203125 -42.800781 212.40625 -56.097656 188.40625 -69.890625 C 164.40625 -83.691406 141.601562 -94.992188 120 -103.796875 C 115.601562 -105.796875 114.40625 -108.796875 116.40625 -112.796875 C 116.800781 -114.796875 118.597656 -116.195312 121.796875 -117 C 157.398438 -123 193.097656 -130.097656 228.890625 -138.296875 C 264.691406 -146.492188 300.195312 -155.59375 335.40625 -165.59375 L 331.203125 -186 C 316.796875 -252 302.992188 -318 289.796875 -384 C 247.398438 -318.800781 202.703125 -254.597656 155.703125 -191.390625 C 108.703125 -128.191406 57.203125 -69.195312 1.203125 -14.40625 C 0.796875 -14 0.195312 -14 -0.59375 -14.40625 C -1 -15.195312 -1 -15.796875 -0.59375 -16.203125 C 25.800781 -48.597656 51.5 -81.59375 76.5 -115.1875 C 101.5 -148.789062 125.597656 -182.796875 148.796875 -217.203125 C 172.796875 -251.203125 196.09375 -285.800781 218.6875 -321 C 241.289062 -356.195312 263.394531 -391.394531 285 -426.59375 C 287.394531 -431 291.195312 -433.203125 296.40625 -433.203125 C 297.601562 -433.203125 298.800781 -433 300 -432.59375 C 301.195312 -432.195312 302.394531 -431.597656 303.59375 -430.796875 C 306.800781 -428.796875 308.800781 -425.796875 309.59375 -421.796875 C 317.59375 -383.398438 325.289062 -344.898438 332.6875 -306.296875 C 340.09375 -267.703125 347.394531 -229.003906 354.59375 -190.203125 L 358.203125 -172.203125 C 393.796875 -182.597656 429.09375 -193.59375 464.09375 -205.1875 C 499.09375 -216.789062 533.59375 -229.195312 567.59375 -242.40625 Z M 145.796875 -107.40625 C 165.796875 -98.195312 185.492188 -88.191406 204.890625 -77.390625 C 224.296875 -66.597656 243.398438 -55.601562 262.203125 -44.40625 C 281.003906 -33.195312 299.90625 -21.992188 318.90625 -10.796875 C 337.90625 0.398438 356.601562 11.800781 375 23.40625 L 337.203125 -157.203125 C 305.597656 -147.597656 273.894531 -138.59375 242.09375 -130.1875 C 210.300781 -121.789062 178.203125 -114.195312 145.796875 -107.40625 Z M 145.796875 -107.40625 "/></g></g></g><g fill="#ffffff" fill-opacity="1"><g transform="translate(663.763304, 878.499896)"><g><path d="M 675.59375 132.59375 C 676 133 676.203125 133.601562 676.203125 134.40625 C 675.796875 134.800781 675.195312 135 674.40625 135 C 656.800781 125.394531 638.898438 116.59375 620.703125 108.59375 C 602.503906 100.59375 584.203125 92.59375 565.796875 84.59375 C 510.597656 61.800781 455.195312 39.601562 399.59375 18 C 344 -3.601562 287.800781 -23.800781 231 -42.59375 C 227 -44.195312 222.898438 -45.695312 218.703125 -47.09375 C 214.503906 -48.5 210.40625 -49.800781 206.40625 -51 C 200.800781 -49.394531 195.097656 -47.789062 189.296875 -46.1875 C 183.492188 -44.59375 177.59375 -43 171.59375 -41.40625 C 171.195312 -35 170.898438 -28.492188 170.703125 -21.890625 C 170.503906 -15.296875 170.203125 -8.597656 169.796875 -1.796875 C 169.796875 -0.992188 169.195312 -0.59375 168 -0.59375 C 168 -0.59375 167.597656 -0.992188 166.796875 -1.796875 C 165.992188 -7.796875 165.289062 -13.894531 164.6875 -20.09375 C 164.09375 -26.300781 163.394531 -32.601562 162.59375 -39 C 150.195312 -36.195312 138 -33.796875 126 -31.796875 C 114 -29.796875 101.597656 -28.796875 88.796875 -28.796875 C 81.992188 -28.796875 75.394531 -29.09375 69 -29.6875 C 62.601562 -30.289062 56.003906 -31.59375 49.203125 -33.59375 C 41.597656 -35.59375 33.59375 -38.394531 25.1875 -42 C 16.789062 -45.601562 10.195312 -51.003906 5.40625 -58.203125 C 0.601562 -65.398438 -0.597656 -72.398438 1.796875 -79.203125 C 3.796875 -86.398438 7.394531 -92.097656 12.59375 -96.296875 C 17.800781 -100.492188 23.203125 -103.394531 28.796875 -105 C 30.398438 -105.394531 31.898438 -105.691406 33.296875 -105.890625 C 34.703125 -106.097656 36.203125 -106.203125 37.796875 -106.203125 L 42 -106.796875 L 46.203125 -106.796875 C 59.003906 -105.203125 71.601562 -103.203125 84 -100.796875 C 96.394531 -98.398438 108.796875 -95.601562 121.203125 -92.40625 C 128.003906 -90.40625 134.703125 -88.40625 141.296875 -86.40625 C 147.898438 -84.40625 154.398438 -82.40625 160.796875 -80.40625 C 160.398438 -89.195312 160.398438 -97.992188 160.796875 -106.796875 C 161.203125 -115.597656 161.601562 -124.398438 162 -133.203125 C 163.195312 -155.597656 166.09375 -177.695312 170.6875 -199.5 C 175.289062 -221.300781 184.796875 -241.398438 199.203125 -259.796875 C 200.003906 -260.597656 200.601562 -260.597656 201 -259.796875 C 201.394531 -259.796875 201.59375 -259.695312 201.59375 -259.5 C 201.59375 -259.300781 201.59375 -259.203125 201.59375 -259.203125 L 201.59375 -258.59375 C 201.59375 -247.394531 200.992188 -236.394531 199.796875 -225.59375 C 198.597656 -214.800781 197.398438 -204.203125 196.203125 -193.796875 C 194.597656 -182.992188 192.492188 -172.394531 189.890625 -162 C 187.296875 -151.601562 185 -141.203125 183 -130.796875 C 181.394531 -121.992188 179.894531 -112.894531 178.5 -103.5 C 177.101562 -94.101562 176.003906 -84.800781 175.203125 -75.59375 C 178.398438 -74.800781 181.695312 -73.800781 185.09375 -72.59375 C 188.5 -71.394531 191.800781 -70.195312 195 -69 C 217 -75.800781 240.898438 -84.703125 266.703125 -95.703125 C 292.503906 -106.703125 318.203125 -119.203125 343.796875 -133.203125 C 369.398438 -147.203125 393.300781 -162.203125 415.5 -178.203125 C 437.695312 -194.203125 456.195312 -210.800781 471 -228 C 476.601562 -234.800781 481.503906 -242.203125 485.703125 -250.203125 C 489.898438 -258.203125 491.800781 -265.601562 491.40625 -272.40625 C 491.40625 -280.800781 488.40625 -287.597656 482.40625 -292.796875 C 476.40625 -297.992188 468.800781 -301.894531 459.59375 -304.5 C 450.394531 -307.101562 441.296875 -308.90625 432.296875 -309.90625 C 423.296875 -310.90625 415.796875 -311.601562 409.796875 -312 C 390.203125 -312 370.800781 -311.398438 351.59375 -310.203125 C 332.394531 -309.003906 313 -307.003906 293.40625 -304.203125 C 234.195312 -296.203125 175.492188 -285.300781 117.296875 -271.5 C 59.097656 -257.695312 1.398438 -243.195312 -55.796875 -228 C -56.992188 -228 -57.59375 -228.398438 -57.59375 -229.203125 C -57.59375 -230.003906 -57.394531 -230.601562 -57 -231 C -23.800781 -243 12.59375 -255.296875 52.1875 -267.890625 C 91.789062 -280.492188 132.492188 -292.09375 174.296875 -302.6875 C 216.097656 -313.289062 257.195312 -321.894531 297.59375 -328.5 C 338 -335.101562 375.800781 -338.40625 411 -338.40625 C 426.601562 -337.601562 443.300781 -335.5 461.09375 -332.09375 C 478.894531 -328.695312 493.394531 -321 504.59375 -309 C 505.394531 -307.800781 506.394531 -306.597656 507.59375 -305.390625 C 508.800781 -304.191406 509.800781 -302.796875 510.59375 -301.203125 C 511.394531 -299.597656 512.195312 -298.195312 513 -297 C 513.394531 -296.195312 513.691406 -295.394531 513.890625 -294.59375 C 514.097656 -293.800781 514.398438 -293.003906 514.796875 -292.203125 C 515.992188 -289.398438 516.992188 -286.296875 517.796875 -282.890625 C 518.597656 -279.492188 519 -276.195312 519 -273 C 519.394531 -266.601562 518.691406 -260.40625 516.890625 -254.40625 C 515.097656 -248.40625 512.800781 -242.800781 510 -237.59375 C 498.394531 -216.800781 481.394531 -197.203125 459 -178.796875 C 436.601562 -160.398438 411.800781 -143.5 384.59375 -128.09375 C 357.394531 -112.695312 330.195312 -99.195312 303 -87.59375 C 275.800781 -76 251.398438 -66.398438 229.796875 -58.796875 C 229.398438 -58.398438 228.601562 -58.203125 227.40625 -58.203125 C 229 -57.796875 230.394531 -57.394531 231.59375 -57 C 232.800781 -56.601562 234.003906 -56.003906 235.203125 -55.203125 C 291.597656 -35.203125 347.59375 -13.800781 403.1875 9 C 458.789062 31.800781 513.796875 55.398438 568.203125 79.796875 C 586.203125 88.203125 604.300781 96.601562 622.5 105 C 640.695312 113.394531 658.394531 122.59375 675.59375 132.59375 Z M 83.40625 -47.40625 C 96.601562 -47.40625 109.703125 -48.703125 122.703125 -51.296875 C 135.703125 -53.898438 148.601562 -56.601562 161.40625 -59.40625 C 161.40625 -60.195312 161.300781 -61.09375 161.09375 -62.09375 C 160.894531 -63.09375 160.796875 -64.195312 160.796875 -65.40625 C 153.597656 -67.40625 146.398438 -69.503906 139.203125 -71.703125 C 132.003906 -73.898438 124.601562 -75.800781 117 -77.40625 C 107.394531 -79.800781 97.789062 -82.097656 88.1875 -84.296875 C 78.59375 -86.492188 69.195312 -88.195312 60 -89.40625 C 57.601562 -89.800781 55.203125 -90 52.796875 -90 C 50.398438 -90 48 -90 45.59375 -90 L 39 -90 C 35.394531 -90 31.191406 -88.5 26.390625 -85.5 C 21.597656 -82.5 18.800781 -79.195312 18 -75.59375 C 16.800781 -70.394531 20.203125 -65.394531 28.203125 -60.59375 C 35.003906 -56.195312 43.90625 -52.898438 54.90625 -50.703125 C 65.90625 -48.503906 75.40625 -47.40625 83.40625 -47.40625 Z M 83.40625 -47.40625 "/></g></g></g><g fill="#000000" fill-opacity="1"><g transform="translate(674.182008, 873.974953)"><g><path d="M 2.328125 -2.09375 C 2.328125 -1.675781 2.332031 -1.34375 2.34375 -1.09375 C 2.351562 -0.84375 2.378906 -0.648438 2.421875 -0.515625 C 2.460938 -0.378906 2.523438 -0.289062 2.609375 -0.25 C 2.703125 -0.207031 2.820312 -0.1875 2.96875 -0.1875 C 3.09375 -0.1875 3.207031 -0.191406 3.3125 -0.203125 C 3.425781 -0.222656 3.535156 -0.234375 3.640625 -0.234375 C 3.710938 -0.234375 3.773438 -0.222656 3.828125 -0.203125 C 3.878906 -0.179688 3.90625 -0.140625 3.90625 -0.078125 C 3.90625 -0.015625 3.875 0.0234375 3.8125 0.046875 C 3.757812 0.0664062 3.703125 0.078125 3.640625 0.078125 C 3.460938 0.078125 3.242188 0.0625 2.984375 0.03125 C 2.734375 0.0078125 2.453125 0 2.140625 0 C 1.835938 0 1.5625 0.0078125 1.3125 0.03125 C 1.0625 0.0625 0.851562 0.078125 0.6875 0.078125 C 0.613281 0.078125 0.546875 0.0664062 0.484375 0.046875 C 0.421875 0.0234375 0.390625 -0.015625 0.390625 -0.078125 C 0.390625 -0.140625 0.421875 -0.179688 0.484375 -0.203125 C 0.546875 -0.222656 0.609375 -0.234375 0.671875 -0.234375 C 0.773438 -0.234375 0.878906 -0.222656 0.984375 -0.203125 C 1.097656 -0.191406 1.207031 -0.1875 1.3125 -0.1875 C 1.46875 -0.1875 1.585938 -0.207031 1.671875 -0.25 C 1.765625 -0.289062 1.832031 -0.375 1.875 -0.5 C 1.914062 -0.632812 1.941406 -0.828125 1.953125 -1.078125 C 1.972656 -1.335938 1.984375 -1.675781 1.984375 -2.09375 L 1.984375 -6 C 1.984375 -6.425781 1.972656 -6.765625 1.953125 -7.015625 C 1.941406 -7.273438 1.914062 -7.46875 1.875 -7.59375 C 1.832031 -7.726562 1.765625 -7.816406 1.671875 -7.859375 C 1.585938 -7.898438 1.46875 -7.921875 1.3125 -7.921875 C 1.207031 -7.921875 1.097656 -7.910156 0.984375 -7.890625 C 0.878906 -7.878906 0.773438 -7.875 0.671875 -7.875 C 0.609375 -7.875 0.546875 -7.882812 0.484375 -7.90625 C 0.421875 -7.9375 0.390625 -7.984375 0.390625 -8.046875 C 0.390625 -8.097656 0.421875 -8.132812 0.484375 -8.15625 C 0.546875 -8.1875 0.609375 -8.203125 0.671875 -8.203125 C 0.847656 -8.203125 1.0625 -8.1875 1.3125 -8.15625 C 1.5625 -8.125 1.835938 -8.109375 2.140625 -8.109375 C 2.453125 -8.109375 2.734375 -8.125 2.984375 -8.15625 C 3.242188 -8.1875 3.460938 -8.203125 3.640625 -8.203125 C 3.703125 -8.203125 3.757812 -8.1875 3.8125 -8.15625 C 3.875 -8.132812 3.90625 -8.097656 3.90625 -8.046875 C 3.90625 -7.984375 3.875 -7.9375 3.8125 -7.90625 C 3.757812 -7.882812 3.703125 -7.875 3.640625 -7.875 C 3.535156 -7.875 3.425781 -7.878906 3.3125 -7.890625 C 3.207031 -7.910156 3.09375 -7.921875 2.96875 -7.921875 C 2.832031 -7.921875 2.71875 -7.894531 2.625 -7.84375 C 2.539062 -7.800781 2.472656 -7.722656 2.421875 -7.609375 C 2.378906 -7.503906 2.351562 -7.347656 2.34375 -7.140625 C 2.332031 -6.929688 2.328125 -6.664062 2.328125 -6.34375 Z M 2.328125 -2.09375 "/></g></g></g><g fill="#000000" fill-opacity="1"><g transform="translate(678.478017, 873.974953)"><g><path d="M 4.46875 -7.859375 C 4.257812 -7.859375 4.128906 -7.835938 4.078125 -7.796875 C 4.035156 -7.753906 4.015625 -7.617188 4.015625 -7.390625 L 4.015625 -1.84375 C 4.015625 -1.53125 4.015625 -1.269531 4.015625 -1.0625 C 4.023438 -0.851562 4.050781 -0.6875 4.09375 -0.5625 C 4.132812 -0.4375 4.191406 -0.34375 4.265625 -0.28125 C 4.335938 -0.21875 4.445312 -0.1875 4.59375 -0.1875 C 4.75 -0.1875 4.878906 -0.191406 4.984375 -0.203125 C 5.097656 -0.222656 5.207031 -0.234375 5.3125 -0.234375 C 5.375 -0.234375 5.4375 -0.222656 5.5 -0.203125 C 5.5625 -0.179688 5.59375 -0.140625 5.59375 -0.078125 C 5.59375 -0.015625 5.5625 0.0234375 5.5 0.046875 C 5.4375 0.0664062 5.367188 0.078125 5.296875 0.078125 C 5.128906 0.078125 4.921875 0.0625 4.671875 0.03125 C 4.429688 0.0078125 4.15625 0 3.84375 0 C 3.53125 0 3.242188 0.0078125 2.984375 0.03125 C 2.734375 0.0625 2.523438 0.078125 2.359375 0.078125 C 2.285156 0.078125 2.21875 0.0664062 2.15625 0.046875 C 2.101562 0.0234375 2.078125 -0.015625 2.078125 -0.078125 C 2.078125 -0.140625 2.101562 -0.179688 2.15625 -0.203125 C 2.21875 -0.222656 2.285156 -0.234375 2.359375 -0.234375 C 2.453125 -0.234375 2.5625 -0.222656 2.6875 -0.203125 C 2.8125 -0.191406 2.941406 -0.1875 3.078125 -0.1875 C 3.222656 -0.1875 3.332031 -0.21875 3.40625 -0.28125 C 3.488281 -0.351562 3.546875 -0.457031 3.578125 -0.59375 C 3.617188 -0.726562 3.640625 -0.894531 3.640625 -1.09375 C 3.648438 -1.300781 3.65625 -1.546875 3.65625 -1.828125 L 3.65625 -7.390625 C 3.65625 -7.617188 3.628906 -7.753906 3.578125 -7.796875 C 3.523438 -7.835938 3.40625 -7.859375 3.21875 -7.859375 L 1.484375 -7.859375 C 1.335938 -7.859375 1.21875 -7.84375 1.125 -7.8125 C 1.039062 -7.789062 0.972656 -7.738281 0.921875 -7.65625 C 0.878906 -7.570312 0.847656 -7.460938 0.828125 -7.328125 C 0.804688 -7.191406 0.796875 -7.015625 0.796875 -6.796875 C 0.796875 -6.515625 0.796875 -6.285156 0.796875 -6.109375 C 0.804688 -5.941406 0.8125 -5.800781 0.8125 -5.6875 C 0.820312 -5.582031 0.832031 -5.5 0.84375 -5.4375 C 0.851562 -5.375 0.859375 -5.3125 0.859375 -5.25 C 0.859375 -5.132812 0.835938 -5.050781 0.796875 -5 C 0.753906 -4.957031 0.707031 -4.9375 0.65625 -4.9375 C 0.613281 -4.9375 0.570312 -4.960938 0.53125 -5.015625 C 0.488281 -5.066406 0.46875 -5.140625 0.46875 -5.234375 C 0.46875 -5.367188 0.476562 -5.535156 0.5 -5.734375 C 0.53125 -5.929688 0.546875 -6.125 0.546875 -6.3125 C 0.546875 -6.363281 0.539062 -6.453125 0.53125 -6.578125 C 0.53125 -6.710938 0.519531 -6.859375 0.5 -7.015625 C 0.488281 -7.171875 0.476562 -7.328125 0.46875 -7.484375 C 0.46875 -7.640625 0.46875 -7.769531 0.46875 -7.875 C 0.46875 -8.09375 0.613281 -8.203125 0.90625 -8.203125 C 1.46875 -8.203125 1.945312 -8.1875 2.34375 -8.15625 C 2.75 -8.132812 3.03125 -8.125 3.1875 -8.125 C 3.269531 -8.125 3.367188 -8.117188 3.484375 -8.109375 C 3.597656 -8.109375 3.710938 -8.109375 3.828125 -8.109375 C 3.941406 -8.109375 4.050781 -8.109375 4.15625 -8.109375 C 4.257812 -8.117188 4.359375 -8.125 4.453125 -8.125 C 4.648438 -8.132812 4.875 -8.140625 5.125 -8.140625 C 5.382812 -8.148438 5.625 -8.160156 5.84375 -8.171875 C 6.070312 -8.179688 6.265625 -8.1875 6.421875 -8.1875 C 6.578125 -8.195312 6.660156 -8.203125 6.671875 -8.203125 C 6.878906 -8.203125 7.019531 -8.175781 7.09375 -8.125 C 7.164062 -8.070312 7.203125 -7.988281 7.203125 -7.875 C 7.203125 -7.78125 7.195312 -7.65625 7.1875 -7.5 C 7.175781 -7.34375 7.164062 -7.179688 7.15625 -7.015625 C 7.144531 -6.847656 7.132812 -6.695312 7.125 -6.5625 C 7.113281 -6.4375 7.109375 -6.351562 7.109375 -6.3125 C 7.109375 -6.125 7.125 -5.929688 7.15625 -5.734375 C 7.1875 -5.535156 7.203125 -5.367188 7.203125 -5.234375 C 7.203125 -5.140625 7.179688 -5.066406 7.140625 -5.015625 C 7.097656 -4.960938 7.054688 -4.9375 7.015625 -4.9375 C 6.960938 -4.9375 6.914062 -4.957031 6.875 -5 C 6.832031 -5.050781 6.8125 -5.132812 6.8125 -5.25 C 6.8125 -5.382812 6.820312 -5.539062 6.84375 -5.71875 C 6.863281 -5.90625 6.875 -6.113281 6.875 -6.34375 C 6.875 -6.875 6.863281 -7.222656 6.84375 -7.390625 C 6.820312 -7.472656 6.800781 -7.539062 6.78125 -7.59375 C 6.757812 -7.65625 6.71875 -7.707031 6.65625 -7.75 C 6.601562 -7.789062 6.523438 -7.816406 6.421875 -7.828125 C 6.328125 -7.847656 6.207031 -7.859375 6.0625 -7.859375 Z M 4.46875 -7.859375 "/></g></g></g><g fill="#000000" fill-opacity="1"><g transform="translate(686.146027, 873.974953)"><g><path d="M 4.1875 -8.375 C 4.757812 -8.375 5.25 -8.257812 5.65625 -8.03125 C 6.070312 -7.800781 6.429688 -7.390625 6.734375 -6.796875 L 6.75 -6.8125 L 6.75 -7.1875 C 6.75 -7.269531 6.742188 -7.367188 6.734375 -7.484375 C 6.722656 -7.597656 6.71875 -7.679688 6.71875 -7.734375 C 6.71875 -7.878906 6.734375 -7.976562 6.765625 -8.03125 C 6.796875 -8.082031 6.835938 -8.109375 6.890625 -8.109375 C 6.992188 -8.109375 7.046875 -8.035156 7.046875 -7.890625 C 7.046875 -7.796875 7.039062 -7.660156 7.03125 -7.484375 C 7.019531 -7.316406 7.007812 -7.144531 7 -6.96875 C 6.988281 -6.789062 6.976562 -6.617188 6.96875 -6.453125 C 6.957031 -6.285156 6.953125 -6.15625 6.953125 -6.0625 C 6.953125 -5.863281 6.96875 -5.648438 7 -5.421875 C 7.03125 -5.203125 7.046875 -5 7.046875 -4.8125 C 7.046875 -4.726562 7.023438 -4.664062 6.984375 -4.625 C 6.953125 -4.59375 6.910156 -4.578125 6.859375 -4.578125 C 6.796875 -4.578125 6.75 -4.601562 6.71875 -4.65625 C 6.6875 -4.707031 6.671875 -4.769531 6.671875 -4.84375 C 6.671875 -4.894531 6.675781 -5 6.6875 -5.15625 C 6.695312 -5.3125 6.703125 -5.472656 6.703125 -5.640625 C 6.703125 -5.960938 6.648438 -6.269531 6.546875 -6.5625 C 6.441406 -6.863281 6.285156 -7.128906 6.078125 -7.359375 C 5.867188 -7.585938 5.601562 -7.765625 5.28125 -7.890625 C 4.96875 -8.023438 4.597656 -8.09375 4.171875 -8.09375 C 3.703125 -8.09375 3.289062 -8.015625 2.9375 -7.859375 C 2.582031 -7.703125 2.28125 -7.484375 2.03125 -7.203125 C 1.664062 -6.796875 1.398438 -6.296875 1.234375 -5.703125 C 1.066406 -5.117188 0.984375 -4.519531 0.984375 -3.90625 C 0.984375 -3.226562 1.078125 -2.617188 1.265625 -2.078125 C 1.460938 -1.535156 1.75 -1.09375 2.125 -0.75 C 2.382812 -0.507812 2.679688 -0.328125 3.015625 -0.203125 C 3.359375 -0.078125 3.753906 -0.015625 4.203125 -0.015625 C 4.628906 -0.015625 5.007812 -0.078125 5.34375 -0.203125 C 5.675781 -0.328125 5.957031 -0.507812 6.1875 -0.75 C 6.425781 -0.988281 6.609375 -1.273438 6.734375 -1.609375 C 6.859375 -1.941406 6.921875 -2.3125 6.921875 -2.71875 C 6.921875 -2.925781 6.984375 -3.03125 7.109375 -3.03125 C 7.171875 -3.03125 7.21875 -3.015625 7.25 -2.984375 C 7.28125 -2.953125 7.296875 -2.894531 7.296875 -2.8125 C 7.296875 -2.425781 7.226562 -2.046875 7.09375 -1.671875 C 6.96875 -1.304688 6.773438 -0.976562 6.515625 -0.6875 C 6.265625 -0.40625 5.941406 -0.175781 5.546875 0 C 5.160156 0.175781 4.695312 0.265625 4.15625 0.265625 C 3.238281 0.265625 2.492188 0.0078125 1.921875 -0.5 C 1.691406 -0.695312 1.492188 -0.925781 1.328125 -1.1875 C 1.171875 -1.457031 1.035156 -1.742188 0.921875 -2.046875 C 0.816406 -2.359375 0.734375 -2.6875 0.671875 -3.03125 C 0.617188 -3.375 0.59375 -3.710938 0.59375 -4.046875 C 0.59375 -4.359375 0.617188 -4.671875 0.671875 -4.984375 C 0.722656 -5.304688 0.796875 -5.613281 0.890625 -5.90625 C 0.992188 -6.207031 1.117188 -6.488281 1.265625 -6.75 C 1.421875 -7.007812 1.601562 -7.238281 1.8125 -7.4375 C 2.101562 -7.726562 2.445312 -7.957031 2.84375 -8.125 C 3.238281 -8.289062 3.6875 -8.375 4.1875 -8.375 Z M 4.1875 -8.375 "/></g></g></g><g fill="#000000" fill-opacity="1"><g transform="translate(694.042037, 873.974953)"><g/></g></g><g fill="#000000" fill-opacity="1"><g transform="translate(697.882045, 873.974953)"><g><path d="M 2.984375 -3.609375 C 2.941406 -3.503906 2.921875 -3.429688 2.921875 -3.390625 C 2.921875 -3.328125 2.945312 -3.285156 3 -3.265625 C 3.050781 -3.253906 3.109375 -3.25 3.171875 -3.25 L 5.984375 -3.25 C 6.046875 -3.25 6.101562 -3.253906 6.15625 -3.265625 C 6.207031 -3.285156 6.234375 -3.328125 6.234375 -3.390625 C 6.234375 -3.421875 6.226562 -3.453125 6.21875 -3.484375 C 6.207031 -3.523438 6.195312 -3.554688 6.1875 -3.578125 L 4.625 -7.828125 Z M 4.65625 -8.234375 C 4.738281 -8.234375 4.804688 -8.191406 4.859375 -8.109375 C 4.910156 -8.023438 4.953125 -7.9375 4.984375 -7.84375 L 6.796875 -2.875 C 7.035156 -2.195312 7.234375 -1.671875 7.390625 -1.296875 C 7.546875 -0.929688 7.65625 -0.691406 7.71875 -0.578125 C 7.832031 -0.390625 7.921875 -0.273438 7.984375 -0.234375 C 8.054688 -0.203125 8.113281 -0.1875 8.15625 -0.1875 C 8.332031 -0.1875 8.453125 -0.191406 8.515625 -0.203125 C 8.578125 -0.222656 8.65625 -0.234375 8.75 -0.234375 C 8.84375 -0.234375 8.910156 -0.210938 8.953125 -0.171875 C 9.003906 -0.140625 9.03125 -0.109375 9.03125 -0.078125 C 9.03125 -0.0234375 9 0.0078125 8.9375 0.03125 C 8.875 0.0625 8.8125 0.078125 8.75 0.078125 C 8.695312 0.078125 8.617188 0.0703125 8.515625 0.0625 C 8.410156 0.0625 8.289062 0.0546875 8.15625 0.046875 C 8.03125 0.0351562 7.898438 0.0234375 7.765625 0.015625 C 7.640625 0.00390625 7.535156 0 7.453125 0 C 7.367188 0 7.265625 0.00390625 7.140625 0.015625 C 7.015625 0.0234375 6.882812 0.0351562 6.75 0.046875 C 6.613281 0.0546875 6.484375 0.0625 6.359375 0.0625 C 6.234375 0.0703125 6.132812 0.078125 6.0625 0.078125 C 5.832031 0.078125 5.71875 0.03125 5.71875 -0.0625 C 5.71875 -0.101562 5.742188 -0.140625 5.796875 -0.171875 C 5.859375 -0.210938 5.9375 -0.234375 6.03125 -0.234375 C 6.132812 -0.234375 6.25 -0.222656 6.375 -0.203125 C 6.507812 -0.191406 6.632812 -0.1875 6.75 -0.1875 C 6.882812 -0.1875 7 -0.21875 7.09375 -0.28125 C 7.1875 -0.34375 7.234375 -0.429688 7.234375 -0.546875 C 7.234375 -0.609375 7.21875 -0.703125 7.1875 -0.828125 C 7.164062 -0.953125 7.132812 -1.0625 7.09375 -1.15625 C 6.882812 -1.707031 6.722656 -2.117188 6.609375 -2.390625 C 6.503906 -2.671875 6.445312 -2.832031 6.4375 -2.875 C 6.40625 -2.957031 6.335938 -3 6.234375 -3 L 2.9375 -3 C 2.800781 -3 2.722656 -2.957031 2.703125 -2.875 L 1.984375 -1.0625 C 1.953125 -0.957031 1.921875 -0.863281 1.890625 -0.78125 C 1.859375 -0.707031 1.84375 -0.644531 1.84375 -0.59375 C 1.84375 -0.320312 2.054688 -0.1875 2.484375 -0.1875 C 2.566406 -0.1875 2.664062 -0.191406 2.78125 -0.203125 C 2.90625 -0.222656 3.007812 -0.234375 3.09375 -0.234375 C 3.164062 -0.234375 3.234375 -0.222656 3.296875 -0.203125 C 3.359375 -0.179688 3.390625 -0.140625 3.390625 -0.078125 C 3.390625 -0.015625 3.363281 0.0234375 3.3125 0.046875 C 3.257812 0.0664062 3.195312 0.078125 3.125 0.078125 C 2.945312 0.078125 2.734375 0.0625 2.484375 0.03125 C 2.234375 0.0078125 1.953125 0 1.640625 0 C 1.304688 0 1.019531 0.0078125 0.78125 0.03125 C 0.550781 0.0625 0.347656 0.078125 0.171875 0.078125 C 0.046875 0.078125 -0.015625 0.03125 -0.015625 -0.0625 C -0.015625 -0.125 0.015625 -0.164062 0.078125 -0.1875 C 0.140625 -0.21875 0.203125 -0.234375 0.265625 -0.234375 C 0.347656 -0.234375 0.425781 -0.222656 0.5 -0.203125 C 0.582031 -0.191406 0.664062 -0.1875 0.75 -0.1875 C 0.882812 -0.1875 1 -0.207031 1.09375 -0.25 C 1.1875 -0.300781 1.265625 -0.367188 1.328125 -0.453125 C 1.398438 -0.535156 1.460938 -0.632812 1.515625 -0.75 C 1.566406 -0.875 1.625 -1.007812 1.6875 -1.15625 L 4.25 -7.75 C 4.332031 -7.945312 4.398438 -8.078125 4.453125 -8.140625 C 4.503906 -8.203125 4.570312 -8.234375 4.65625 -8.234375 Z M 4.65625 -8.234375 "/></g></g></g><g fill="#000000" fill-opacity="1"><g transform="translate(706.906065, 873.974953)"><g><path d="M 4.21875 -6.1875 C 4.4375 -6.1875 4.644531 -6.164062 4.84375 -6.125 C 5.050781 -6.09375 5.238281 -6.023438 5.40625 -5.921875 C 5.582031 -5.816406 5.738281 -5.675781 5.875 -5.5 C 6.007812 -5.320312 6.117188 -5.097656 6.203125 -4.828125 C 6.429688 -5.328125 6.71875 -5.675781 7.0625 -5.875 C 7.414062 -6.082031 7.832031 -6.1875 8.3125 -6.1875 C 9 -6.1875 9.515625 -6.007812 9.859375 -5.65625 C 10.203125 -5.3125 10.375 -4.851562 10.375 -4.28125 L 10.375 -1.96875 C 10.375 -1.59375 10.375 -1.285156 10.375 -1.046875 C 10.382812 -0.816406 10.410156 -0.640625 10.453125 -0.515625 C 10.492188 -0.390625 10.554688 -0.300781 10.640625 -0.25 C 10.734375 -0.207031 10.859375 -0.1875 11.015625 -0.1875 C 11.117188 -0.1875 11.226562 -0.191406 11.34375 -0.203125 C 11.457031 -0.222656 11.550781 -0.234375 11.625 -0.234375 C 11.695312 -0.234375 11.757812 -0.21875 11.8125 -0.1875 C 11.863281 -0.164062 11.890625 -0.128906 11.890625 -0.078125 C 11.890625 -0.015625 11.863281 0.0234375 11.8125 0.046875 C 11.769531 0.0664062 11.71875 0.078125 11.65625 0.078125 C 11.59375 0.078125 11.5 0.0703125 11.375 0.0625 C 11.25 0.0625 11.113281 0.0546875 10.96875 0.046875 C 10.832031 0.0351562 10.691406 0.0234375 10.546875 0.015625 C 10.410156 0.00390625 10.296875 0 10.203125 0 C 10.109375 0 9.988281 0.00390625 9.84375 0.015625 C 9.707031 0.0234375 9.566406 0.0351562 9.421875 0.046875 C 9.285156 0.0546875 9.15625 0.0625 9.03125 0.0625 C 8.90625 0.0703125 8.816406 0.078125 8.765625 0.078125 C 8.691406 0.078125 8.628906 0.0664062 8.578125 0.046875 C 8.535156 0.0234375 8.515625 -0.015625 8.515625 -0.078125 C 8.515625 -0.128906 8.539062 -0.164062 8.59375 -0.1875 C 8.644531 -0.21875 8.707031 -0.234375 8.78125 -0.234375 C 8.851562 -0.234375 8.945312 -0.222656 9.0625 -0.203125 C 9.175781 -0.191406 9.285156 -0.1875 9.390625 -0.1875 C 9.554688 -0.1875 9.675781 -0.207031 9.75 -0.25 C 9.820312 -0.300781 9.878906 -0.363281 9.921875 -0.4375 C 9.960938 -0.519531 9.992188 -0.675781 10.015625 -0.90625 C 10.035156 -1.132812 10.046875 -1.476562 10.046875 -1.9375 L 10.046875 -4.078125 C 10.046875 -4.679688 9.910156 -5.140625 9.640625 -5.453125 C 9.367188 -5.773438 8.914062 -5.9375 8.28125 -5.9375 C 7.625 -5.9375 7.125 -5.726562 6.78125 -5.3125 C 6.445312 -4.894531 6.28125 -4.296875 6.28125 -3.515625 L 6.28125 -1.734375 C 6.28125 -1.421875 6.285156 -1.164062 6.296875 -0.96875 C 6.304688 -0.78125 6.332031 -0.628906 6.375 -0.515625 C 6.414062 -0.398438 6.476562 -0.316406 6.5625 -0.265625 C 6.65625 -0.210938 6.78125 -0.1875 6.9375 -0.1875 C 7.03125 -0.1875 7.132812 -0.191406 7.25 -0.203125 C 7.375 -0.222656 7.46875 -0.234375 7.53125 -0.234375 C 7.613281 -0.234375 7.679688 -0.21875 7.734375 -0.1875 C 7.785156 -0.164062 7.8125 -0.128906 7.8125 -0.078125 C 7.8125 -0.015625 7.785156 0.0234375 7.734375 0.046875 C 7.691406 0.0664062 7.640625 0.078125 7.578125 0.078125 C 7.503906 0.078125 7.40625 0.0703125 7.28125 0.0625 C 7.164062 0.0625 7.039062 0.0546875 6.90625 0.046875 C 6.769531 0.0351562 6.628906 0.0234375 6.484375 0.015625 C 6.347656 0.00390625 6.226562 0 6.125 0 C 6.019531 0 5.898438 0.00390625 5.765625 0.015625 C 5.628906 0.0234375 5.488281 0.0351562 5.34375 0.046875 C 5.207031 0.0546875 5.078125 0.0625 4.953125 0.0625 C 4.835938 0.0703125 4.75 0.078125 4.6875 0.078125 C 4.613281 0.078125 4.550781 0.0664062 4.5 0.046875 C 4.457031 0.0234375 4.4375 -0.015625 4.4375 -0.078125 C 4.4375 -0.128906 4.460938 -0.164062 4.515625 -0.1875 C 4.566406 -0.21875 4.632812 -0.234375 4.71875 -0.234375 C 4.769531 -0.234375 4.851562 -0.222656 4.96875 -0.203125 C 5.09375 -0.191406 5.207031 -0.1875 5.3125 -0.1875 C 5.457031 -0.1875 5.570312 -0.203125 5.65625 -0.234375 C 5.75 -0.273438 5.816406 -0.347656 5.859375 -0.453125 C 5.898438 -0.566406 5.925781 -0.71875 5.9375 -0.90625 C 5.957031 -1.101562 5.96875 -1.359375 5.96875 -1.671875 L 5.96875 -3.90625 C 5.96875 -4.289062 5.925781 -4.613281 5.84375 -4.875 C 5.757812 -5.132812 5.640625 -5.34375 5.484375 -5.5 C 5.328125 -5.65625 5.140625 -5.765625 4.921875 -5.828125 C 4.703125 -5.898438 4.460938 -5.9375 4.203125 -5.9375 C 3.566406 -5.9375 3.070312 -5.742188 2.71875 -5.359375 C 2.375 -4.972656 2.203125 -4.4375 2.203125 -3.75 L 2.203125 -1.84375 C 2.203125 -1.53125 2.207031 -1.269531 2.21875 -1.0625 C 2.226562 -0.851562 2.25 -0.679688 2.28125 -0.546875 C 2.320312 -0.421875 2.382812 -0.328125 2.46875 -0.265625 C 2.550781 -0.210938 2.671875 -0.1875 2.828125 -0.1875 C 2.921875 -0.1875 3.03125 -0.191406 3.15625 -0.203125 C 3.28125 -0.222656 3.382812 -0.234375 3.46875 -0.234375 C 3.539062 -0.234375 3.601562 -0.21875 3.65625 -0.1875 C 3.707031 -0.164062 3.734375 -0.128906 3.734375 -0.078125 C 3.734375 -0.015625 3.707031 0.0234375 3.65625 0.046875 C 3.613281 0.0664062 3.554688 0.078125 3.484375 0.078125 C 3.421875 0.078125 3.328125 0.0703125 3.203125 0.0625 C 3.085938 0.0625 2.957031 0.0546875 2.8125 0.046875 C 2.675781 0.0351562 2.539062 0.0234375 2.40625 0.015625 C 2.269531 0.00390625 2.148438 0 2.046875 0 C 1.941406 0 1.816406 0.00390625 1.671875 0.015625 C 1.535156 0.0234375 1.398438 0.0351562 1.265625 0.046875 C 1.128906 0.0546875 1 0.0625 0.875 0.0625 C 0.75 0.0703125 0.65625 0.078125 0.59375 0.078125 C 0.53125 0.078125 0.472656 0.0664062 0.421875 0.046875 C 0.378906 0.0234375 0.359375 -0.015625 0.359375 -0.078125 C 0.359375 -0.128906 0.382812 -0.164062 0.4375 -0.1875 C 0.488281 -0.21875 0.550781 -0.234375 0.625 -0.234375 C 0.695312 -0.234375 0.789062 -0.222656 0.90625 -0.203125 C 1.019531 -0.191406 1.125 -0.1875 1.21875 -0.1875 C 1.507812 -0.1875 1.691406 -0.269531 1.765625 -0.4375 C 1.773438 -0.476562 1.789062 -0.53125 1.8125 -0.59375 C 1.832031 -0.664062 1.847656 -0.757812 1.859375 -0.875 C 1.867188 -0.988281 1.875 -1.132812 1.875 -1.3125 C 1.882812 -1.5 1.890625 -1.734375 1.890625 -2.015625 L 1.890625 -4.421875 C 1.890625 -4.734375 1.882812 -4.976562 1.875 -5.15625 C 1.863281 -5.34375 1.84375 -5.484375 1.8125 -5.578125 C 1.78125 -5.671875 1.734375 -5.726562 1.671875 -5.75 C 1.617188 -5.769531 1.539062 -5.78125 1.4375 -5.78125 C 1.320312 -5.78125 1.175781 -5.769531 1 -5.75 C 0.820312 -5.738281 0.6875 -5.734375 0.59375 -5.734375 C 0.4375 -5.734375 0.359375 -5.785156 0.359375 -5.890625 C 0.359375 -6.003906 0.425781 -6.0625 0.5625 -6.0625 C 0.582031 -6.0625 0.65625 -6.050781 0.78125 -6.03125 C 0.914062 -6.019531 1.09375 -6.015625 1.3125 -6.015625 C 1.507812 -6.015625 1.660156 -6.019531 1.765625 -6.03125 C 1.878906 -6.050781 1.957031 -6.0625 2 -6.0625 C 2.09375 -6.0625 2.148438 -6.039062 2.171875 -6 C 2.191406 -5.957031 2.203125 -5.898438 2.203125 -5.828125 L 2.203125 -4.984375 L 2.234375 -4.984375 C 2.390625 -5.367188 2.632812 -5.664062 2.96875 -5.875 C 3.3125 -6.082031 3.726562 -6.1875 4.21875 -6.1875 Z M 4.21875 -6.1875 "/></g></g></g><g fill="#000000" fill-opacity="1"><g transform="translate(718.858091, 873.974953)"><g><path d="M 0.875 -3.59375 C 0.875 -3.507812 0.894531 -3.457031 0.9375 -3.4375 C 0.976562 -3.414062 1.035156 -3.40625 1.109375 -3.40625 L 5.421875 -3.40625 C 5.484375 -3.40625 5.53125 -3.414062 5.5625 -3.4375 C 5.59375 -3.457031 5.609375 -3.503906 5.609375 -3.578125 C 5.609375 -3.835938 5.5625 -4.101562 5.46875 -4.375 C 5.375 -4.65625 5.234375 -4.910156 5.046875 -5.140625 C 4.867188 -5.378906 4.632812 -5.570312 4.34375 -5.71875 C 4.050781 -5.863281 3.707031 -5.9375 3.3125 -5.9375 C 3.070312 -5.9375 2.84375 -5.90625 2.625 -5.84375 C 2.40625 -5.789062 2.207031 -5.707031 2.03125 -5.59375 C 1.84375 -5.476562 1.675781 -5.332031 1.53125 -5.15625 C 1.394531 -4.988281 1.273438 -4.804688 1.171875 -4.609375 C 1.078125 -4.421875 1.003906 -4.238281 0.953125 -4.0625 C 0.898438 -3.882812 0.875 -3.726562 0.875 -3.59375 Z M 3.34375 -6.1875 C 3.78125 -6.1875 4.160156 -6.101562 4.484375 -5.9375 C 4.816406 -5.769531 5.085938 -5.550781 5.296875 -5.28125 C 5.515625 -5.019531 5.675781 -4.726562 5.78125 -4.40625 C 5.894531 -4.09375 5.953125 -3.785156 5.953125 -3.484375 C 5.953125 -3.347656 5.921875 -3.253906 5.859375 -3.203125 C 5.804688 -3.148438 5.691406 -3.125 5.515625 -3.125 L 1.0625 -3.125 C 0.96875 -3.125 0.90625 -3.109375 0.875 -3.078125 C 0.84375 -3.046875 0.828125 -2.957031 0.828125 -2.8125 C 0.828125 -2.4375 0.878906 -2.082031 0.984375 -1.75 C 1.085938 -1.425781 1.238281 -1.140625 1.4375 -0.890625 C 1.644531 -0.640625 1.898438 -0.441406 2.203125 -0.296875 C 2.503906 -0.148438 2.851562 -0.078125 3.25 -0.078125 C 3.550781 -0.078125 3.828125 -0.117188 4.078125 -0.203125 C 4.328125 -0.285156 4.546875 -0.394531 4.734375 -0.53125 C 4.929688 -0.675781 5.09375 -0.84375 5.21875 -1.03125 C 5.34375 -1.21875 5.429688 -1.414062 5.484375 -1.625 C 5.503906 -1.738281 5.53125 -1.847656 5.5625 -1.953125 C 5.601562 -2.066406 5.65625 -2.125 5.71875 -2.125 C 5.78125 -2.125 5.820312 -2.101562 5.84375 -2.0625 C 5.863281 -2.019531 5.875 -1.976562 5.875 -1.9375 C 5.875 -1.832031 5.847656 -1.695312 5.796875 -1.53125 C 5.742188 -1.363281 5.660156 -1.191406 5.546875 -1.015625 C 5.316406 -0.640625 5.007812 -0.34375 4.625 -0.125 C 4.25 0.0820312 3.800781 0.1875 3.28125 0.1875 C 2.800781 0.1875 2.390625 0.101562 2.046875 -0.0625 C 1.703125 -0.238281 1.410156 -0.46875 1.171875 -0.75 C 0.941406 -1.039062 0.769531 -1.375 0.65625 -1.75 C 0.539062 -2.125 0.484375 -2.519531 0.484375 -2.9375 C 0.484375 -3.40625 0.550781 -3.835938 0.6875 -4.234375 C 0.820312 -4.640625 1.015625 -4.988281 1.265625 -5.28125 C 1.515625 -5.570312 1.816406 -5.796875 2.171875 -5.953125 C 2.523438 -6.109375 2.914062 -6.1875 3.34375 -6.1875 Z M 3.34375 -6.1875 "/></g></g></g><g fill="#000000" fill-opacity="1"><g transform="translate(725.398102, 873.974953)"><g><path d="M 4.15625 -6.1875 C 4.375 -6.1875 4.585938 -6.148438 4.796875 -6.078125 C 5.003906 -6.015625 5.1875 -5.921875 5.34375 -5.796875 C 5.5 -5.671875 5.625 -5.515625 5.71875 -5.328125 C 5.8125 -5.148438 5.859375 -4.945312 5.859375 -4.71875 C 5.859375 -4.425781 5.785156 -4.179688 5.640625 -3.984375 C 5.492188 -3.796875 5.3125 -3.703125 5.09375 -3.703125 C 4.957031 -3.703125 4.847656 -3.738281 4.765625 -3.8125 C 4.679688 -3.894531 4.640625 -3.992188 4.640625 -4.109375 C 4.640625 -4.222656 4.671875 -4.3125 4.734375 -4.375 C 4.804688 -4.4375 4.882812 -4.46875 4.96875 -4.46875 C 5.050781 -4.46875 5.117188 -4.441406 5.171875 -4.390625 C 5.234375 -4.335938 5.289062 -4.3125 5.34375 -4.3125 C 5.382812 -4.3125 5.421875 -4.351562 5.453125 -4.4375 C 5.492188 -4.53125 5.515625 -4.644531 5.515625 -4.78125 C 5.515625 -5.09375 5.390625 -5.363281 5.140625 -5.59375 C 4.898438 -5.820312 4.5625 -5.9375 4.125 -5.9375 C 3.457031 -5.9375 2.96875 -5.734375 2.65625 -5.328125 C 2.351562 -4.921875 2.203125 -4.3125 2.203125 -3.5 L 2.203125 -1.796875 C 2.203125 -1.441406 2.207031 -1.160156 2.21875 -0.953125 C 2.238281 -0.742188 2.269531 -0.582031 2.3125 -0.46875 C 2.351562 -0.351562 2.414062 -0.273438 2.5 -0.234375 C 2.59375 -0.203125 2.71875 -0.1875 2.875 -0.1875 C 2.96875 -0.1875 3.070312 -0.191406 3.1875 -0.203125 C 3.300781 -0.222656 3.394531 -0.234375 3.46875 -0.234375 C 3.539062 -0.234375 3.601562 -0.21875 3.65625 -0.1875 C 3.707031 -0.164062 3.734375 -0.128906 3.734375 -0.078125 C 3.734375 -0.015625 3.707031 0.0234375 3.65625 0.046875 C 3.613281 0.0664062 3.554688 0.078125 3.484375 0.078125 C 3.421875 0.078125 3.328125 0.0703125 3.203125 0.0625 C 3.085938 0.0625 2.957031 0.0546875 2.8125 0.046875 C 2.675781 0.0351562 2.539062 0.0234375 2.40625 0.015625 C 2.269531 0.00390625 2.148438 0 2.046875 0 C 1.941406 0 1.816406 0.00390625 1.671875 0.015625 C 1.535156 0.0234375 1.398438 0.0351562 1.265625 0.046875 C 1.128906 0.0546875 1 0.0625 0.875 0.0625 C 0.75 0.0703125 0.65625 0.078125 0.59375 0.078125 C 0.53125 0.078125 0.472656 0.0664062 0.421875 0.046875 C 0.378906 0.0234375 0.359375 -0.015625 0.359375 -0.078125 C 0.359375 -0.128906 0.382812 -0.164062 0.4375 -0.1875 C 0.488281 -0.21875 0.550781 -0.234375 0.625 -0.234375 C 0.695312 -0.234375 0.789062 -0.222656 0.90625 -0.203125 C 1.019531 -0.191406 1.132812 -0.1875 1.25 -0.1875 C 1.53125 -0.1875 1.707031 -0.273438 1.78125 -0.453125 C 1.820312 -0.546875 1.847656 -0.695312 1.859375 -0.90625 C 1.878906 -1.113281 1.890625 -1.40625 1.890625 -1.78125 L 1.890625 -4.421875 C 1.890625 -4.722656 1.882812 -4.960938 1.875 -5.140625 C 1.875 -5.316406 1.859375 -5.453125 1.828125 -5.546875 C 1.796875 -5.648438 1.75 -5.710938 1.6875 -5.734375 C 1.625 -5.765625 1.535156 -5.78125 1.421875 -5.78125 C 1.378906 -5.78125 1.316406 -5.773438 1.234375 -5.765625 C 1.160156 -5.765625 1.082031 -5.757812 1 -5.75 C 0.925781 -5.75 0.851562 -5.742188 0.78125 -5.734375 C 0.707031 -5.734375 0.644531 -5.734375 0.59375 -5.734375 C 0.4375 -5.734375 0.359375 -5.785156 0.359375 -5.890625 C 0.359375 -6.003906 0.425781 -6.0625 0.5625 -6.0625 C 0.582031 -6.0625 0.65625 -6.050781 0.78125 -6.03125 C 0.914062 -6.019531 1.09375 -6.015625 1.3125 -6.015625 C 1.507812 -6.015625 1.660156 -6.019531 1.765625 -6.03125 C 1.878906 -6.050781 1.957031 -6.0625 2 -6.0625 C 2.09375 -6.0625 2.148438 -6.039062 2.171875 -6 C 2.191406 -5.957031 2.203125 -5.898438 2.203125 -5.828125 L 2.203125 -5 L 2.234375 -5 C 2.421875 -5.375 2.675781 -5.664062 3 -5.875 C 3.332031 -6.082031 3.71875 -6.1875 4.15625 -6.1875 Z M 4.15625 -6.1875 "/></g></g></g><g fill="#000000" fill-opacity="1"><g transform="translate(731.494118, 873.974953)"><g><path d="M 0.5625 -6.0625 C 0.582031 -6.0625 0.65625 -6.050781 0.78125 -6.03125 C 0.914062 -6.019531 1.09375 -6.015625 1.3125 -6.015625 C 1.507812 -6.015625 1.660156 -6.019531 1.765625 -6.03125 C 1.878906 -6.050781 1.957031 -6.0625 2 -6.0625 C 2.09375 -6.0625 2.148438 -6.039062 2.171875 -6 C 2.191406 -5.957031 2.203125 -5.898438 2.203125 -5.828125 L 2.203125 -2.015625 C 2.203125 -1.753906 2.203125 -1.535156 2.203125 -1.359375 C 2.210938 -1.191406 2.222656 -1.050781 2.234375 -0.9375 C 2.242188 -0.832031 2.253906 -0.742188 2.265625 -0.671875 C 2.273438 -0.609375 2.285156 -0.550781 2.296875 -0.5 C 2.335938 -0.394531 2.398438 -0.316406 2.484375 -0.265625 C 2.566406 -0.210938 2.695312 -0.1875 2.875 -0.1875 C 2.96875 -0.1875 3.070312 -0.191406 3.1875 -0.203125 C 3.300781 -0.222656 3.394531 -0.234375 3.46875 -0.234375 C 3.539062 -0.234375 3.601562 -0.21875 3.65625 -0.1875 C 3.707031 -0.164062 3.734375 -0.128906 3.734375 -0.078125 C 3.734375 -0.015625 3.707031 0.0234375 3.65625 0.046875 C 3.613281 0.0664062 3.554688 0.078125 3.484375 0.078125 C 3.421875 0.078125 3.328125 0.0703125 3.203125 0.0625 C 3.085938 0.0625 2.957031 0.0546875 2.8125 0.046875 C 2.675781 0.0351562 2.539062 0.0234375 2.40625 0.015625 C 2.269531 0.00390625 2.148438 0 2.046875 0 C 1.941406 0 1.816406 0.00390625 1.671875 0.015625 C 1.535156 0.0234375 1.398438 0.0351562 1.265625 0.046875 C 1.128906 0.0546875 1 0.0625 0.875 0.0625 C 0.75 0.0703125 0.65625 0.078125 0.59375 0.078125 C 0.53125 0.078125 0.472656 0.0664062 0.421875 0.046875 C 0.378906 0.0234375 0.359375 -0.015625 0.359375 -0.078125 C 0.359375 -0.128906 0.382812 -0.164062 0.4375 -0.1875 C 0.488281 -0.21875 0.550781 -0.234375 0.625 -0.234375 C 0.695312 -0.234375 0.789062 -0.222656 0.90625 -0.203125 C 1.019531 -0.191406 1.125 -0.1875 1.21875 -0.1875 C 1.382812 -0.1875 1.503906 -0.207031 1.578125 -0.25 C 1.660156 -0.289062 1.722656 -0.351562 1.765625 -0.4375 C 1.773438 -0.46875 1.789062 -0.507812 1.8125 -0.5625 C 1.832031 -0.625 1.847656 -0.710938 1.859375 -0.828125 C 1.867188 -0.941406 1.875 -1.09375 1.875 -1.28125 C 1.882812 -1.46875 1.890625 -1.710938 1.890625 -2.015625 L 1.890625 -4.375 C 1.890625 -4.6875 1.882812 -4.9375 1.875 -5.125 C 1.875 -5.3125 1.859375 -5.453125 1.828125 -5.546875 C 1.796875 -5.648438 1.742188 -5.710938 1.671875 -5.734375 C 1.609375 -5.765625 1.515625 -5.78125 1.390625 -5.78125 C 1.359375 -5.78125 1.300781 -5.773438 1.21875 -5.765625 C 1.144531 -5.765625 1.066406 -5.757812 0.984375 -5.75 C 0.910156 -5.75 0.832031 -5.742188 0.75 -5.734375 C 0.675781 -5.734375 0.625 -5.734375 0.59375 -5.734375 C 0.4375 -5.734375 0.359375 -5.785156 0.359375 -5.890625 C 0.359375 -6.003906 0.425781 -6.0625 0.5625 -6.0625 Z M 1.9375 -7.890625 C 2.050781 -7.890625 2.148438 -7.84375 2.234375 -7.75 C 2.328125 -7.664062 2.375 -7.5625 2.375 -7.4375 C 2.375 -7.3125 2.328125 -7.203125 2.234375 -7.109375 C 2.148438 -7.023438 2.050781 -6.984375 1.9375 -6.984375 C 1.8125 -6.984375 1.703125 -7.023438 1.609375 -7.109375 C 1.523438 -7.203125 1.484375 -7.3125 1.484375 -7.4375 C 1.484375 -7.5625 1.523438 -7.664062 1.609375 -7.75 C 1.703125 -7.84375 1.8125 -7.890625 1.9375 -7.890625 Z M 1.9375 -7.890625 "/></g></g></g><g fill="#000000" fill-opacity="1"><g transform="translate(735.334125, 873.974953)"><g><path d="M 3.4375 -6.1875 C 3.757812 -6.1875 4.054688 -6.140625 4.328125 -6.046875 C 4.609375 -5.953125 4.847656 -5.820312 5.046875 -5.65625 C 5.253906 -5.488281 5.414062 -5.296875 5.53125 -5.078125 C 5.644531 -4.859375 5.703125 -4.625 5.703125 -4.375 C 5.703125 -4.101562 5.625 -3.882812 5.46875 -3.71875 C 5.320312 -3.550781 5.144531 -3.46875 4.9375 -3.46875 C 4.8125 -3.46875 4.703125 -3.507812 4.609375 -3.59375 C 4.515625 -3.675781 4.46875 -3.78125 4.46875 -3.90625 C 4.46875 -4.03125 4.503906 -4.125 4.578125 -4.1875 C 4.648438 -4.25 4.738281 -4.28125 4.84375 -4.28125 C 4.9375 -4.28125 5.015625 -4.25 5.078125 -4.1875 C 5.148438 -4.125 5.195312 -4.09375 5.21875 -4.09375 C 5.269531 -4.09375 5.3125 -4.128906 5.34375 -4.203125 C 5.382812 -4.273438 5.40625 -4.351562 5.40625 -4.4375 C 5.40625 -4.613281 5.359375 -4.789062 5.265625 -4.96875 C 5.179688 -5.15625 5.054688 -5.316406 4.890625 -5.453125 C 4.722656 -5.597656 4.519531 -5.710938 4.28125 -5.796875 C 4.039062 -5.890625 3.765625 -5.9375 3.453125 -5.9375 C 3.054688 -5.9375 2.695312 -5.863281 2.375 -5.71875 C 2.050781 -5.582031 1.773438 -5.382812 1.546875 -5.125 C 1.316406 -4.863281 1.140625 -4.546875 1.015625 -4.171875 C 0.890625 -3.804688 0.828125 -3.394531 0.828125 -2.9375 C 0.828125 -2.488281 0.882812 -2.085938 1 -1.734375 C 1.125 -1.390625 1.296875 -1.09375 1.515625 -0.84375 C 1.734375 -0.59375 2 -0.398438 2.3125 -0.265625 C 2.632812 -0.140625 2.988281 -0.078125 3.375 -0.078125 C 3.925781 -0.078125 4.359375 -0.191406 4.671875 -0.421875 C 4.984375 -0.648438 5.207031 -0.925781 5.34375 -1.25 C 5.382812 -1.332031 5.414062 -1.414062 5.4375 -1.5 C 5.457031 -1.59375 5.472656 -1.679688 5.484375 -1.765625 C 5.503906 -1.910156 5.523438 -2 5.546875 -2.03125 C 5.566406 -2.070312 5.597656 -2.09375 5.640625 -2.09375 C 5.753906 -2.09375 5.8125 -2.015625 5.8125 -1.859375 C 5.8125 -1.734375 5.796875 -1.609375 5.765625 -1.484375 C 5.734375 -1.367188 5.691406 -1.242188 5.640625 -1.109375 C 5.566406 -0.941406 5.46875 -0.78125 5.34375 -0.625 C 5.21875 -0.46875 5.066406 -0.328125 4.890625 -0.203125 C 4.710938 -0.0859375 4.5 0.00390625 4.25 0.078125 C 4.007812 0.148438 3.734375 0.1875 3.421875 0.1875 C 2.953125 0.1875 2.535156 0.109375 2.171875 -0.046875 C 1.804688 -0.210938 1.5 -0.429688 1.25 -0.703125 C 1 -0.984375 0.804688 -1.3125 0.671875 -1.6875 C 0.546875 -2.070312 0.484375 -2.488281 0.484375 -2.9375 C 0.484375 -3.40625 0.550781 -3.835938 0.6875 -4.234375 C 0.832031 -4.640625 1.03125 -4.984375 1.28125 -5.265625 C 1.539062 -5.554688 1.851562 -5.78125 2.21875 -5.9375 C 2.582031 -6.101562 2.988281 -6.1875 3.4375 -6.1875 Z M 3.4375 -6.1875 "/></g></g></g><g fill="#000000" fill-opacity="1"><g transform="translate(741.646136, 873.974953)"><g><path d="M 0.796875 -1.453125 C 0.796875 -1.234375 0.84375 -1.035156 0.9375 -0.859375 C 1.03125 -0.691406 1.15625 -0.550781 1.3125 -0.4375 C 1.476562 -0.320312 1.660156 -0.234375 1.859375 -0.171875 C 2.066406 -0.109375 2.28125 -0.078125 2.5 -0.078125 C 2.789062 -0.078125 3.078125 -0.128906 3.359375 -0.234375 C 3.648438 -0.347656 3.90625 -0.503906 4.125 -0.703125 C 4.351562 -0.910156 4.535156 -1.15625 4.671875 -1.4375 C 4.804688 -1.726562 4.875 -2.046875 4.875 -2.390625 L 4.875 -3.734375 L 4.8125 -3.75 C 4.625 -3.507812 4.410156 -3.335938 4.171875 -3.234375 C 3.929688 -3.140625 3.644531 -3.082031 3.3125 -3.0625 L 2.515625 -3 C 1.910156 -2.945312 1.472656 -2.789062 1.203125 -2.53125 C 0.929688 -2.269531 0.796875 -1.910156 0.796875 -1.453125 Z M 3.03125 -6.1875 C 3.78125 -6.1875 4.328125 -6.007812 4.671875 -5.65625 C 5.023438 -5.300781 5.203125 -4.804688 5.203125 -4.171875 L 5.203125 -1.3125 C 5.203125 -1.007812 5.21875 -0.773438 5.25 -0.609375 C 5.289062 -0.441406 5.34375 -0.316406 5.40625 -0.234375 C 5.476562 -0.160156 5.554688 -0.113281 5.640625 -0.09375 C 5.722656 -0.0820312 5.785156 -0.078125 5.828125 -0.078125 C 6.015625 -0.078125 6.175781 -0.144531 6.3125 -0.28125 C 6.457031 -0.425781 6.53125 -0.632812 6.53125 -0.90625 C 6.53125 -0.976562 6.523438 -1.054688 6.515625 -1.140625 C 6.515625 -1.222656 6.515625 -1.3125 6.515625 -1.40625 C 6.515625 -1.550781 6.523438 -1.675781 6.546875 -1.78125 C 6.566406 -1.882812 6.613281 -1.9375 6.6875 -1.9375 C 6.75 -1.9375 6.789062 -1.90625 6.8125 -1.84375 C 6.84375 -1.789062 6.859375 -1.691406 6.859375 -1.546875 C 6.859375 -1.203125 6.835938 -0.921875 6.796875 -0.703125 C 6.753906 -0.484375 6.691406 -0.304688 6.609375 -0.171875 C 6.523438 -0.0351562 6.421875 0.0546875 6.296875 0.109375 C 6.171875 0.160156 6.023438 0.1875 5.859375 0.1875 C 5.703125 0.1875 5.566406 0.160156 5.453125 0.109375 C 5.335938 0.0664062 5.238281 -0.00390625 5.15625 -0.109375 C 5.070312 -0.222656 5.003906 -0.367188 4.953125 -0.546875 C 4.910156 -0.722656 4.890625 -0.945312 4.890625 -1.21875 L 4.859375 -1.21875 C 4.691406 -0.9375 4.515625 -0.707031 4.328125 -0.53125 C 4.140625 -0.351562 3.941406 -0.207031 3.734375 -0.09375 C 3.535156 0.0078125 3.320312 0.0820312 3.09375 0.125 C 2.875 0.164062 2.648438 0.1875 2.421875 0.1875 C 2.128906 0.1875 1.863281 0.140625 1.625 0.046875 C 1.382812 -0.0351562 1.175781 -0.148438 1 -0.296875 C 0.832031 -0.441406 0.695312 -0.613281 0.59375 -0.8125 C 0.488281 -1.019531 0.4375 -1.238281 0.4375 -1.46875 C 0.4375 -1.769531 0.476562 -2.019531 0.5625 -2.21875 C 0.65625 -2.425781 0.785156 -2.597656 0.953125 -2.734375 C 1.023438 -2.796875 1.109375 -2.859375 1.203125 -2.921875 C 1.304688 -2.984375 1.425781 -3.039062 1.5625 -3.09375 C 1.707031 -3.144531 1.878906 -3.1875 2.078125 -3.21875 C 2.285156 -3.257812 2.53125 -3.285156 2.8125 -3.296875 L 3.34375 -3.34375 C 3.851562 -3.375 4.226562 -3.5 4.46875 -3.71875 C 4.71875 -3.945312 4.84375 -4.210938 4.84375 -4.515625 C 4.84375 -4.972656 4.679688 -5.320312 4.359375 -5.5625 C 4.035156 -5.8125 3.609375 -5.9375 3.078125 -5.9375 C 2.796875 -5.9375 2.535156 -5.898438 2.296875 -5.828125 C 2.066406 -5.765625 1.867188 -5.675781 1.703125 -5.5625 C 1.535156 -5.457031 1.40625 -5.328125 1.3125 -5.171875 C 1.21875 -5.015625 1.171875 -4.851562 1.171875 -4.6875 C 1.171875 -4.539062 1.203125 -4.46875 1.265625 -4.46875 C 1.285156 -4.46875 1.320312 -4.503906 1.375 -4.578125 C 1.425781 -4.671875 1.476562 -4.734375 1.53125 -4.765625 C 1.59375 -4.796875 1.660156 -4.8125 1.734375 -4.8125 C 1.835938 -4.8125 1.921875 -4.769531 1.984375 -4.6875 C 2.054688 -4.613281 2.09375 -4.523438 2.09375 -4.421875 C 2.09375 -4.273438 2.035156 -4.148438 1.921875 -4.046875 C 1.804688 -3.953125 1.675781 -3.90625 1.53125 -3.90625 C 1.34375 -3.90625 1.175781 -3.972656 1.03125 -4.109375 C 0.894531 -4.253906 0.828125 -4.425781 0.828125 -4.625 C 0.828125 -4.832031 0.878906 -5.03125 0.984375 -5.21875 C 1.097656 -5.414062 1.25 -5.585938 1.4375 -5.734375 C 1.632812 -5.878906 1.867188 -5.988281 2.140625 -6.0625 C 2.421875 -6.144531 2.71875 -6.1875 3.03125 -6.1875 Z M 3.03125 -6.1875 "/></g></g></g><g fill="#000000" fill-opacity="1"><g transform="translate(748.414149, 873.974953)"><g><path d="M 4.484375 -6.1875 C 5.265625 -6.1875 5.835938 -5.976562 6.203125 -5.5625 C 6.578125 -5.15625 6.765625 -4.488281 6.765625 -3.5625 L 6.765625 -1.78125 C 6.765625 -1.46875 6.769531 -1.207031 6.78125 -1 C 6.789062 -0.800781 6.816406 -0.640625 6.859375 -0.515625 C 6.898438 -0.398438 6.960938 -0.316406 7.046875 -0.265625 C 7.128906 -0.210938 7.253906 -0.1875 7.421875 -0.1875 C 7.523438 -0.1875 7.632812 -0.191406 7.75 -0.203125 C 7.863281 -0.222656 7.953125 -0.234375 8.015625 -0.234375 C 8.097656 -0.234375 8.164062 -0.21875 8.21875 -0.1875 C 8.269531 -0.164062 8.296875 -0.128906 8.296875 -0.078125 C 8.296875 -0.015625 8.269531 0.0234375 8.21875 0.046875 C 8.164062 0.0664062 8.109375 0.078125 8.046875 0.078125 C 7.984375 0.078125 7.890625 0.0703125 7.765625 0.0625 C 7.648438 0.0625 7.519531 0.0546875 7.375 0.046875 C 7.238281 0.0351562 7.097656 0.0234375 6.953125 0.015625 C 6.816406 0.00390625 6.695312 0 6.59375 0 C 6.5 0 6.378906 0.00390625 6.234375 0.015625 C 6.097656 0.0234375 5.960938 0.0351562 5.828125 0.046875 C 5.691406 0.0546875 5.5625 0.0625 5.4375 0.0625 C 5.320312 0.0703125 5.234375 0.078125 5.171875 0.078125 C 5.097656 0.078125 5.035156 0.0664062 4.984375 0.046875 C 4.941406 0.0234375 4.921875 -0.015625 4.921875 -0.078125 C 4.921875 -0.128906 4.945312 -0.164062 5 -0.1875 C 5.050781 -0.21875 5.117188 -0.234375 5.203125 -0.234375 C 5.253906 -0.234375 5.335938 -0.222656 5.453125 -0.203125 C 5.578125 -0.191406 5.691406 -0.1875 5.796875 -0.1875 C 6.066406 -0.1875 6.242188 -0.269531 6.328125 -0.4375 C 6.335938 -0.46875 6.347656 -0.507812 6.359375 -0.5625 C 6.378906 -0.613281 6.394531 -0.691406 6.40625 -0.796875 C 6.425781 -0.910156 6.4375 -1.054688 6.4375 -1.234375 C 6.4375 -1.421875 6.4375 -1.65625 6.4375 -1.9375 L 6.4375 -3.59375 C 6.4375 -4.425781 6.28125 -5.023438 5.96875 -5.390625 C 5.664062 -5.753906 5.160156 -5.9375 4.453125 -5.9375 C 3.722656 -5.9375 3.164062 -5.71875 2.78125 -5.28125 C 2.394531 -4.851562 2.203125 -4.265625 2.203125 -3.515625 L 2.203125 -1.84375 C 2.203125 -1.5 2.207031 -1.222656 2.21875 -1.015625 C 2.226562 -0.804688 2.253906 -0.640625 2.296875 -0.515625 C 2.335938 -0.398438 2.398438 -0.316406 2.484375 -0.265625 C 2.566406 -0.210938 2.691406 -0.1875 2.859375 -0.1875 C 2.960938 -0.1875 3.070312 -0.191406 3.1875 -0.203125 C 3.300781 -0.222656 3.394531 -0.234375 3.46875 -0.234375 C 3.539062 -0.234375 3.601562 -0.21875 3.65625 -0.1875 C 3.707031 -0.164062 3.734375 -0.128906 3.734375 -0.078125 C 3.734375 -0.015625 3.707031 0.0234375 3.65625 0.046875 C 3.613281 0.0664062 3.554688 0.078125 3.484375 0.078125 C 3.421875 0.078125 3.328125 0.0703125 3.203125 0.0625 C 3.085938 0.0625 2.957031 0.0546875 2.8125 0.046875 C 2.675781 0.0351562 2.539062 0.0234375 2.40625 0.015625 C 2.269531 0.00390625 2.148438 0 2.046875 0 C 1.941406 0 1.816406 0.00390625 1.671875 0.015625 C 1.535156 0.0234375 1.398438 0.0351562 1.265625 0.046875 C 1.128906 0.0546875 1 0.0625 0.875 0.0625 C 0.75 0.0703125 0.65625 0.078125 0.59375 0.078125 C 0.53125 0.078125 0.472656 0.0664062 0.421875 0.046875 C 0.378906 0.0234375 0.359375 -0.015625 0.359375 -0.078125 C 0.359375 -0.128906 0.382812 -0.164062 0.4375 -0.1875 C 0.488281 -0.21875 0.550781 -0.234375 0.625 -0.234375 C 0.695312 -0.234375 0.789062 -0.222656 0.90625 -0.203125 C 1.019531 -0.191406 1.125 -0.1875 1.21875 -0.1875 C 1.488281 -0.1875 1.664062 -0.257812 1.75 -0.40625 C 1.769531 -0.445312 1.789062 -0.492188 1.8125 -0.546875 C 1.832031 -0.609375 1.847656 -0.695312 1.859375 -0.8125 C 1.867188 -0.925781 1.875 -1.078125 1.875 -1.265625 C 1.882812 -1.460938 1.890625 -1.710938 1.890625 -2.015625 L 1.890625 -4.421875 C 1.890625 -4.722656 1.882812 -4.960938 1.875 -5.140625 C 1.875 -5.316406 1.859375 -5.453125 1.828125 -5.546875 C 1.796875 -5.648438 1.742188 -5.710938 1.671875 -5.734375 C 1.609375 -5.765625 1.515625 -5.78125 1.390625 -5.78125 C 1.359375 -5.78125 1.300781 -5.773438 1.21875 -5.765625 C 1.144531 -5.765625 1.066406 -5.757812 0.984375 -5.75 C 0.910156 -5.75 0.832031 -5.742188 0.75 -5.734375 C 0.675781 -5.734375 0.625 -5.734375 0.59375 -5.734375 C 0.4375 -5.734375 0.359375 -5.785156 0.359375 -5.890625 C 0.359375 -6.003906 0.425781 -6.0625 0.5625 -6.0625 C 0.582031 -6.0625 0.65625 -6.050781 0.78125 -6.03125 C 0.914062 -6.019531 1.09375 -6.015625 1.3125 -6.015625 C 1.507812 -6.015625 1.660156 -6.019531 1.765625 -6.03125 C 1.878906 -6.050781 1.957031 -6.0625 2 -6.0625 C 2.09375 -6.0625 2.148438 -6.039062 2.171875 -6 C 2.191406 -5.957031 2.203125 -5.898438 2.203125 -5.828125 L 2.203125 -4.890625 L 2.234375 -4.890625 C 2.640625 -5.753906 3.390625 -6.1875 4.484375 -6.1875 Z M 4.484375 -6.1875 "/></g></g></g><g fill="#000000" fill-opacity="1"><g transform="translate(756.766161, 873.974953)"><g/></g></g><g fill="#000000" fill-opacity="1"><g transform="translate(760.606168, 873.974953)"><g><path d="M 4.46875 -7.859375 C 4.257812 -7.859375 4.128906 -7.835938 4.078125 -7.796875 C 4.035156 -7.753906 4.015625 -7.617188 4.015625 -7.390625 L 4.015625 -1.84375 C 4.015625 -1.53125 4.015625 -1.269531 4.015625 -1.0625 C 4.023438 -0.851562 4.050781 -0.6875 4.09375 -0.5625 C 4.132812 -0.4375 4.191406 -0.34375 4.265625 -0.28125 C 4.335938 -0.21875 4.445312 -0.1875 4.59375 -0.1875 C 4.75 -0.1875 4.878906 -0.191406 4.984375 -0.203125 C 5.097656 -0.222656 5.207031 -0.234375 5.3125 -0.234375 C 5.375 -0.234375 5.4375 -0.222656 5.5 -0.203125 C 5.5625 -0.179688 5.59375 -0.140625 5.59375 -0.078125 C 5.59375 -0.015625 5.5625 0.0234375 5.5 0.046875 C 5.4375 0.0664062 5.367188 0.078125 5.296875 0.078125 C 5.128906 0.078125 4.921875 0.0625 4.671875 0.03125 C 4.429688 0.0078125 4.15625 0 3.84375 0 C 3.53125 0 3.242188 0.0078125 2.984375 0.03125 C 2.734375 0.0625 2.523438 0.078125 2.359375 0.078125 C 2.285156 0.078125 2.21875 0.0664062 2.15625 0.046875 C 2.101562 0.0234375 2.078125 -0.015625 2.078125 -0.078125 C 2.078125 -0.140625 2.101562 -0.179688 2.15625 -0.203125 C 2.21875 -0.222656 2.285156 -0.234375 2.359375 -0.234375 C 2.453125 -0.234375 2.5625 -0.222656 2.6875 -0.203125 C 2.8125 -0.191406 2.941406 -0.1875 3.078125 -0.1875 C 3.222656 -0.1875 3.332031 -0.21875 3.40625 -0.28125 C 3.488281 -0.351562 3.546875 -0.457031 3.578125 -0.59375 C 3.617188 -0.726562 3.640625 -0.894531 3.640625 -1.09375 C 3.648438 -1.300781 3.65625 -1.546875 3.65625 -1.828125 L 3.65625 -7.390625 C 3.65625 -7.617188 3.628906 -7.753906 3.578125 -7.796875 C 3.523438 -7.835938 3.40625 -7.859375 3.21875 -7.859375 L 1.484375 -7.859375 C 1.335938 -7.859375 1.21875 -7.84375 1.125 -7.8125 C 1.039062 -7.789062 0.972656 -7.738281 0.921875 -7.65625 C 0.878906 -7.570312 0.847656 -7.460938 0.828125 -7.328125 C 0.804688 -7.191406 0.796875 -7.015625 0.796875 -6.796875 C 0.796875 -6.515625 0.796875 -6.285156 0.796875 -6.109375 C 0.804688 -5.941406 0.8125 -5.800781 0.8125 -5.6875 C 0.820312 -5.582031 0.832031 -5.5 0.84375 -5.4375 C 0.851562 -5.375 0.859375 -5.3125 0.859375 -5.25 C 0.859375 -5.132812 0.835938 -5.050781 0.796875 -5 C 0.753906 -4.957031 0.707031 -4.9375 0.65625 -4.9375 C 0.613281 -4.9375 0.570312 -4.960938 0.53125 -5.015625 C 0.488281 -5.066406 0.46875 -5.140625 0.46875 -5.234375 C 0.46875 -5.367188 0.476562 -5.535156 0.5 -5.734375 C 0.53125 -5.929688 0.546875 -6.125 0.546875 -6.3125 C 0.546875 -6.363281 0.539062 -6.453125 0.53125 -6.578125 C 0.53125 -6.710938 0.519531 -6.859375 0.5 -7.015625 C 0.488281 -7.171875 0.476562 -7.328125 0.46875 -7.484375 C 0.46875 -7.640625 0.46875 -7.769531 0.46875 -7.875 C 0.46875 -8.09375 0.613281 -8.203125 0.90625 -8.203125 C 1.46875 -8.203125 1.945312 -8.1875 2.34375 -8.15625 C 2.75 -8.132812 3.03125 -8.125 3.1875 -8.125 C 3.269531 -8.125 3.367188 -8.117188 3.484375 -8.109375 C 3.597656 -8.109375 3.710938 -8.109375 3.828125 -8.109375 C 3.941406 -8.109375 4.050781 -8.109375 4.15625 -8.109375 C 4.257812 -8.117188 4.359375 -8.125 4.453125 -8.125 C 4.648438 -8.132812 4.875 -8.140625 5.125 -8.140625 C 5.382812 -8.148438 5.625 -8.160156 5.84375 -8.171875 C 6.070312 -8.179688 6.265625 -8.1875 6.421875 -8.1875 C 6.578125 -8.195312 6.660156 -8.203125 6.671875 -8.203125 C 6.878906 -8.203125 7.019531 -8.175781 7.09375 -8.125 C 7.164062 -8.070312 7.203125 -7.988281 7.203125 -7.875 C 7.203125 -7.78125 7.195312 -7.65625 7.1875 -7.5 C 7.175781 -7.34375 7.164062 -7.179688 7.15625 -7.015625 C 7.144531 -6.847656 7.132812 -6.695312 7.125 -6.5625 C 7.113281 -6.4375 7.109375 -6.351562 7.109375 -6.3125 C 7.109375 -6.125 7.125 -5.929688 7.15625 -5.734375 C 7.1875 -5.535156 7.203125 -5.367188 7.203125 -5.234375 C 7.203125 -5.140625 7.179688 -5.066406 7.140625 -5.015625 C 7.097656 -4.960938 7.054688 -4.9375 7.015625 -4.9375 C 6.960938 -4.9375 6.914062 -4.957031 6.875 -5 C 6.832031 -5.050781 6.8125 -5.132812 6.8125 -5.25 C 6.8125 -5.382812 6.820312 -5.539062 6.84375 -5.71875 C 6.863281 -5.90625 6.875 -6.113281 6.875 -6.34375 C 6.875 -6.875 6.863281 -7.222656 6.84375 -7.390625 C 6.820312 -7.472656 6.800781 -7.539062 6.78125 -7.59375 C 6.757812 -7.65625 6.71875 -7.707031 6.65625 -7.75 C 6.601562 -7.789062 6.523438 -7.816406 6.421875 -7.828125 C 6.328125 -7.847656 6.207031 -7.859375 6.0625 -7.859375 Z M 4.46875 -7.859375 "/></g></g></g><g fill="#000000" fill-opacity="1"><g transform="translate(768.274178, 873.974953)"><g><path d="M 0.1875 -6.09375 C 0.363281 -6.09375 0.546875 -6.078125 0.734375 -6.046875 C 0.921875 -6.023438 1.113281 -6.015625 1.3125 -6.015625 C 1.507812 -6.015625 1.722656 -6.023438 1.953125 -6.046875 C 2.191406 -6.078125 2.410156 -6.09375 2.609375 -6.09375 C 2.734375 -6.09375 2.816406 -6.078125 2.859375 -6.046875 C 2.898438 -6.015625 2.921875 -5.972656 2.921875 -5.921875 C 2.921875 -5.867188 2.890625 -5.828125 2.828125 -5.796875 C 2.773438 -5.773438 2.707031 -5.765625 2.625 -5.765625 C 2.53125 -5.765625 2.421875 -5.769531 2.296875 -5.78125 C 2.171875 -5.800781 2.050781 -5.8125 1.9375 -5.8125 C 1.757812 -5.8125 1.628906 -5.785156 1.546875 -5.734375 C 1.472656 -5.691406 1.4375 -5.628906 1.4375 -5.546875 C 1.4375 -5.523438 1.4375 -5.492188 1.4375 -5.453125 C 1.445312 -5.421875 1.460938 -5.363281 1.484375 -5.28125 C 1.515625 -5.207031 1.550781 -5.101562 1.59375 -4.96875 C 1.644531 -4.84375 1.710938 -4.671875 1.796875 -4.453125 L 3.359375 -0.4375 C 3.378906 -0.40625 3.394531 -0.363281 3.40625 -0.3125 C 3.425781 -0.269531 3.453125 -0.25 3.484375 -0.25 C 3.503906 -0.25 3.535156 -0.300781 3.578125 -0.40625 L 5.453125 -4.984375 C 5.515625 -5.140625 5.554688 -5.253906 5.578125 -5.328125 C 5.597656 -5.410156 5.609375 -5.46875 5.609375 -5.5 C 5.609375 -5.601562 5.554688 -5.679688 5.453125 -5.734375 C 5.347656 -5.785156 5.226562 -5.8125 5.09375 -5.8125 C 4.988281 -5.8125 4.875 -5.800781 4.75 -5.78125 C 4.625 -5.769531 4.515625 -5.765625 4.421875 -5.765625 C 4.242188 -5.765625 4.15625 -5.816406 4.15625 -5.921875 C 4.15625 -5.984375 4.179688 -6.023438 4.234375 -6.046875 C 4.285156 -6.078125 4.34375 -6.09375 4.40625 -6.09375 C 4.457031 -6.09375 4.53125 -6.085938 4.625 -6.078125 C 4.726562 -6.078125 4.835938 -6.066406 4.953125 -6.046875 C 5.066406 -6.035156 5.175781 -6.023438 5.28125 -6.015625 C 5.394531 -6.015625 5.503906 -6.015625 5.609375 -6.015625 C 5.679688 -6.015625 5.78125 -6.015625 5.90625 -6.015625 C 6.03125 -6.023438 6.15625 -6.035156 6.28125 -6.046875 C 6.40625 -6.066406 6.519531 -6.078125 6.625 -6.078125 C 6.738281 -6.085938 6.816406 -6.09375 6.859375 -6.09375 C 6.921875 -6.09375 6.976562 -6.078125 7.03125 -6.046875 C 7.082031 -6.015625 7.109375 -5.972656 7.109375 -5.921875 C 7.109375 -5.816406 7.003906 -5.765625 6.796875 -5.765625 C 6.734375 -5.765625 6.675781 -5.769531 6.625 -5.78125 C 6.570312 -5.800781 6.515625 -5.8125 6.453125 -5.8125 C 6.335938 -5.8125 6.25 -5.78125 6.1875 -5.71875 C 6.113281 -5.644531 6.039062 -5.53125 5.96875 -5.375 C 5.90625 -5.21875 5.832031 -5.039062 5.75 -4.84375 L 3.640625 0.234375 C 3.335938 0.984375 2.992188 1.53125 2.609375 1.875 C 2.234375 2.226562 1.769531 2.40625 1.21875 2.40625 C 0.976562 2.40625 0.757812 2.367188 0.5625 2.296875 C 0.375 2.234375 0.207031 2.144531 0.0625 2.03125 C -0.0703125 1.914062 -0.175781 1.78125 -0.25 1.625 C -0.320312 1.476562 -0.359375 1.320312 -0.359375 1.15625 C -0.359375 0.976562 -0.296875 0.820312 -0.171875 0.6875 C -0.0546875 0.5625 0.078125 0.5 0.234375 0.5 C 0.367188 0.5 0.472656 0.539062 0.546875 0.625 C 0.628906 0.707031 0.671875 0.804688 0.671875 0.921875 C 0.671875 1.023438 0.632812 1.113281 0.5625 1.1875 C 0.488281 1.269531 0.390625 1.3125 0.265625 1.3125 C 0.222656 1.3125 0.1875 1.300781 0.15625 1.28125 C 0.132812 1.269531 0.101562 1.265625 0.0625 1.265625 C 0.0390625 1.265625 0.0195312 1.273438 0 1.296875 C -0.0078125 1.328125 -0.015625 1.351562 -0.015625 1.375 C -0.015625 1.457031 0.0078125 1.539062 0.0625 1.625 C 0.125 1.71875 0.207031 1.800781 0.3125 1.875 C 0.425781 1.945312 0.554688 2.007812 0.703125 2.0625 C 0.859375 2.113281 1.03125 2.140625 1.21875 2.140625 C 1.582031 2.140625 1.925781 2.035156 2.25 1.828125 C 2.40625 1.734375 2.539062 1.609375 2.65625 1.453125 C 2.78125 1.296875 2.882812 1.132812 2.96875 0.96875 C 3.050781 0.8125 3.113281 0.664062 3.15625 0.53125 C 3.207031 0.40625 3.234375 0.3125 3.234375 0.25 C 3.234375 0.195312 3.222656 0.144531 3.203125 0.09375 C 3.191406 0.0390625 3.164062 -0.03125 3.125 -0.125 L 1.109375 -5.21875 C 1.023438 -5.425781 0.9375 -5.578125 0.84375 -5.671875 C 0.75 -5.765625 0.613281 -5.8125 0.4375 -5.8125 C 0.382812 -5.8125 0.335938 -5.800781 0.296875 -5.78125 C 0.253906 -5.769531 0.191406 -5.765625 0.109375 -5.765625 C 0.0664062 -5.765625 0.0234375 -5.78125 -0.015625 -5.8125 C -0.0546875 -5.84375 -0.078125 -5.878906 -0.078125 -5.921875 C -0.078125 -5.992188 -0.0507812 -6.039062 0 -6.0625 C 0.0507812 -6.082031 0.113281 -6.09375 0.1875 -6.09375 Z M 0.1875 -6.09375 "/></g></g></g><g fill="#000000" fill-opacity="1"><g transform="translate(775.270191, 873.974953)"><g><path d="M 1.875 -2.703125 C 1.875 -2.492188 1.878906 -2.3125 1.890625 -2.15625 C 1.898438 -2.007812 1.910156 -1.875 1.921875 -1.75 C 1.941406 -1.632812 1.96875 -1.535156 2 -1.453125 C 2.03125 -1.367188 2.0625 -1.289062 2.09375 -1.21875 C 2.164062 -1.050781 2.265625 -0.894531 2.390625 -0.75 C 2.515625 -0.613281 2.660156 -0.492188 2.828125 -0.390625 C 2.992188 -0.296875 3.171875 -0.21875 3.359375 -0.15625 C 3.554688 -0.101562 3.757812 -0.078125 3.96875 -0.078125 C 4.289062 -0.078125 4.597656 -0.132812 4.890625 -0.25 C 5.179688 -0.363281 5.4375 -0.539062 5.65625 -0.78125 C 5.875 -1.03125 6.050781 -1.335938 6.1875 -1.703125 C 6.320312 -2.078125 6.390625 -2.519531 6.390625 -3.03125 C 6.390625 -3.957031 6.191406 -4.671875 5.796875 -5.171875 C 5.410156 -5.679688 4.84375 -5.9375 4.09375 -5.9375 C 3.550781 -5.9375 3.097656 -5.78125 2.734375 -5.46875 C 2.546875 -5.3125 2.394531 -5.148438 2.28125 -4.984375 C 2.164062 -4.816406 2.078125 -4.628906 2.015625 -4.421875 C 1.960938 -4.210938 1.925781 -3.96875 1.90625 -3.6875 C 1.882812 -3.414062 1.875 -3.085938 1.875 -2.703125 Z M 4.109375 -6.1875 C 4.535156 -6.1875 4.910156 -6.109375 5.234375 -5.953125 C 5.554688 -5.804688 5.828125 -5.597656 6.046875 -5.328125 C 6.273438 -5.054688 6.445312 -4.726562 6.5625 -4.34375 C 6.675781 -3.96875 6.734375 -3.554688 6.734375 -3.109375 C 6.734375 -2.640625 6.671875 -2.207031 6.546875 -1.8125 C 6.421875 -1.414062 6.238281 -1.066406 6 -0.765625 C 5.769531 -0.472656 5.484375 -0.238281 5.140625 -0.0625 C 4.796875 0.101562 4.40625 0.1875 3.96875 0.1875 C 3.476562 0.1875 3.0625 0.0820312 2.71875 -0.125 C 2.375 -0.34375 2.109375 -0.632812 1.921875 -1 L 1.890625 -1 L 1.890625 0.3125 C 1.890625 0.71875 1.894531 1.039062 1.90625 1.28125 C 1.925781 1.53125 1.953125 1.71875 1.984375 1.84375 C 2.023438 1.96875 2.085938 2.046875 2.171875 2.078125 C 2.265625 2.117188 2.394531 2.140625 2.5625 2.140625 C 2.625 2.140625 2.722656 2.128906 2.859375 2.109375 C 3.003906 2.097656 3.101562 2.09375 3.15625 2.09375 C 3.226562 2.09375 3.289062 2.101562 3.34375 2.125 C 3.394531 2.15625 3.421875 2.195312 3.421875 2.25 C 3.421875 2.3125 3.394531 2.351562 3.34375 2.375 C 3.300781 2.394531 3.25 2.40625 3.1875 2.40625 C 3.144531 2.40625 3.054688 2.398438 2.921875 2.390625 C 2.796875 2.390625 2.65625 2.382812 2.5 2.375 C 2.34375 2.363281 2.191406 2.351562 2.046875 2.34375 C 1.910156 2.332031 1.804688 2.328125 1.734375 2.328125 C 1.660156 2.328125 1.550781 2.332031 1.40625 2.34375 C 1.257812 2.351562 1.109375 2.363281 0.953125 2.375 C 0.804688 2.382812 0.664062 2.390625 0.53125 2.390625 C 0.40625 2.398438 0.320312 2.40625 0.28125 2.40625 C 0.21875 2.40625 0.160156 2.394531 0.109375 2.375 C 0.0664062 2.351562 0.046875 2.3125 0.046875 2.25 C 0.046875 2.195312 0.0703125 2.15625 0.125 2.125 C 0.175781 2.101562 0.238281 2.09375 0.3125 2.09375 C 0.363281 2.09375 0.457031 2.097656 0.59375 2.109375 C 0.726562 2.128906 0.832031 2.140625 0.90625 2.140625 C 1.0625 2.140625 1.179688 2.125 1.265625 2.09375 C 1.359375 2.0625 1.425781 1.984375 1.46875 1.859375 C 1.507812 1.734375 1.535156 1.550781 1.546875 1.3125 C 1.566406 1.070312 1.578125 0.738281 1.578125 0.3125 L 1.578125 -4.421875 C 1.578125 -4.734375 1.570312 -4.976562 1.5625 -5.15625 C 1.550781 -5.34375 1.53125 -5.484375 1.5 -5.578125 C 1.476562 -5.671875 1.429688 -5.726562 1.359375 -5.75 C 1.296875 -5.769531 1.203125 -5.78125 1.078125 -5.78125 C 1.046875 -5.78125 0.992188 -5.773438 0.921875 -5.765625 C 0.847656 -5.765625 0.769531 -5.757812 0.6875 -5.75 C 0.601562 -5.75 0.523438 -5.742188 0.453125 -5.734375 C 0.378906 -5.734375 0.320312 -5.734375 0.28125 -5.734375 C 0.125 -5.734375 0.046875 -5.785156 0.046875 -5.890625 C 0.046875 -6.003906 0.113281 -6.0625 0.25 -6.0625 C 0.3125 -6.0625 0.394531 -6.050781 0.5 -6.03125 C 0.613281 -6.019531 0.785156 -6.015625 1.015625 -6.015625 C 1.203125 -6.015625 1.347656 -6.019531 1.453125 -6.03125 C 1.566406 -6.050781 1.644531 -6.0625 1.6875 -6.0625 C 1.78125 -6.0625 1.835938 -6.039062 1.859375 -6 C 1.878906 -5.957031 1.890625 -5.898438 1.890625 -5.828125 L 1.890625 -4.796875 L 1.921875 -4.796875 C 2.109375 -5.234375 2.378906 -5.570312 2.734375 -5.8125 C 3.097656 -6.0625 3.554688 -6.1875 4.109375 -6.1875 Z M 4.109375 -6.1875 "/></g></g></g><g fill="#000000" fill-opacity="1"><g transform="translate(782.4822, 873.974953)"><g><path d="M 0.875 -3.59375 C 0.875 -3.507812 0.894531 -3.457031 0.9375 -3.4375 C 0.976562 -3.414062 1.035156 -3.40625 1.109375 -3.40625 L 5.421875 -3.40625 C 5.484375 -3.40625 5.53125 -3.414062 5.5625 -3.4375 C 5.59375 -3.457031 5.609375 -3.503906 5.609375 -3.578125 C 5.609375 -3.835938 5.5625 -4.101562 5.46875 -4.375 C 5.375 -4.65625 5.234375 -4.910156 5.046875 -5.140625 C 4.867188 -5.378906 4.632812 -5.570312 4.34375 -5.71875 C 4.050781 -5.863281 3.707031 -5.9375 3.3125 -5.9375 C 3.070312 -5.9375 2.84375 -5.90625 2.625 -5.84375 C 2.40625 -5.789062 2.207031 -5.707031 2.03125 -5.59375 C 1.84375 -5.476562 1.675781 -5.332031 1.53125 -5.15625 C 1.394531 -4.988281 1.273438 -4.804688 1.171875 -4.609375 C 1.078125 -4.421875 1.003906 -4.238281 0.953125 -4.0625 C 0.898438 -3.882812 0.875 -3.726562 0.875 -3.59375 Z M 3.34375 -6.1875 C 3.78125 -6.1875 4.160156 -6.101562 4.484375 -5.9375 C 4.816406 -5.769531 5.085938 -5.550781 5.296875 -5.28125 C 5.515625 -5.019531 5.675781 -4.726562 5.78125 -4.40625 C 5.894531 -4.09375 5.953125 -3.785156 5.953125 -3.484375 C 5.953125 -3.347656 5.921875 -3.253906 5.859375 -3.203125 C 5.804688 -3.148438 5.691406 -3.125 5.515625 -3.125 L 1.0625 -3.125 C 0.96875 -3.125 0.90625 -3.109375 0.875 -3.078125 C 0.84375 -3.046875 0.828125 -2.957031 0.828125 -2.8125 C 0.828125 -2.4375 0.878906 -2.082031 0.984375 -1.75 C 1.085938 -1.425781 1.238281 -1.140625 1.4375 -0.890625 C 1.644531 -0.640625 1.898438 -0.441406 2.203125 -0.296875 C 2.503906 -0.148438 2.851562 -0.078125 3.25 -0.078125 C 3.550781 -0.078125 3.828125 -0.117188 4.078125 -0.203125 C 4.328125 -0.285156 4.546875 -0.394531 4.734375 -0.53125 C 4.929688 -0.675781 5.09375 -0.84375 5.21875 -1.03125 C 5.34375 -1.21875 5.429688 -1.414062 5.484375 -1.625 C 5.503906 -1.738281 5.53125 -1.847656 5.5625 -1.953125 C 5.601562 -2.066406 5.65625 -2.125 5.71875 -2.125 C 5.78125 -2.125 5.820312 -2.101562 5.84375 -2.0625 C 5.863281 -2.019531 5.875 -1.976562 5.875 -1.9375 C 5.875 -1.832031 5.847656 -1.695312 5.796875 -1.53125 C 5.742188 -1.363281 5.660156 -1.191406 5.546875 -1.015625 C 5.316406 -0.640625 5.007812 -0.34375 4.625 -0.125 C 4.25 0.0820312 3.800781 0.1875 3.28125 0.1875 C 2.800781 0.1875 2.390625 0.101562 2.046875 -0.0625 C 1.703125 -0.238281 1.410156 -0.46875 1.171875 -0.75 C 0.941406 -1.039062 0.769531 -1.375 0.65625 -1.75 C 0.539062 -2.125 0.484375 -2.519531 0.484375 -2.9375 C 0.484375 -3.40625 0.550781 -3.835938 0.6875 -4.234375 C 0.820312 -4.640625 1.015625 -4.988281 1.265625 -5.28125 C 1.515625 -5.570312 1.816406 -5.796875 2.171875 -5.953125 C 2.523438 -6.109375 2.914062 -6.1875 3.34375 -6.1875 Z M 3.34375 -6.1875 "/></g></g></g><g fill="#000000" fill-opacity="1"><g transform="translate(789.022212, 873.974953)"><g><path d="M 0.234375 -6.09375 C 0.296875 -6.09375 0.378906 -6.085938 0.484375 -6.078125 C 0.597656 -6.078125 0.710938 -6.066406 0.828125 -6.046875 C 0.953125 -6.035156 1.070312 -6.023438 1.1875 -6.015625 C 1.3125 -6.015625 1.40625 -6.015625 1.46875 -6.015625 C 1.539062 -6.015625 1.632812 -6.015625 1.75 -6.015625 C 1.875 -6.023438 2 -6.035156 2.125 -6.046875 C 2.25 -6.066406 2.367188 -6.078125 2.484375 -6.078125 C 2.597656 -6.085938 2.691406 -6.09375 2.765625 -6.09375 C 2.941406 -6.09375 3.03125 -6.035156 3.03125 -5.921875 C 3.03125 -5.890625 3.003906 -5.851562 2.953125 -5.8125 C 2.910156 -5.78125 2.820312 -5.765625 2.6875 -5.765625 C 2.570312 -5.765625 2.441406 -5.769531 2.296875 -5.78125 C 2.148438 -5.800781 2.03125 -5.8125 1.9375 -5.8125 C 1.789062 -5.8125 1.6875 -5.785156 1.625 -5.734375 C 1.570312 -5.679688 1.546875 -5.609375 1.546875 -5.515625 C 1.546875 -5.472656 1.550781 -5.421875 1.5625 -5.359375 C 1.570312 -5.296875 1.59375 -5.203125 1.625 -5.078125 L 2.859375 -0.734375 C 2.878906 -0.640625 2.898438 -0.566406 2.921875 -0.515625 C 2.941406 -0.472656 2.972656 -0.453125 3.015625 -0.453125 C 3.054688 -0.453125 3.085938 -0.5 3.109375 -0.59375 L 4.53125 -5.625 C 4.5625 -5.769531 4.601562 -5.867188 4.65625 -5.921875 C 4.707031 -5.984375 4.769531 -6.015625 4.84375 -6.015625 C 4.90625 -6.015625 4.957031 -5.992188 5 -5.953125 C 5.039062 -5.921875 5.070312 -5.878906 5.09375 -5.828125 C 5.125 -5.785156 5.140625 -5.738281 5.140625 -5.6875 C 5.148438 -5.632812 5.160156 -5.597656 5.171875 -5.578125 L 6.6875 -0.59375 C 6.707031 -0.5 6.742188 -0.453125 6.796875 -0.453125 C 6.835938 -0.453125 6.867188 -0.460938 6.890625 -0.484375 C 6.910156 -0.515625 6.9375 -0.585938 6.96875 -0.703125 L 8.0625 -4.84375 C 8.113281 -5.050781 8.144531 -5.1875 8.15625 -5.25 C 8.175781 -5.320312 8.1875 -5.378906 8.1875 -5.421875 C 8.1875 -5.585938 8.132812 -5.691406 8.03125 -5.734375 C 7.9375 -5.785156 7.785156 -5.8125 7.578125 -5.8125 C 7.453125 -5.8125 7.332031 -5.800781 7.21875 -5.78125 C 7.101562 -5.769531 6.992188 -5.765625 6.890625 -5.765625 C 6.734375 -5.765625 6.65625 -5.816406 6.65625 -5.921875 C 6.65625 -5.972656 6.679688 -6.015625 6.734375 -6.046875 C 6.785156 -6.078125 6.851562 -6.09375 6.9375 -6.09375 C 7.101562 -6.09375 7.300781 -6.078125 7.53125 -6.046875 C 7.769531 -6.023438 8 -6.015625 8.21875 -6.015625 C 8.28125 -6.015625 8.367188 -6.015625 8.484375 -6.015625 C 8.597656 -6.023438 8.71875 -6.035156 8.84375 -6.046875 C 8.976562 -6.066406 9.101562 -6.078125 9.21875 -6.078125 C 9.332031 -6.085938 9.421875 -6.09375 9.484375 -6.09375 C 9.585938 -6.09375 9.65625 -6.078125 9.6875 -6.046875 C 9.726562 -6.015625 9.75 -5.972656 9.75 -5.921875 C 9.75 -5.816406 9.664062 -5.765625 9.5 -5.765625 C 9.40625 -5.765625 9.316406 -5.769531 9.234375 -5.78125 C 9.148438 -5.800781 9.066406 -5.8125 8.984375 -5.8125 C 8.878906 -5.8125 8.796875 -5.789062 8.734375 -5.75 C 8.679688 -5.707031 8.640625 -5.644531 8.609375 -5.5625 C 8.578125 -5.488281 8.546875 -5.394531 8.515625 -5.28125 C 8.484375 -5.164062 8.453125 -5.046875 8.421875 -4.921875 L 7.21875 -0.4375 C 7.144531 -0.175781 7.082031 -0.015625 7.03125 0.046875 C 6.976562 0.109375 6.90625 0.140625 6.8125 0.140625 C 6.726562 0.140625 6.65625 0.101562 6.59375 0.03125 C 6.539062 -0.03125 6.476562 -0.179688 6.40625 -0.421875 L 5 -5.125 C 4.945312 -5.3125 4.898438 -5.40625 4.859375 -5.40625 C 4.816406 -5.40625 4.785156 -5.363281 4.765625 -5.28125 C 4.742188 -5.195312 4.722656 -5.132812 4.703125 -5.09375 L 3.359375 -0.328125 C 3.328125 -0.210938 3.296875 -0.125 3.265625 -0.0625 C 3.234375 0 3.203125 0.046875 3.171875 0.078125 C 3.140625 0.109375 3.109375 0.125 3.078125 0.125 C 3.054688 0.132812 3.03125 0.140625 3 0.140625 C 2.925781 0.140625 2.859375 0.109375 2.796875 0.046875 C 2.734375 -0.015625 2.675781 -0.132812 2.625 -0.3125 L 1.3125 -5.03125 C 1.269531 -5.175781 1.234375 -5.300781 1.203125 -5.40625 C 1.171875 -5.507812 1.128906 -5.585938 1.078125 -5.640625 C 1.035156 -5.703125 0.976562 -5.742188 0.90625 -5.765625 C 0.84375 -5.796875 0.753906 -5.8125 0.640625 -5.8125 C 0.578125 -5.8125 0.515625 -5.800781 0.453125 -5.78125 C 0.390625 -5.769531 0.316406 -5.765625 0.234375 -5.765625 C 0.046875 -5.765625 -0.046875 -5.816406 -0.046875 -5.921875 C -0.046875 -5.984375 -0.0195312 -6.023438 0.03125 -6.046875 C 0.09375 -6.078125 0.160156 -6.09375 0.234375 -6.09375 Z M 0.234375 -6.09375 "/></g></g></g><g fill="#000000" fill-opacity="1"><g transform="translate(798.718229, 873.974953)"><g><path d="M 4.15625 -6.1875 C 4.375 -6.1875 4.585938 -6.148438 4.796875 -6.078125 C 5.003906 -6.015625 5.1875 -5.921875 5.34375 -5.796875 C 5.5 -5.671875 5.625 -5.515625 5.71875 -5.328125 C 5.8125 -5.148438 5.859375 -4.945312 5.859375 -4.71875 C 5.859375 -4.425781 5.785156 -4.179688 5.640625 -3.984375 C 5.492188 -3.796875 5.3125 -3.703125 5.09375 -3.703125 C 4.957031 -3.703125 4.847656 -3.738281 4.765625 -3.8125 C 4.679688 -3.894531 4.640625 -3.992188 4.640625 -4.109375 C 4.640625 -4.222656 4.671875 -4.3125 4.734375 -4.375 C 4.804688 -4.4375 4.882812 -4.46875 4.96875 -4.46875 C 5.050781 -4.46875 5.117188 -4.441406 5.171875 -4.390625 C 5.234375 -4.335938 5.289062 -4.3125 5.34375 -4.3125 C 5.382812 -4.3125 5.421875 -4.351562 5.453125 -4.4375 C 5.492188 -4.53125 5.515625 -4.644531 5.515625 -4.78125 C 5.515625 -5.09375 5.390625 -5.363281 5.140625 -5.59375 C 4.898438 -5.820312 4.5625 -5.9375 4.125 -5.9375 C 3.457031 -5.9375 2.96875 -5.734375 2.65625 -5.328125 C 2.351562 -4.921875 2.203125 -4.3125 2.203125 -3.5 L 2.203125 -1.796875 C 2.203125 -1.441406 2.207031 -1.160156 2.21875 -0.953125 C 2.238281 -0.742188 2.269531 -0.582031 2.3125 -0.46875 C 2.351562 -0.351562 2.414062 -0.273438 2.5 -0.234375 C 2.59375 -0.203125 2.71875 -0.1875 2.875 -0.1875 C 2.96875 -0.1875 3.070312 -0.191406 3.1875 -0.203125 C 3.300781 -0.222656 3.394531 -0.234375 3.46875 -0.234375 C 3.539062 -0.234375 3.601562 -0.21875 3.65625 -0.1875 C 3.707031 -0.164062 3.734375 -0.128906 3.734375 -0.078125 C 3.734375 -0.015625 3.707031 0.0234375 3.65625 0.046875 C 3.613281 0.0664062 3.554688 0.078125 3.484375 0.078125 C 3.421875 0.078125 3.328125 0.0703125 3.203125 0.0625 C 3.085938 0.0625 2.957031 0.0546875 2.8125 0.046875 C 2.675781 0.0351562 2.539062 0.0234375 2.40625 0.015625 C 2.269531 0.00390625 2.148438 0 2.046875 0 C 1.941406 0 1.816406 0.00390625 1.671875 0.015625 C 1.535156 0.0234375 1.398438 0.0351562 1.265625 0.046875 C 1.128906 0.0546875 1 0.0625 0.875 0.0625 C 0.75 0.0703125 0.65625 0.078125 0.59375 0.078125 C 0.53125 0.078125 0.472656 0.0664062 0.421875 0.046875 C 0.378906 0.0234375 0.359375 -0.015625 0.359375 -0.078125 C 0.359375 -0.128906 0.382812 -0.164062 0.4375 -0.1875 C 0.488281 -0.21875 0.550781 -0.234375 0.625 -0.234375 C 0.695312 -0.234375 0.789062 -0.222656 0.90625 -0.203125 C 1.019531 -0.191406 1.132812 -0.1875 1.25 -0.1875 C 1.53125 -0.1875 1.707031 -0.273438 1.78125 -0.453125 C 1.820312 -0.546875 1.847656 -0.695312 1.859375 -0.90625 C 1.878906 -1.113281 1.890625 -1.40625 1.890625 -1.78125 L 1.890625 -4.421875 C 1.890625 -4.722656 1.882812 -4.960938 1.875 -5.140625 C 1.875 -5.316406 1.859375 -5.453125 1.828125 -5.546875 C 1.796875 -5.648438 1.75 -5.710938 1.6875 -5.734375 C 1.625 -5.765625 1.535156 -5.78125 1.421875 -5.78125 C 1.378906 -5.78125 1.316406 -5.773438 1.234375 -5.765625 C 1.160156 -5.765625 1.082031 -5.757812 1 -5.75 C 0.925781 -5.75 0.851562 -5.742188 0.78125 -5.734375 C 0.707031 -5.734375 0.644531 -5.734375 0.59375 -5.734375 C 0.4375 -5.734375 0.359375 -5.785156 0.359375 -5.890625 C 0.359375 -6.003906 0.425781 -6.0625 0.5625 -6.0625 C 0.582031 -6.0625 0.65625 -6.050781 0.78125 -6.03125 C 0.914062 -6.019531 1.09375 -6.015625 1.3125 -6.015625 C 1.507812 -6.015625 1.660156 -6.019531 1.765625 -6.03125 C 1.878906 -6.050781 1.957031 -6.0625 2 -6.0625 C 2.09375 -6.0625 2.148438 -6.039062 2.171875 -6 C 2.191406 -5.957031 2.203125 -5.898438 2.203125 -5.828125 L 2.203125 -5 L 2.234375 -5 C 2.421875 -5.375 2.675781 -5.664062 3 -5.875 C 3.332031 -6.082031 3.71875 -6.1875 4.15625 -6.1875 Z M 4.15625 -6.1875 "/></g></g></g><g fill="#000000" fill-opacity="1"><g transform="translate(804.814245, 873.974953)"><g><path d="M 0.5625 -6.0625 C 0.582031 -6.0625 0.65625 -6.050781 0.78125 -6.03125 C 0.914062 -6.019531 1.09375 -6.015625 1.3125 -6.015625 C 1.507812 -6.015625 1.660156 -6.019531 1.765625 -6.03125 C 1.878906 -6.050781 1.957031 -6.0625 2 -6.0625 C 2.09375 -6.0625 2.148438 -6.039062 2.171875 -6 C 2.191406 -5.957031 2.203125 -5.898438 2.203125 -5.828125 L 2.203125 -2.015625 C 2.203125 -1.753906 2.203125 -1.535156 2.203125 -1.359375 C 2.210938 -1.191406 2.222656 -1.050781 2.234375 -0.9375 C 2.242188 -0.832031 2.253906 -0.742188 2.265625 -0.671875 C 2.273438 -0.609375 2.285156 -0.550781 2.296875 -0.5 C 2.335938 -0.394531 2.398438 -0.316406 2.484375 -0.265625 C 2.566406 -0.210938 2.695312 -0.1875 2.875 -0.1875 C 2.96875 -0.1875 3.070312 -0.191406 3.1875 -0.203125 C 3.300781 -0.222656 3.394531 -0.234375 3.46875 -0.234375 C 3.539062 -0.234375 3.601562 -0.21875 3.65625 -0.1875 C 3.707031 -0.164062 3.734375 -0.128906 3.734375 -0.078125 C 3.734375 -0.015625 3.707031 0.0234375 3.65625 0.046875 C 3.613281 0.0664062 3.554688 0.078125 3.484375 0.078125 C 3.421875 0.078125 3.328125 0.0703125 3.203125 0.0625 C 3.085938 0.0625 2.957031 0.0546875 2.8125 0.046875 C 2.675781 0.0351562 2.539062 0.0234375 2.40625 0.015625 C 2.269531 0.00390625 2.148438 0 2.046875 0 C 1.941406 0 1.816406 0.00390625 1.671875 0.015625 C 1.535156 0.0234375 1.398438 0.0351562 1.265625 0.046875 C 1.128906 0.0546875 1 0.0625 0.875 0.0625 C 0.75 0.0703125 0.65625 0.078125 0.59375 0.078125 C 0.53125 0.078125 0.472656 0.0664062 0.421875 0.046875 C 0.378906 0.0234375 0.359375 -0.015625 0.359375 -0.078125 C 0.359375 -0.128906 0.382812 -0.164062 0.4375 -0.1875 C 0.488281 -0.21875 0.550781 -0.234375 0.625 -0.234375 C 0.695312 -0.234375 0.789062 -0.222656 0.90625 -0.203125 C 1.019531 -0.191406 1.125 -0.1875 1.21875 -0.1875 C 1.382812 -0.1875 1.503906 -0.207031 1.578125 -0.25 C 1.660156 -0.289062 1.722656 -0.351562 1.765625 -0.4375 C 1.773438 -0.46875 1.789062 -0.507812 1.8125 -0.5625 C 1.832031 -0.625 1.847656 -0.710938 1.859375 -0.828125 C 1.867188 -0.941406 1.875 -1.09375 1.875 -1.28125 C 1.882812 -1.46875 1.890625 -1.710938 1.890625 -2.015625 L 1.890625 -4.375 C 1.890625 -4.6875 1.882812 -4.9375 1.875 -5.125 C 1.875 -5.3125 1.859375 -5.453125 1.828125 -5.546875 C 1.796875 -5.648438 1.742188 -5.710938 1.671875 -5.734375 C 1.609375 -5.765625 1.515625 -5.78125 1.390625 -5.78125 C 1.359375 -5.78125 1.300781 -5.773438 1.21875 -5.765625 C 1.144531 -5.765625 1.066406 -5.757812 0.984375 -5.75 C 0.910156 -5.75 0.832031 -5.742188 0.75 -5.734375 C 0.675781 -5.734375 0.625 -5.734375 0.59375 -5.734375 C 0.4375 -5.734375 0.359375 -5.785156 0.359375 -5.890625 C 0.359375 -6.003906 0.425781 -6.0625 0.5625 -6.0625 Z M 1.9375 -7.890625 C 2.050781 -7.890625 2.148438 -7.84375 2.234375 -7.75 C 2.328125 -7.664062 2.375 -7.5625 2.375 -7.4375 C 2.375 -7.3125 2.328125 -7.203125 2.234375 -7.109375 C 2.148438 -7.023438 2.050781 -6.984375 1.9375 -6.984375 C 1.8125 -6.984375 1.703125 -7.023438 1.609375 -7.109375 C 1.523438 -7.203125 1.484375 -7.3125 1.484375 -7.4375 C 1.484375 -7.5625 1.523438 -7.664062 1.609375 -7.75 C 1.703125 -7.84375 1.8125 -7.890625 1.9375 -7.890625 Z M 1.9375 -7.890625 "/></g></g></g><g fill="#000000" fill-opacity="1"><g transform="translate(808.654252, 873.974953)"><g><path d="M 1.578125 -7.578125 C 1.671875 -7.578125 1.71875 -7.492188 1.71875 -7.328125 C 1.71875 -7.210938 1.707031 -7.054688 1.6875 -6.859375 C 1.675781 -6.660156 1.671875 -6.476562 1.671875 -6.3125 C 1.671875 -6.15625 1.707031 -6.066406 1.78125 -6.046875 C 1.851562 -6.023438 2.007812 -6.015625 2.25 -6.015625 C 2.28125 -6.015625 2.335938 -6.015625 2.421875 -6.015625 C 2.515625 -6.023438 2.617188 -6.03125 2.734375 -6.03125 C 2.847656 -6.03125 2.953125 -6.03125 3.046875 -6.03125 C 3.148438 -6.039062 3.222656 -6.046875 3.265625 -6.046875 C 3.367188 -6.046875 3.4375 -6.03125 3.46875 -6 C 3.507812 -5.96875 3.53125 -5.929688 3.53125 -5.890625 C 3.53125 -5.835938 3.507812 -5.796875 3.46875 -5.765625 C 3.4375 -5.734375 3.351562 -5.71875 3.21875 -5.71875 C 3.164062 -5.71875 3.078125 -5.71875 2.953125 -5.71875 C 2.828125 -5.726562 2.695312 -5.738281 2.5625 -5.75 C 2.4375 -5.757812 2.3125 -5.765625 2.1875 -5.765625 C 2.070312 -5.765625 2 -5.765625 1.96875 -5.765625 C 1.8125 -5.765625 1.71875 -5.734375 1.6875 -5.671875 C 1.65625 -5.617188 1.640625 -5.488281 1.640625 -5.28125 L 1.640625 -2.375 C 1.640625 -1.914062 1.660156 -1.535156 1.703125 -1.234375 C 1.753906 -0.941406 1.828125 -0.707031 1.921875 -0.53125 C 2.023438 -0.363281 2.148438 -0.242188 2.296875 -0.171875 C 2.441406 -0.109375 2.613281 -0.078125 2.8125 -0.078125 C 3.03125 -0.078125 3.238281 -0.128906 3.4375 -0.234375 C 3.632812 -0.335938 3.773438 -0.546875 3.859375 -0.859375 C 3.898438 -0.992188 3.925781 -1.140625 3.9375 -1.296875 C 3.957031 -1.453125 3.96875 -1.664062 3.96875 -1.9375 C 3.96875 -2.03125 3.960938 -2.117188 3.953125 -2.203125 C 3.953125 -2.296875 3.953125 -2.378906 3.953125 -2.453125 C 3.953125 -2.617188 4.007812 -2.703125 4.125 -2.703125 C 4.21875 -2.703125 4.269531 -2.664062 4.28125 -2.59375 C 4.300781 -2.519531 4.3125 -2.421875 4.3125 -2.296875 C 4.3125 -1.847656 4.296875 -1.488281 4.265625 -1.21875 C 4.234375 -0.945312 4.175781 -0.71875 4.09375 -0.53125 C 3.976562 -0.257812 3.8125 -0.0703125 3.59375 0.03125 C 3.382812 0.132812 3.117188 0.1875 2.796875 0.1875 C 2.304688 0.1875 1.9375 0.0234375 1.6875 -0.296875 C 1.4375 -0.628906 1.3125 -1.175781 1.3125 -1.9375 L 1.3125 -5.28125 C 1.3125 -5.488281 1.296875 -5.617188 1.265625 -5.671875 C 1.234375 -5.734375 1.140625 -5.765625 0.984375 -5.765625 C 0.929688 -5.765625 0.820312 -5.753906 0.65625 -5.734375 C 0.5 -5.722656 0.378906 -5.71875 0.296875 -5.71875 C 0.222656 -5.71875 0.164062 -5.734375 0.125 -5.765625 C 0.09375 -5.804688 0.078125 -5.847656 0.078125 -5.890625 C 0.078125 -5.992188 0.148438 -6.046875 0.296875 -6.046875 C 0.367188 -6.046875 0.46875 -6.039062 0.59375 -6.03125 C 0.726562 -6.019531 0.828125 -6.015625 0.890625 -6.015625 C 1.097656 -6.015625 1.238281 -6.054688 1.3125 -6.140625 C 1.382812 -6.234375 1.421875 -6.414062 1.421875 -6.6875 C 1.421875 -6.96875 1.425781 -7.1875 1.4375 -7.34375 C 1.457031 -7.5 1.503906 -7.578125 1.578125 -7.578125 Z M 1.578125 -7.578125 "/></g></g></g><g fill="#000000" fill-opacity="1"><g transform="translate(813.166257, 873.974953)"><g><path d="M 0.875 -3.59375 C 0.875 -3.507812 0.894531 -3.457031 0.9375 -3.4375 C 0.976562 -3.414062 1.035156 -3.40625 1.109375 -3.40625 L 5.421875 -3.40625 C 5.484375 -3.40625 5.53125 -3.414062 5.5625 -3.4375 C 5.59375 -3.457031 5.609375 -3.503906 5.609375 -3.578125 C 5.609375 -3.835938 5.5625 -4.101562 5.46875 -4.375 C 5.375 -4.65625 5.234375 -4.910156 5.046875 -5.140625 C 4.867188 -5.378906 4.632812 -5.570312 4.34375 -5.71875 C 4.050781 -5.863281 3.707031 -5.9375 3.3125 -5.9375 C 3.070312 -5.9375 2.84375 -5.90625 2.625 -5.84375 C 2.40625 -5.789062 2.207031 -5.707031 2.03125 -5.59375 C 1.84375 -5.476562 1.675781 -5.332031 1.53125 -5.15625 C 1.394531 -4.988281 1.273438 -4.804688 1.171875 -4.609375 C 1.078125 -4.421875 1.003906 -4.238281 0.953125 -4.0625 C 0.898438 -3.882812 0.875 -3.726562 0.875 -3.59375 Z M 3.34375 -6.1875 C 3.78125 -6.1875 4.160156 -6.101562 4.484375 -5.9375 C 4.816406 -5.769531 5.085938 -5.550781 5.296875 -5.28125 C 5.515625 -5.019531 5.675781 -4.726562 5.78125 -4.40625 C 5.894531 -4.09375 5.953125 -3.785156 5.953125 -3.484375 C 5.953125 -3.347656 5.921875 -3.253906 5.859375 -3.203125 C 5.804688 -3.148438 5.691406 -3.125 5.515625 -3.125 L 1.0625 -3.125 C 0.96875 -3.125 0.90625 -3.109375 0.875 -3.078125 C 0.84375 -3.046875 0.828125 -2.957031 0.828125 -2.8125 C 0.828125 -2.4375 0.878906 -2.082031 0.984375 -1.75 C 1.085938 -1.425781 1.238281 -1.140625 1.4375 -0.890625 C 1.644531 -0.640625 1.898438 -0.441406 2.203125 -0.296875 C 2.503906 -0.148438 2.851562 -0.078125 3.25 -0.078125 C 3.550781 -0.078125 3.828125 -0.117188 4.078125 -0.203125 C 4.328125 -0.285156 4.546875 -0.394531 4.734375 -0.53125 C 4.929688 -0.675781 5.09375 -0.84375 5.21875 -1.03125 C 5.34375 -1.21875 5.429688 -1.414062 5.484375 -1.625 C 5.503906 -1.738281 5.53125 -1.847656 5.5625 -1.953125 C 5.601562 -2.066406 5.65625 -2.125 5.71875 -2.125 C 5.78125 -2.125 5.820312 -2.101562 5.84375 -2.0625 C 5.863281 -2.019531 5.875 -1.976562 5.875 -1.9375 C 5.875 -1.832031 5.847656 -1.695312 5.796875 -1.53125 C 5.742188 -1.363281 5.660156 -1.191406 5.546875 -1.015625 C 5.316406 -0.640625 5.007812 -0.34375 4.625 -0.125 C 4.25 0.0820312 3.800781 0.1875 3.28125 0.1875 C 2.800781 0.1875 2.390625 0.101562 2.046875 -0.0625 C 1.703125 -0.238281 1.410156 -0.46875 1.171875 -0.75 C 0.941406 -1.039062 0.769531 -1.375 0.65625 -1.75 C 0.539062 -2.125 0.484375 -2.519531 0.484375 -2.9375 C 0.484375 -3.40625 0.550781 -3.835938 0.6875 -4.234375 C 0.820312 -4.640625 1.015625 -4.988281 1.265625 -5.28125 C 1.515625 -5.570312 1.816406 -5.796875 2.171875 -5.953125 C 2.523438 -6.109375 2.914062 -6.1875 3.34375 -6.1875 Z M 3.34375 -6.1875 "/></g></g></g><g fill="#000000" fill-opacity="1"><g transform="translate(819.706268, 873.974953)"><g><path d="M 4.15625 -6.1875 C 4.375 -6.1875 4.585938 -6.148438 4.796875 -6.078125 C 5.003906 -6.015625 5.1875 -5.921875 5.34375 -5.796875 C 5.5 -5.671875 5.625 -5.515625 5.71875 -5.328125 C 5.8125 -5.148438 5.859375 -4.945312 5.859375 -4.71875 C 5.859375 -4.425781 5.785156 -4.179688 5.640625 -3.984375 C 5.492188 -3.796875 5.3125 -3.703125 5.09375 -3.703125 C 4.957031 -3.703125 4.847656 -3.738281 4.765625 -3.8125 C 4.679688 -3.894531 4.640625 -3.992188 4.640625 -4.109375 C 4.640625 -4.222656 4.671875 -4.3125 4.734375 -4.375 C 4.804688 -4.4375 4.882812 -4.46875 4.96875 -4.46875 C 5.050781 -4.46875 5.117188 -4.441406 5.171875 -4.390625 C 5.234375 -4.335938 5.289062 -4.3125 5.34375 -4.3125 C 5.382812 -4.3125 5.421875 -4.351562 5.453125 -4.4375 C 5.492188 -4.53125 5.515625 -4.644531 5.515625 -4.78125 C 5.515625 -5.09375 5.390625 -5.363281 5.140625 -5.59375 C 4.898438 -5.820312 4.5625 -5.9375 4.125 -5.9375 C 3.457031 -5.9375 2.96875 -5.734375 2.65625 -5.328125 C 2.351562 -4.921875 2.203125 -4.3125 2.203125 -3.5 L 2.203125 -1.796875 C 2.203125 -1.441406 2.207031 -1.160156 2.21875 -0.953125 C 2.238281 -0.742188 2.269531 -0.582031 2.3125 -0.46875 C 2.351562 -0.351562 2.414062 -0.273438 2.5 -0.234375 C 2.59375 -0.203125 2.71875 -0.1875 2.875 -0.1875 C 2.96875 -0.1875 3.070312 -0.191406 3.1875 -0.203125 C 3.300781 -0.222656 3.394531 -0.234375 3.46875 -0.234375 C 3.539062 -0.234375 3.601562 -0.21875 3.65625 -0.1875 C 3.707031 -0.164062 3.734375 -0.128906 3.734375 -0.078125 C 3.734375 -0.015625 3.707031 0.0234375 3.65625 0.046875 C 3.613281 0.0664062 3.554688 0.078125 3.484375 0.078125 C 3.421875 0.078125 3.328125 0.0703125 3.203125 0.0625 C 3.085938 0.0625 2.957031 0.0546875 2.8125 0.046875 C 2.675781 0.0351562 2.539062 0.0234375 2.40625 0.015625 C 2.269531 0.00390625 2.148438 0 2.046875 0 C 1.941406 0 1.816406 0.00390625 1.671875 0.015625 C 1.535156 0.0234375 1.398438 0.0351562 1.265625 0.046875 C 1.128906 0.0546875 1 0.0625 0.875 0.0625 C 0.75 0.0703125 0.65625 0.078125 0.59375 0.078125 C 0.53125 0.078125 0.472656 0.0664062 0.421875 0.046875 C 0.378906 0.0234375 0.359375 -0.015625 0.359375 -0.078125 C 0.359375 -0.128906 0.382812 -0.164062 0.4375 -0.1875 C 0.488281 -0.21875 0.550781 -0.234375 0.625 -0.234375 C 0.695312 -0.234375 0.789062 -0.222656 0.90625 -0.203125 C 1.019531 -0.191406 1.132812 -0.1875 1.25 -0.1875 C 1.53125 -0.1875 1.707031 -0.273438 1.78125 -0.453125 C 1.820312 -0.546875 1.847656 -0.695312 1.859375 -0.90625 C 1.878906 -1.113281 1.890625 -1.40625 1.890625 -1.78125 L 1.890625 -4.421875 C 1.890625 -4.722656 1.882812 -4.960938 1.875 -5.140625 C 1.875 -5.316406 1.859375 -5.453125 1.828125 -5.546875 C 1.796875 -5.648438 1.75 -5.710938 1.6875 -5.734375 C 1.625 -5.765625 1.535156 -5.78125 1.421875 -5.78125 C 1.378906 -5.78125 1.316406 -5.773438 1.234375 -5.765625 C 1.160156 -5.765625 1.082031 -5.757812 1 -5.75 C 0.925781 -5.75 0.851562 -5.742188 0.78125 -5.734375 C 0.707031 -5.734375 0.644531 -5.734375 0.59375 -5.734375 C 0.4375 -5.734375 0.359375 -5.785156 0.359375 -5.890625 C 0.359375 -6.003906 0.425781 -6.0625 0.5625 -6.0625 C 0.582031 -6.0625 0.65625 -6.050781 0.78125 -6.03125 C 0.914062 -6.019531 1.09375 -6.015625 1.3125 -6.015625 C 1.507812 -6.015625 1.660156 -6.019531 1.765625 -6.03125 C 1.878906 -6.050781 1.957031 -6.0625 2 -6.0625 C 2.09375 -6.0625 2.148438 -6.039062 2.171875 -6 C 2.191406 -5.957031 2.203125 -5.898438 2.203125 -5.828125 L 2.203125 -5 L 2.234375 -5 C 2.421875 -5.375 2.675781 -5.664062 3 -5.875 C 3.332031 -6.082031 3.71875 -6.1875 4.15625 -6.1875 Z M 4.15625 -6.1875 "/></g></g></g><g transform="matrix(1, 0, 0, 1, 989, 762)"><g clip-path="url(#3872e39c12)"><g fill="#ffffff" fill-opacity="1"><g transform="translate(0.743072, 58.093093)"><g><path d="M 19.078125 -35.09375 C 22.691406 -35.09375 25.804688 -34.25 28.421875 -32.5625 C 31.046875 -30.882812 33.039062 -28.707031 34.40625 -26.03125 C 35.78125 -23.363281 36.46875 -20.554688 36.46875 -17.609375 C 36.46875 -12.472656 34.878906 -8.285156 31.703125 -5.046875 C 28.523438 -1.816406 24.300781 -0.132812 19.03125 0 L 1.6875 0 L 1.375 -1.6875 C 2.394531 -2.351562 3.882812 -3.070312 5.84375 -3.84375 L 5.84375 -31.515625 L 2.109375 -31.984375 L 2.15625 -34.671875 C 7.21875 -34.953125 12.859375 -35.09375 19.078125 -35.09375 Z M 17.859375 -4.375 C 20.890625 -4.375 23.34375 -5.582031 25.21875 -8 C 27.09375 -10.425781 28.03125 -13.519531 28.03125 -17.28125 C 28.03125 -20.195312 27.425781 -22.921875 26.21875 -25.453125 C 25.007812 -27.984375 23.4375 -29.828125 21.5 -30.984375 L 13.859375 -30.203125 L 13.859375 -5 C 15.296875 -4.582031 16.628906 -4.375 17.859375 -4.375 Z M 17.859375 -4.375 "/></g></g></g><g fill="#ffffff" fill-opacity="1"><g transform="translate(37.940212, 58.093093)"><g><path d="M 29.875 -10.484375 C 29.945312 -7.046875 29.738281 -3.550781 29.25 0 L 1.6875 0 L 1.375 -1.6875 C 2.394531 -2.351562 3.882812 -3.070312 5.84375 -3.84375 L 5.84375 -31.515625 L 1.953125 -31.984375 L 2 -34.671875 L 29.515625 -34.671875 C 29.691406 -31.796875 29.410156 -28.460938 28.671875 -24.671875 L 24.25 -24.671875 L 23.34375 -29.875 L 13.859375 -30.5625 L 13.859375 -19.234375 L 25.1875 -20.125 L 25.1875 -14.8125 L 13.859375 -15.28125 L 13.859375 -4.375 L 23.71875 -5.0625 L 25.453125 -10.796875 Z M 29.875 -10.484375 "/></g></g></g><g fill="#ffffff" fill-opacity="1"><g transform="translate(70.448205, 58.093093)"><g><path d="M 39.375 -32.984375 C 38.28125 -32.316406 36.851562 -31.617188 35.09375 -30.890625 L 34.890625 0 L 27.453125 0.6875 L 10.796875 -24.875 L 11.59375 -18.390625 L 11.59375 -3.375 L 16.234375 -2.6875 L 16.1875 0 L 1.6875 0 L 1.375 -1.6875 C 2.394531 -2.351562 3.882812 -3.070312 5.84375 -3.84375 L 5.84375 -31.40625 L 2.15625 -31.984375 L 2.21875 -34.671875 L 13.90625 -34.671875 L 13.859375 -34.625 L 30.140625 -9.171875 L 29.359375 -15.859375 L 29.359375 -31.25 L 24.25 -31.984375 L 24.296875 -34.671875 L 39.046875 -34.671875 Z M 39.375 -32.984375 "/></g></g></g><g fill="#ffffff" fill-opacity="1"><g transform="translate(111.228078, 58.093093)"><g><path d="M 38.265625 -2.6875 L 38.203125 0 L 21.609375 0 L 21.296875 -1.6875 C 22.273438 -2.28125 23.800781 -3.019531 25.875 -3.90625 L 23.65625 -9.59375 L 11.125 -9.59375 L 8.796875 -3.375 L 13.65625 -2.6875 L 13.59375 0 L -0.734375 0 L -1.046875 -1.6875 C 0.00390625 -2.351562 1.457031 -3.054688 3.3125 -3.796875 L 14.96875 -32.40625 L 14.328125 -34.046875 L 21.234375 -35.9375 L 34.515625 -3.21875 Z M 22.140625 -13.59375 L 17.390625 -26.03125 L 12.65625 -13.59375 Z M 22.140625 -13.59375 "/></g></g></g></g></g></svg>