<svg viewBox="50.30000000000007 89.1223776223776 930.5499999999997 527.2027972027973" xmlns="http://www.w3.org/2000/svg" overflow="visible" xmlns:xlink="http://www.w3.org/1999/xlink" width="930.5499999999997px" height="527.2027972027973px"><g id="Master/404/Desk" stroke="none" stroke-width="1" fill="none" fill-rule="evenodd"><path d="M384.035438,609 L862,609 C790.485455,268.333333 725.671678,98 667.558668,98 C580.389153,98 548.477589,204.062097 500.661973,245.023502 C452.846356,285.984906 425.045654,304.070738 346.865808,274.54712 C268.685962,245.023502 106,257.542689 106,356.481442 C106,422.440611 128.86294,506.5061 174.58882,608.67791 L384.035438,609 Z" id="BG" fill="#FBF9FF"/><g id="Rock/Big" transform="translate(637.000000, 445.000000) scale(-1, 1) translate(-637.000000, -445.000000) translate(304.000000, 283.000000) scale(1 1)"><g id="Rock/Big/Purple 5" stroke="none" stroke-width="1" fill="none" fill-rule="evenodd"><path d="M-3.63797881e-12,323.807795 C49.0182897,274.769304 102.501716,211.393183 160.450279,133.679433 C247.373124,17.1088076 594.85992,238.379937 634.329919,265.711413 C660.643251,283.932397 670.559606,303.361926 664.078985,324 L-3.63797881e-12,323.807795 Z" id="Path-8" fill="#6236FF"/></g></g><g id="Rock/Small" transform="translate(71.000000, 408.000000) scale(1.3614457831325302 1.3581081081081081)"><g id="Rock/Small/Gray 6" stroke="none" stroke-width="1" fill="none" fill-rule="evenodd"><path d="M60,148.261821 L261.941067,148.261821 C276.270736,109.399871 276.270736,84.8223492 261.941067,74.5292559 C240.446564,59.089616 150.044645,119.382867 115.745604,119.382867 C92.8795776,119.382867 74.2977095,129.009185 60,148.261821 Z" id="Path-10" fill="#CFCDD6" transform="translate(166.344159, 110.130911) scale(-1, 1) translate(-166.344159, -110.130911)"/></g></g><g id="Spots" transform="translate(1.000000, 219.000000) scale(1.3624454148471616 1.3625)"><g id="Spots/Texture 3" stroke="none" stroke-width="1" fill="none" fill-rule="evenodd"><g id="Group-Copy" style="mix-blend-mode:multiply" transform="translate(43.000000, 31.000000)" fill="#CEC6DD"><g id="Group-67"><path d="M107.368421,61.5652037 C107.928166,57.3927895 108.292172,53.1788416 109.106034,49.0548835 C109.770516,45.6871863 112.806188,43.0601748 115.642686,43.1207449 C118.753906,43.1865067 121.094189,44.9534229 122.053997,47.8088702 C123.729797,52.8015764 125.446806,57.8565834 126.324197,63.0292694 C127.529538,70.1384678 128.036055,77.3757287 128.715991,84.5697252 C129.231093,90.052184 128.223209,91.9921576 124.674152,93.1187613 C120.728466,94.371697 116.664306,92.7916828 114.23989,89.0778708 C109.849499,82.3580515 108.594365,74.7106446 107.845749,66.931714 C107.6792,65.1821036 107.821711,63.4030734 107.821711,61.6396184 C107.670615,61.6136598 107.519518,61.5911623 107.368421,61.5652037" id="Fill-3"/><path d="M144,109.1134 C142.295948,122.217586 139.618899,134.87591 136.175984,147.367034 C134.780019,152.433498 130.20049,154.380665 127.084808,151.341483 C125.861163,150.148452 125.088335,147.929588 125.069188,146.167036 C125.013489,140.680834 125.067448,135.145866 125.721915,129.70843 C126.71754,121.44081 128.136133,113.21499 129.599981,105.013553 C130.482467,100.062037 132.884501,98.4928095 137.57717,98.5886003 C139.892174,98.6373665 141.336876,99.4402679 141.973937,101.573791 C142.720656,104.067836 143.329867,106.598456 144,109.1134" id="Fill-5"/><path d="M97.3085062,162.3585 C97.3754535,165.281747 97.1771378,167.254528 95.0739799,168.537782 C92.9657693,169.826078 90.8638746,169.693719 89.8318746,167.485211 C86.4440851,160.23193 83.2078746,152.875282 85.2870325,144.522789 C85.8605062,142.224782 86.7624009,140.16124 89.2571378,139.242289 C91.9691378,138.243923 94.8794535,139.659535 95.5704009,142.428993 C95.7245062,143.04919 95.7447167,143.703423 95.7990325,144.343789 C96.282822,150.103303 96.7602956,155.864078 97.2415588,161.623592 C97.283243,162.135381 97.3350325,162.647169 97.3085062,162.3585" id="Fill-9"/><path d="M56.367403,154.716049 C56.367403,150.097162 56.3578806,145.480095 56.3788299,140.861208 C56.3826388,140.125971 56.415015,139.361617 56.6302215,138.666418 C57.3863009,136.176805 59.0051107,134.218601 61.7285202,133.912859 C64.3167114,133.621676 66.2497608,135.319636 66.9715595,137.519886 C68.1180577,141.017719 69.5730821,144.682982 69.4683356,148.239052 C69.2226574,156.523202 68.2247087,164.792793 67.3200797,173.047824 C67.0363119,175.66119 64.2538635,177.881458 61.9380132,177.996112 C59.7288139,178.107125 56.9920731,175.8268 56.7254456,172.980488 C56.1579099,166.914787 55.9388945,160.818148 55.5789474,154.734247 C55.8417659,154.728788 56.1045844,154.721508 56.367403,154.716049" id="Fill-11"/><path d="M77.0526316,104.392669 C77.8442467,94.3398032 80.5843183,84.5719383 83.6808788,74.8542937 C84.7119006,71.6238675 86.5240526,70.6897683 90.1972863,70.8743282 C93.2064721,71.0249894 94.9207644,72.5039797 95.4991851,75.3790968 C96.7923312,81.8110726 95.3209407,88.1300525 94.0260471,94.4565655 C92.7853259,100.524444 91.5306248,106.591066 90.2444687,112.653922 C90.0609818,113.512691 89.9631221,114.504543 89.2990741,115.159919 C87.7927337,116.651465 85.7097201,117.812811 82.9696485,117.413559 C80.4742261,117.049461 78.9661382,115.583026 78.5764469,113.889344 C77.8564791,110.749314 77.5384351,107.56032 77.0526316,104.392669" id="Fill-36"/><path d="M97.7969612,31.3149784 C97.2389068,35.3847725 96.8748836,39.4933748 96.0592656,43.5125495 C95.3964687,46.7960567 92.3606527,49.3573948 89.5240193,49.3000262 C86.4109342,49.2359084 84.072257,47.5131639 83.1124034,44.7291008 C81.434806,39.8595213 79.7194326,34.9325732 78.8419994,29.8892006 C77.6366018,22.9560398 77.1283431,15.9013926 76.4500923,8.88724082 C75.9332481,3.54183962 76.9411802,1.65036401 80.4921233,0.551924558 C84.4379972,-0.669688594 88.5006333,0.870826335 90.9268822,4.4901084 C95.3174825,11.0419369 96.5709586,18.4981642 97.31961,26.0843144 C97.4878849,27.7884985 97.3436493,29.5230542 97.3436493,31.2441114 C97.4947533,31.2677337 97.6458572,31.2913561 97.7969612,31.3149784" id="Fill-39"/><path d="M53.0623499,80.9366197 C48.8405429,80.3075445 47.4226212,77.4465447 46.6236737,73.9978336 C45.1283803,67.5588607 45.225936,61.0664595 46.1476692,54.5826757 C47.0811763,48.0023763 48.144197,41.4375883 49.2980455,34.8934823 C49.5301608,33.573286 50.419936,32.3720108 51.2861634,30.5140845 C53.3180131,30.8036315 55.8662353,30.4382508 57.4069426,31.5447338 C60.3151117,33.6370553 63.1862768,36.3998159 63.1576829,40.4741553 C63.122361,45.3740482 62.8381039,50.311858 62.155214,55.1583226 C61.3243086,61.0699064 59.7718273,66.8729101 58.912328,72.781047 C58.3471777,76.6537376 56.6534089,79.314812 53.0623499,80.9366197" id="Fill-43"/><path d="M39.1578947,108.508445 C40.2307171,103.176107 41.2220812,97.8247422 42.4162244,92.5200769 C42.873777,90.4947221 43.4578499,88.3275406 46.4146108,88.5108776 C49.151261,88.6803779 51.4268923,89.7959661 52.1288197,92.3851686 C52.8550112,95.0573916 53.1461811,97.9510026 53.0265935,100.723542 C52.728491,107.574465 51.986701,114.406362 51.6348708,121.255554 C51.5014179,123.83265 49.9415792,125.387555 48.0091125,125.856275 C46.0610473,126.331913 43.8200791,125.598565 42.6657985,123.415818 C40.2133856,118.775316 39.3572075,113.809652 39.1578947,108.508445" id="Fill-55"/><path d="M35.3323674,33.1095639 C35.3323674,36.1936785 35.4321316,38.3525588 35.2997522,40.4941987 C35.2057438,42.0400872 35.0215638,43.6434437 34.4939652,45.080143 C33.521265,47.7370791 31.2343645,48.7772494 28.5886969,49.300208 C25.8125686,49.8519006 24.0417555,48.4803316 22.7755186,46.3367761 C22.0004282,45.0226751 21.2944052,43.5457481 21.0449949,42.0611588 C19.7730025,34.4543145 19.8650924,26.862795 21.9486276,19.3900427 C22.8138895,16.2944345 25.5420543,13.8060712 28.1128988,14.160457 C31.0271621,14.5608172 32.9936663,16.3748896 33.4138268,19.5375438 C34.0527008,24.3629381 34.7740721,29.1768388 35.3323674,33.1095639" id="Fill-59"/><path d="M28.3590316,134.360935 C23.3405053,135.295012 21.8297684,134.134033 22.2289263,129.655251 C22.5838737,125.702125 22.9640842,121.691012 23.9796632,117.877808 C24.6466105,115.381892 26.2394526,113.022118 27.8398737,110.922019 C29.1093474,109.258075 30.6415579,109.690449 31.0659789,111.795589 C31.6116632,114.514625 32.1472421,117.373582 31.8731368,120.091357 C31.3754526,125.051674 29.7169263,129.793913 28.3590316,134.360935" id="Fill-61"/><path d="M30.3157895,76.3707561 C29.9657815,80.2533804 29.5529516,84.5229833 29.2029436,88.7980883 C28.9651177,91.6720006 27.0310993,93.388645 23.6499326,93.5353668 C20.3854352,93.6765865 18.6959737,91.624316 18.0610233,89.3666351 C17.1972216,86.2983165 16.3738054,83.1236246 16.4231655,80.0021194 C16.5106675,74.4156888 17.1411306,68.8237562 17.7738373,63.2501637 C18.1597435,59.8517212 20.2597913,58.1754252 23.7307037,58.2487861 C27.5089948,58.327649 28.6599825,60.6000021 28.9875541,63.1437904 C29.5394898,67.3987212 29.8580867,71.6774942 30.3157895,76.3707561" id="Fill-63"/><path d="M65.9279264,19.2710976 C65.7308738,20.1030886 65.4984527,21.0180035 65.3014001,21.9340974 C65.1675053,22.5499357 64.0786632,22.9177881 62.1750843,22.9492285 C60.3371895,22.9794899 59.3860317,22.5397176 59.028558,22.0559288 C58.5422422,21.398432 58.0786632,20.7181409 58.1064527,20.0492469 C58.1557159,18.8521546 58.5106632,17.6538834 58.8668738,16.4595421 C59.0841369,15.7313044 60.2664527,15.3720982 62.220558,15.3878183 C64.3477159,15.4047175 64.9957159,15.8916504 65.1801369,16.4367478 C65.4908738,17.3485187 65.6702422,18.2653987 65.9279264,19.2710976" id="Fill-63-Copy"/><path d="M7.82266323,64.6513793 C7.6256106,65.4833703 7.39318955,66.3982852 7.19613692,67.3143791 C7.06224218,67.9302174 5.97340007,68.2980698 4.06982113,68.3295102 C2.23192639,68.3597715 1.2807685,67.9199993 0.923294811,67.4362105 C0.436979021,66.7787137 -0.026599926,66.0984226 0.00118954765,65.4295286 C0.0504527055,64.2324363 0.405400074,63.0341651 0.7616106,61.8398238 C0.978873758,61.1115861 2.16118955,60.7523798 4.11529481,60.7681 C6.24245271,60.7849992 6.89045271,61.271932 7.07487376,61.8170295 C7.3856106,62.7288004 7.56497902,63.6456803 7.82266323,64.6513793" id="Fill-63-Copy-2"/><path d="M76.0331895,64.6513793 C75.8361369,65.4833703 75.6037159,66.3982852 75.4066632,67.3143791 C75.2727685,67.9302174 74.1839264,68.2980698 72.2803474,68.3295102 C70.4424527,68.3597715 69.4912948,67.9199993 69.1338211,67.4362105 C68.6475053,66.7787137 68.1839264,66.0984226 68.2117159,65.4295286 C68.260979,64.2324363 68.6159264,63.0341651 68.9721369,61.8398238 C69.1894001,61.1115861 70.3717159,60.7523798 72.3258211,60.7681 C74.452979,60.7849992 75.100979,61.271932 75.2854001,61.8170295 C75.5961369,62.7288004 75.7755053,63.6456803 76.0331895,64.6513793" id="Fill-63-Copy-3"/><path d="M122.526316,23.1548713 C122.144489,24.8188532 121.694129,26.648683 121.312302,28.4808708 C121.052856,29.7125475 118.943017,30.4482523 115.254472,30.511133 C111.693202,30.5716558 109.850153,29.6921113 109.15748,28.7245337 C108.215151,27.4095401 107.316879,26.0489578 107.370726,24.7111699 C107.466183,22.3169854 108.153961,19.9204428 108.844186,17.5317603 C109.265175,16.0752849 111.556136,15.3568724 115.342586,15.3883127 C119.464358,15.4221111 120.719981,16.3959768 121.077332,17.4861718 C121.679443,19.3097135 122.027004,21.1434734 122.526316,23.1548713" id="Fill-63-Copy-4"/><path d="M65.9279264,121.376731 C65.7308738,122.208722 65.4984527,123.123637 65.3014001,124.039731 C65.1675053,124.65557 64.0786632,125.023422 62.1750843,125.054862 C60.3371895,125.085124 59.3860317,124.645351 59.028558,124.161563 C58.5422422,123.504066 58.0786632,122.823775 58.1064527,122.154881 C58.1557159,120.957788 58.5106632,119.759517 58.8668738,118.565176 C59.0841369,117.836938 60.2664527,117.477732 62.220558,117.493452 C64.3477159,117.510351 64.9957159,117.997284 65.1801369,118.542382 C65.4908738,119.454153 65.6702422,120.371032 65.9279264,121.376731" id="Fill-63-Copy-5"/><path d="M43.1910843,149.109126 C42.9940317,149.941117 42.7616106,150.856032 42.564558,151.772126 C42.4306632,152.387964 41.3418211,152.755816 39.4382422,152.787257 C37.6003474,152.817518 36.6491895,152.377746 36.2917159,151.893957 C35.8054001,151.23646 35.3418211,150.556169 35.3696106,149.887275 C35.4188738,148.690183 35.7738211,147.491912 36.1300317,146.29757 C36.3472948,145.569333 37.5296106,145.210126 39.4837159,145.225847 C41.6108738,145.242746 42.2588738,145.729679 42.4432948,146.274776 C42.7540317,147.186547 42.9334001,148.103427 43.1910843,149.109126" id="Fill-63-Copy-6"/><path d="M115.191084,130.200675 C114.994032,131.032666 114.761611,131.947581 114.564558,132.863675 C114.430663,133.479513 113.341821,133.847366 111.438242,133.878806 C109.600347,133.909067 108.64919,133.469295 108.291716,132.985506 C107.8054,132.328009 107.341821,131.647718 107.369611,130.978824 C107.418874,129.781732 107.773821,128.583461 108.130032,127.38912 C108.347295,126.660882 109.529611,126.301676 111.483716,126.317396 C113.610874,126.334295 114.258874,126.821228 114.443295,127.366325 C114.754032,128.278096 114.9334,129.194976 115.191084,130.200675" id="Fill-63-Copy-7"/></g></g></g></g><g id="Spot-1" transform="translate(682.000000, 144.000000)" fill="#CEC6DD"><path d="M80,92.3659304 C79.5582069,95.6772656 79.2700219,99.0201764 78.6243243,102.290326 C78.0996101,104.961909 75.6962558,107.045908 73.4505876,106.999231 C70.986062,106.947062 69.1346092,105.545374 68.3747251,103.280157 C67.0466271,99.3180868 65.6886232,95.3093394 64.9939885,91.2058649 C64.0397155,85.5647886 63.637344,79.8248665 63.1003955,74.117893 C62.6912271,69.7686767 63.4891734,68.2297021 66.3003367,67.3359711 C69.4241535,66.3420215 72.6404071,67.5954414 74.5611874,70.5402233 C78.0370794,75.8710335 79.0294146,81.937696 79.622097,88.1100686 C79.7553146,89.4966558 79.6411281,90.9079545 79.6411281,92.3082704 C79.7607521,92.3274904 79.880376,92.3467104 80,92.3659304" id="Fill-39-Copy" style="mix-blend-mode:multiply"/><path d="M12,35.3964809 C13.4391091,27.1765416 15.6999362,19.2362811 18.6060839,11.4009003 C19.7864768,8.22282966 23.6539906,7.00141921 26.2852523,8.9078246 C27.3171773,9.65618432 27.9713178,11.0480241 27.9860176,12.15363 C28.0330569,15.5949922 27.9874875,19.0669443 27.4347756,22.4777166 C26.5954178,27.6637947 25.3973852,32.8225605 24.1596632,37.9682164 C23.414384,41.0741823 21.3858135,42.0585211 17.4242211,41.9973414 C15.4691496,41.967844 14.2490673,41.4631108 13.7095851,40.1248033 C13.0804343,38.5614417 12.5659418,36.9729526 12,35.3964809" id="Fill-41-Copy" style="mix-blend-mode:multiply"/><path d="M47.0076937,123 C43.6654298,122.500957 42.5429085,120.231337 41.9104083,117.495488 C40.7266344,112.387476 40.803866,107.23708 41.5335714,102.093519 C42.2725979,96.8733935 43.114156,91.6655729 44.0276193,86.4741591 C44.2113773,85.4268526 44.9157827,84.4738857 45.601546,83 C47.2100937,83.2296965 49.2274363,82.9398414 50.4471629,83.8176101 C52.7494634,85.4774405 55.0224692,87.6691277 54.9998323,90.9012852 C54.9718692,94.7883511 54.7468323,98.7054963 54.2062111,102.550178 C53.5484109,107.239814 52.3193633,111.843314 51.6389263,116.530216 C51.1915157,119.602406 49.8506154,121.713426 47.0076937,123" id="Fill-43-Copy" style="mix-blend-mode:multiply"/><path d="M51.0112526,10.5920171 C50.938775,7.42264433 51.1562077,5.28376191 53.4782775,3.89246332 C55.8045287,2.49569794 58.123811,2.63920123 59.2611513,5.03228948 C63.0007151,12.8976366 66.5716292,20.8736863 64.2760416,29.9294275 C63.6446504,32.420918 62.6494777,34.6582026 59.8967238,35.6531588 C56.9028427,36.7355836 53.6915288,35.2021484 52.9305144,32.1995129 C52.7604708,31.5270974 52.73817,30.8177812 52.6782367,30.1221319 C52.1430177,23.8790553 51.6175553,17.6332453 51.0865177,11.388802 C51.0391285,10.8339226 50.9819828,10.2790432 51.0112526,10.5920171" id="Fill-45-Copy" style="mix-blend-mode:multiply"/><path d="M86.4880692,43.7202923 C86.4880692,46.4422285 86.4954707,49.1641648 86.4806678,51.886101 C86.4782007,52.3193801 86.45723,52.7698187 86.3190704,53.1795033 C85.8281103,54.6455738 84.7795775,55.8006271 83.0168087,55.9808025 C81.3391561,56.1523982 80.0870845,55.151781 79.6195622,53.8540888 C78.8769542,51.7938683 77.9345082,49.6339079 78.003588,47.5382959 C78.1614847,42.6563992 78.8078744,37.7830823 79.3938192,32.9183452 C79.5788544,31.3782741 81.3798638,30.0698572 82.8798826,30.0022914 C84.3120552,29.9368706 86.0846925,31.2806791 86.257392,32.9580267 C86.6237617,36.5325789 86.7656221,40.1242907 87,43.7106401 C86.828534,43.7138575 86.6595352,43.7170749 86.4880692,43.7202923" id="Fill-47-Copy" style="mix-blend-mode:multiply"/><path d="M29.9785932,72.9077003 C29.9785932,75.0047998 30.0378281,76.4727694 29.9592279,77.9290162 C29.9034104,78.980171 29.7940535,80.0704022 29.4807918,81.047312 C28.9032511,82.8539436 27.5454039,83.5612263 25.9745388,83.9168214 C24.3262126,84.2919547 23.2747923,83.3593316 22.5229642,81.9017823 C22.0627542,81.0082356 21.6435531,80.0039724 21.4954658,78.994499 C20.7402202,73.8220878 20.7948986,68.6600969 22.0319976,63.5788638 C22.5457469,61.4739491 24.1655948,59.7819414 25.6920337,60.0229125 C27.4223775,60.2951447 28.5899894,61.528656 28.8394596,63.6791599 C29.2187911,66.960274 29.6471053,70.2335728 29.9785932,72.9077003" id="Fill-59-Copy" style="mix-blend-mode:multiply"/><path d="M52,53.5944796 C51.7984803,54.3644972 51.5607903,55.2112621 51.3592706,56.0591181 C51.2223405,56.6290839 50.1088148,56.9695357 48.1620824,56.9986342 C46.2825233,57.0266414 45.309803,56.6196269 44.9442255,56.1718746 C44.4468852,55.5633533 43.9727971,54.9337356 44.0012165,54.3146661 C44.0515964,53.2067428 44.4145903,52.0977282 44.778876,50.9923509 C45.0010644,50.3183581 46.2101829,49.9859083 48.208587,50.0004576 C50.3839667,50.016098 51.0466566,50.4667602 51.2352584,50.9712545 C51.5530396,51.8151095 51.7364742,52.663693 52,53.5944796" id="Fill-63-Copy-9" style="mix-blend-mode:multiply"/><path d="M86,3.59447957 C85.7984803,4.36449724 85.5607903,5.21126206 85.3592706,6.05911807 C85.2223405,6.62908391 84.1088148,6.96953575 82.1620824,6.99863419 C80.2825233,7.02664145 79.309803,6.61962692 78.9442255,6.17187455 C78.4468852,5.56335327 77.9727971,4.93373561 78.0012165,4.31466614 C78.0515964,3.20674276 78.4145903,2.09772818 78.778876,0.992350902 C79.0010644,0.318358112 80.2101829,-0.0140916507 82.208587,0.000457573043 C84.3839667,0.0160979886 85.0466566,0.466760194 85.2352584,0.971254527 C85.5530396,1.8151095 85.7364742,2.66369298 86,3.59447957" id="Fill-63-Copy-10" style="mix-blend-mode:multiply"/><path d="M8,55.5944796 C7.79848026,56.3644972 7.56079031,57.2112621 7.35927057,58.0591181 C7.22234049,58.6290839 6.10881476,58.9695357 4.16208241,58.9986342 C2.2825233,59.0266414 1.30980302,58.6196269 0.944225549,58.1718746 C0.446885168,57.5633533 -0.0272029361,56.9337356 0.00121651424,56.3146661 C0.051596449,55.2067428 0.414590338,54.0977282 0.77887602,52.9923509 C1.00106445,52.3183581 2.21018288,51.9859083 4.20858696,52.0004576 C6.38396671,52.016098 7.04665662,52.4667602 7.23525843,52.9712545 C7.55303955,53.8151095 7.73647419,54.663693 8,55.5944796" id="Fill-63-Copy-11" style="mix-blend-mode:multiply"/><path d="M66,121.540491 C65.9244301,121.870499 65.8352964,122.233398 65.7597265,122.596765 C65.7083777,122.841036 65.2908055,122.986944 64.5607809,122.999415 C63.8559462,123.011418 63.4911761,122.836983 63.3540846,122.645089 C63.1675819,122.384294 62.9897989,122.114458 63.0004562,121.849143 C63.0193487,121.374318 63.1554714,120.899026 63.2920785,120.425293 C63.3753992,120.136439 63.8288186,119.993961 64.5782201,120.000196 C65.3939875,120.006899 65.6424962,120.20004 65.7132219,120.416252 C65.8323898,120.777904 65.9011778,121.141583 66,121.540491" id="Fill-63-Copy-12" style="mix-blend-mode:multiply"/></g><g transform="translate(88.000000, 30.000000) scale(1 0.9995667244367418)" id="Master/Character/In the Desk"><g id="Master/Character/In the Desk" stroke="none" stroke-width="1" fill="none" fill-rule="evenodd"><g id="Head" transform="translate(233.000000, 301.000000) scale(1 1)" fill="#000"><g id="Head/Curly Hair" stroke="none" stroke-width="1" fill="none" fill-rule="evenodd"><g id="Group-3" transform="translate(-10.000000, -20.000000)" fill="#000"><path d="M33.1884,9.9946 C33.3714,8.4806 33.5124,7.3196 31.9334,5.9256 C32.7584,5.8726 33.1454,5.4916 33.7584,5.8416 C35.3064,6.7236 34.7434,8.7316 33.1884,9.9946 M27.3204,4.0196 C27.3644,2.9206 26.6504,2.0096 25.3934,0.8076 C26.9794,1.1646 28.1734,2.6426 27.3204,4.0196 M14.6004,5.0086 C15.4894,3.2846 17.0414,2.4146 19.1524,3.5286 C18.0224,3.9636 16.2904,3.3896 14.6004,5.0086 M6.1884,9.0686 C5.4584,6.9276 6.2354,5.7336 8.4804,5.5986 C7.3274,6.2986 6.2944,7.1196 6.1884,9.0686 M4.7014,22.1926 C3.6434,22.7466 2.2824,24.1786 3.9754,26.7826 C3.0434,26.1726 1.6544,25.3356 1.0564,24.3836 C0.4894,23.4796 0.6384,22.2846 0.6134,21.2306 C0.5404,18.2416 2.1264,16.1396 5.4374,14.8896 C4.4114,17.5586 3.3734,20.0986 4.7014,22.1926 M35.2014,10.9276 C35.7864,11.2656 36.2274,12.1976 35.9404,12.8096 C35.8614,12.9776 35.5744,13.2426 35.3994,13.3066 C35.5704,12.7046 35.3244,11.7366 34.6814,11.4106 C34.5854,11.0676 34.5074,10.5266 35.2014,10.9276 M43.0844,26.5356 C43.0224,26.3316 43.0844,25.2686 42.4164,24.5996 C41.8664,24.0506 41.0054,24.1506 40.4454,23.6146 C38.6134,21.8616 37.9014,18.9086 34.4524,19.7496 C34.6074,19.1636 34.5904,18.7566 34.7844,18.5736 C36.5154,16.9426 35.0034,14.4016 36.4544,12.6406 C36.6584,12.3946 36.0294,11.3606 35.6534,10.7766 C35.4304,10.4316 34.9454,10.2566 34.6944,10.0836 C35.3094,8.4316 35.6884,6.8616 34.0834,5.6566 C34.0884,5.6566 32.5614,5.0596 31.7204,4.8366 C30.5404,4.5216 29.3304,4.3216 27.9724,4.0396 C28.6444,2.1726 27.6754,1.3776 26.4964,0.7036 C24.4214,-0.4814 22.0954,-0.1514 19.8284,1.5556 C19.2264,2.0086 18.4724,2.5876 17.8104,2.5596 C16.6364,2.5116 15.8784,3.0386 15.0344,3.6586 C13.5644,4.7396 12.0484,5.5826 10.0874,4.7286 C8.8514,4.1916 6.6214,5.1016 5.6774,6.3266 C4.7164,7.5746 4.9464,8.8366 5.5954,10.1366 C6.0744,11.0946 7.5424,11.8976 6.8534,12.9976 C6.3574,13.7886 5.0424,14.1276 4.0364,14.5276 C-0.0816,16.1676 -1.0616,21.8666 1.1564,24.9626 C1.1564,24.9606 1.1554,24.9586 1.1554,24.9566 C1.3394,25.4226 1.9154,25.8716 2.1264,26.0086 C3.1794,26.6866 4.1354,27.1076 5.0084,27.9476 C5.9414,28.8466 6.4144,30.2046 7.2324,31.2506 C7.5954,31.7126 8.3354,31.8616 8.8604,32.2196 C9.3344,32.5416 9.5454,34.2656 11.6744,35.0996 C12.0494,35.2466 12.3204,35.5876 12.3944,35.9836 C12.5964,37.0706 12.7924,38.1276 13.0004,39.2446 C10.5214,40.6816 9.8834,41.8906 10.2734,44.4176 C10.6754,47.0226 12.6674,48.2006 14.8474,49.4066 C14.3874,53.5056 14.0544,57.5626 13.4464,61.5786 C12.8274,65.6786 11.9454,69.7376 11.1604,73.8106 C10.9764,74.7606 10.7184,75.6936 12.1944,76.3106 C12.4834,75.5136 12.8374,74.8216 12.9814,74.0896 C13.5824,71.0356 14.2164,67.9836 14.6604,64.9056 C15.3654,60.0116 15.9284,55.0966 16.5504,50.1896 C16.7434,48.6686 16.3504,47.6116 14.6674,47.1336 C13.2954,46.7436 12.3944,45.6936 12.1224,44.2186 C11.8624,42.8066 12.2654,41.5986 13.1794,41.3186 C14.5304,40.9056 14.7124,42.1096 15.1844,42.8796 C15.7484,43.8026 16.3304,44.6656 17.7774,44.1136 C18.1024,42.8946 18.3364,41.5596 18.8154,40.3206 C19.5214,38.4986 20.4324,36.7576 21.1974,34.9576 C21.9254,33.2436 21.9154,31.4656 24.0094,31.1106 C24.3664,31.0506 25.2414,31.8146 26.1424,31.1816 C27.0694,30.5296 27.2334,29.6066 28.2654,29.6106 C28.8554,29.6126 29.6494,29.7966 30.2384,29.5986 C30.8234,29.4006 31.1894,28.5626 31.7894,28.4786 C32.7694,28.3416 33.3544,27.8716 34.6334,28.1836 C35.3774,28.3656 35.3614,29.2726 36.8904,29.3156 C38.2784,29.3556 37.9174,30.0006 38.3334,31.1106 C38.5254,31.6246 39.6604,31.9336 39.8474,32.4486 C40.4334,34.0606 41.0764,35.8256 41.0584,37.4446 C40.9834,44.2076 39.7424,50.7766 36.7444,56.9196 C35.5724,59.3196 34.2664,59.9256 31.7014,59.2806 C30.8994,59.0796 29.6464,58.5746 28.9194,58.1826 C27.5754,57.4556 26.2424,56.7076 24.9284,55.9296 C24.3114,55.5626 23.6794,54.8576 23.0784,55.6456 C22.6964,56.1466 22.8954,56.5526 23.2304,56.8836 C24.0734,57.7136 25.6864,58.7656 26.7474,59.2866 C29.4304,60.6046 32.1894,61.7576 35.2934,61.0436 C35.8834,62.8646 36.4404,64.4436 36.9064,66.0506 C37.6834,68.7326 38.3924,71.4346 39.1494,74.1236 C39.4164,75.0686 39.4144,76.1916 40.5064,76.6556 C41.6704,76.0836 41.2044,75.2606 41.0024,74.5296 C39.8334,70.2986 38.6724,66.0646 37.4374,61.8526 C37.1244,60.7856 37.1454,59.9476 37.7394,58.9326 C39.3564,56.1666 40.5794,53.2066 41.2214,50.0506 C41.8094,47.1566 42.2964,44.2416 42.8504,41.3416 C42.9664,40.7316 43.0194,40.0076 43.3804,39.5646 C45.0644,37.5056 45.2794,35.1406 45.2854179,32.6036 C45.2914,29.9916 43.7914,28.8476 43.0844,26.5356" id="Fill-1"/></g></g></g><g id="Face" transform="translate(247.000000, 313.000000) scale(1 1)" fill="#000"><g id="Face/Goofy" stroke="none" stroke-width="1" fill="none" fill-rule="evenodd"><g id="Group-23" transform="translate(-1.000000, 0.000000)" fill="#000"><path d="M8.7233,0.1249 C9.3823,0.8079 8.7923,2.8659 8.2713,3.0659 C6.7873,3.6359 2.2503,3.5029 0.1243,6.7559 C0.3143,5.6829 0.5983,4.2539 1.9633,3.3609 C3.9663,2.0509 7.4063,2.3699 8.7233,0.1249" id="Fill-1"/><path d="M8.81325468,0.0381062464 L8.61548299,0.0616505555 C8.03597228,1.0495029 7.21174692,1.50712172 5.37757121,2.02425664 L3.94799062,2.41082907 C2.96370036,2.6895016 2.43550214,2.90271071 1.89488117,3.25628708 C0.734914175,4.01515193 0.312848833,4.97419254 0.00121477912,6.73410485 C-0.0225019433,6.86804192 0.154521721,6.93814508 0.228935366,6.8242845 C1.05303986,5.56331935 2.28715159,4.73690856 3.91691432,4.19483053 C4.35660095,4.04858565 4.81400928,3.92595528 5.32226596,3.81360175 L5.90180986,3.69438393 C6.38047834,3.60322727 7.25504854,3.44704634 7.28618847,3.44115068 L7.65764719,3.36638299 C7.93690626,3.30586156 8.14499964,3.24831516 8.31611969,3.18258845 C9.00899484,2.91660951 9.46762863,0.71631172 8.81325468,0.0381062464 Z M8.73,0.349 L8.75103039,0.385755539 C9.09173298,1.09410048 8.70506061,2.7654955 8.22650267,2.94920296 C8.06810849,3.01004169 7.86947633,3.06477301 7.59964219,3.12312735 L5.66408599,3.48598929 C4.98518007,3.62290901 4.39843513,3.77120498 3.83801148,3.9576084 L3.52786292,4.06586546 C2.20417046,4.55049872 1.14449967,5.23904668 0.356,6.221 L0.399372111,6.03061924 C0.690796888,4.79952474 1.11745114,4.06363823 2.03173301,3.46550365 C2.54732777,3.1282949 3.06050913,2.92170834 4.02556647,2.64874125 L5.45923854,2.26100135 C7.17428759,1.77660227 8.04387406,1.33507148 8.65435076,0.464157783 L8.73,0.349 Z" id="Stroke-3" fill-rule="nonzero"/><polygon id="Fill-5" points="10.5104 5.8837 12.0214 11.8577 9.8194 12.0777"/><path d="M9.69517066,12.063841 L9.83182678,12.2020808 L12.0338268,11.9820808 L12.1425838,11.8270491 L10.6315838,5.85304905 C10.5974613,5.71813968 10.4015993,5.73154119 10.3861707,5.86984103 L9.69517066,12.063841 Z M10.558,6.581 L11.864,11.747 L9.96,11.938 L10.558,6.581 Z" id="Stroke-7" fill-rule="nonzero"/><path d="M9.235,14.6522 C8.913,14.6522 8.603,14.6002 8.306,14.4962 C7.05,14.0512 6.507,12.8322 6.485,12.7802 C6.449,12.6952 6.487,12.5962 6.572,12.5592 C6.657,12.5222 6.756,12.5612 6.793,12.6462 C6.797,12.6582 7.303,13.7872 8.422,14.1802 C9.165,14.4422 10.015,14.3272 10.95,13.8392 C11.032,13.7962 11.133,13.8282 11.176,13.9102 C11.219,13.9922 11.187,14.0932 11.105,14.1362 C10.446,14.4802 9.82,14.6522 9.235,14.6522" id="Fill-9"/><path d="M5.5778,8.8182 C4.4998,8.8832 3.4308,8.4252 2.7238,8.0292 C2.1858,7.7272 1.7698,7.4152 1.5638,7.2502 C1.9208,6.9382 2.9718,6.1322 4.5188,5.8772 C4.4698,6.0632 4.4398,6.3022 4.4398,6.4602 C4.4398,7.3692 5.2798,8.1052 6.3158,8.1052 C7.3248,8.1052 8.1468,7.4082 8.1908,6.5342 C8.5118,6.7002 8.7588,6.8562 8.9018,6.9532 C8.5468,7.3822 7.3128,8.7112 5.5778,8.8182 M9.2438,6.7832 C9.1748,6.7302 7.5108,5.4872 5.5578,5.4632 C2.8738,5.4282 1.2568,7.0702 1.1888,7.1392 C1.1568,7.1722 1.1408,7.2162 1.14175586,7.2622 C1.1438,7.3082 1.1648,7.3512 1.1988,7.3812 C1.2208,7.4012 1.7478,7.8652 2.5528,8.3172 C3.2508,8.7102 4.2868,9.1602 5.3658,9.1602 C5.4428,9.1602 5.5208,9.1582 5.5988,9.1532 C7.8228,9.0152 9.2218,7.0962 9.2788,7.0142 C9.3318,6.9412 9.3168,6.8392 9.2438,6.7832" id="Fill-11"/><path d="M5.55933598,5.33820944 C7.06802287,5.35674937 8.46022785,6.02370663 9.31988246,6.68402108 C9.44624936,6.78096006 9.47304468,6.95941691 9.38143866,7.08554638 C9.20039895,7.34598947 8.82316459,7.76589188 8.3294509,8.16035735 C7.52400592,8.8038887 6.61100399,9.21563279 5.60679641,9.27794397 C5.52965281,9.28288907 5.44979734,9.2852 5.3658,9.2852 C4.41357776,9.2852 3.4310466,8.95513692 2.49160093,8.42619392 C1.87404792,8.07944365 1.36101616,7.69760183 1.1160973,7.47492973 C1.0565008,7.42234459 1.02042091,7.34745181 1.01671536,7.26479688 C1.0151298,7.18524543 1.04387954,7.10908914 1.09976885,7.05145916 C1.33871234,6.8090018 1.71350427,6.50517652 2.25950344,6.19348579 C3.13993597,5.69087944 4.14236601,5.37753013 5.25366037,5.34118819 L5.55933598,5.33820944 Z M5.55617011,5.58818937 C4.36994242,5.57272068 3.3072545,5.88323113 2.3834456,6.41059945 C1.85945902,6.70972401 1.50188745,6.99958959 1.27853755,7.22621823 C1.27072003,7.23428005 1.26643836,7.24562193 1.26662629,7.25665074 C1.26715017,7.26829745 1.27260421,7.27961865 1.2828841,7.28870749 L1.4757727,7.45141193 C1.7424329,7.66374824 2.14746624,7.94625227 2.6141271,8.20827807 C3.51957337,8.71807805 4.46358141,9.0352 5.3658,9.0352 C5.44469155,9.0352 5.51926254,9.033042 5.59105859,9.02843995 C7.22392864,8.92711977 8.5125196,7.8975663 9.1776481,6.94076095 C9.1908166,6.92262321 9.18699428,6.89716656 9.1676556,6.88233138 C8.39825314,6.29134108 7.16494419,5.68660565 5.82546868,5.5987193 L5.55617011,5.58818937 Z M4.49846994,5.75386432 L4.63967589,5.90904365 C4.59508574,6.07830422 4.5648,6.30669763 4.5648,6.4602 C4.5648,7.29603994 5.34521946,7.9802 6.3158,7.9802 C7.20555673,7.9802 7.93952505,7.40454898 8.05255251,6.66082264 L8.0659581,6.52791505 L8.24821845,6.42316793 C8.45740573,6.53134577 8.64935276,6.64220952 8.81517925,6.74713157 L8.97196999,6.84975353 L8.99810309,7.03289137 C8.16594268,8.03851621 6.99971441,8.85574593 5.58532344,8.94297339 C4.63532624,9.00025522 3.63266779,8.6815412 2.66261356,8.13820101 C2.30043995,7.93489909 1.97023878,7.7157976 1.68804694,7.50445061 L1.48565538,7.34776238 L1.48154293,7.15607893 C2.20968604,6.51971857 3.23470125,5.96217785 4.49846994,5.75386432 Z M1.83820377,7.30456329 C2.04357989,7.45835767 2.27553085,7.616652 2.52707212,7.76949065 L2.78488482,7.92014201 C3.71686164,8.44215449 4.67682993,8.74729863 5.57010568,8.69343703 C6.81631747,8.61658132 7.87312407,7.92580477 8.65319781,7.05083184 L8.713,6.98 L8.51295048,6.85528162 L8.292,6.73 L8.27692496,6.81793931 C8.09989663,7.58363124 7.36620148,8.16271786 6.47468377,8.22469757 L6.3158,8.2302 C5.21393367,8.2302 4.3148,7.44196831 4.3148,6.4602 C4.3148,6.37257045 4.32308038,6.26631097 4.33761109,6.15823316 L4.357,6.035 L4.24086651,6.0573332 C3.26266279,6.26897479 2.44573774,6.69869617 1.82602018,7.19393609 L1.763,7.246 L1.83820377,7.30456329 Z" id="Stroke-13" fill-rule="nonzero"/><path d="M14.7897,8.3964 C13.3837,8.4974 11.9767,7.3154 11.5587,6.9304 C11.6477,6.8524 11.7837,6.7404 11.9597,6.6144 C12.1597,7.2514 12.7157,7.7704 13.3797,7.7704 C14.2127,7.7704 14.8887,7.0944 14.8887,6.2604 C14.8887,5.9904 14.8437,5.7694 14.7347,5.5704 C14.8417,5.5624 14.9487,5.5584 15.0587,5.5584 L15.0597,5.5584 C16.1617,5.5584 17.1657,6.3564 17.4797,6.6334 C17.2047,7.0244 16.2037,8.2944 14.7897,8.3964 M17.8177,6.4884 C17.7667,6.4364 16.5257,5.2234 15.0597,5.2234 L15.0587,5.2234 C12.7797,5.2234 11.2577,6.7464 11.1937,6.8104 C11.1307,6.8754 11.1307,6.9794 11.1937,7.0444 C11.2117,7.0634 11.6437,7.5034 12.3027,7.9334 C13.1117,8.4614 13.9097,8.7374 14.6227,8.7374 C14.6867,8.7374 14.7507,8.7354 14.8137,8.7304 C16.6477,8.5994 17.7947,6.7724 17.8427,6.6954 C17.8837,6.6284 17.8737,6.5424 17.8177,6.4884" id="Fill-15"/><path d="M15.0597,5.0984 C16.210087,5.0984 17.2793454,5.76097119 17.9044669,6.39841946 C18.0028215,6.49326134 18.0208071,6.64382665 17.9487771,6.76152599 C17.3173074,7.7745087 16.2598877,8.75241935 14.8235895,8.85500817 C14.7600387,8.86005189 14.693509,8.8624 14.6227,8.8624 C13.8826721,8.8624 13.0617029,8.5780361 12.2343923,8.03808552 C11.8556413,7.79094905 11.5303157,7.53064551 11.2792163,7.29984838 L11.1039415,7.13139666 C10.9939528,7.01791623 10.9939528,6.83688377 11.1053117,6.72201165 C11.3343624,6.49296094 11.6872258,6.20536295 12.189245,5.91018392 C12.9655663,5.45371976 13.8241991,5.16134611 14.7482743,5.10743603 L15.0597,5.0984 Z M15.0597,5.3484 L14.7633613,5.35704072 C13.881074,5.40859577 13.0599394,5.6882434 12.3159597,6.12569118 C11.8343443,6.4088731 11.4972935,6.68358315 11.2834585,6.89739666 C11.2727843,6.90840971 11.2692262,6.9240663 11.2724368,6.93782132 L11.2822858,6.95620956 L11.3139365,6.98801058 C11.5667381,7.23703442 11.9319232,7.54221016 12.371019,7.82872185 C13.1603651,8.34389459 13.9355502,8.6124 14.6227,8.6124 C14.6872244,8.6124 14.7472342,8.61028201 14.8047941,8.60571766 C16.1376182,8.51051594 17.1441977,7.5796228 17.7360791,6.63015439 C17.7468213,6.61260004 17.7442699,6.5912411 17.7284577,6.57592608 C17.1828736,6.01964428 16.2587246,5.43244357 15.2719867,5.3566225 L15.0597,5.3484 Z M15.0597,5.4334 C15.9024171,5.4334 16.7201997,5.84528399 17.3963685,6.39855483 L17.5623928,6.53966156 L17.581944,6.70531076 C16.9144751,7.65433029 15.9617948,8.43717482 14.7986563,8.52107873 C13.7143391,8.59897064 12.6046481,8.00896882 11.660567,7.18922525 L11.4740155,7.02234314 L11.4763122,6.83639337 C11.5527892,6.76936852 11.6399323,6.69789004 11.7361063,6.62434071 L11.886936,6.51276141 L12.0789599,6.57695576 C12.2737483,7.19735662 12.8023057,7.6454 13.3797,7.6454 C14.1438062,7.6454 14.7637,7.02522252 14.7637,6.2604 C14.7637,6.05416918 14.7360127,5.88617355 14.6761083,5.73807713 L14.6250685,5.63044942 L14.7253802,5.44574792 C14.8359845,5.43747844 14.9461023,5.4334 15.0597,5.4334 Z M15.0597,5.6834 L14.921,5.686 L14.9545717,5.7811933 C14.9814657,5.87689139 14.9987803,5.97871773 15.0073351,6.08880554 L15.0137,6.2604 C15.0137,7.1632681 14.281903,7.8954 13.3797,7.8954 C13.2871212,7.8954 13.1958765,7.88606729 13.1067211,7.86818726 L13.072,7.86 L13.1628676,7.90677628 C13.6302691,8.13448258 14.1102212,8.27243571 14.5800413,8.27771127 L14.7807064,8.27172396 C15.7774831,8.19982069 16.6284622,7.55035862 17.2482208,6.73792543 L17.31,6.653 L17.2274457,6.58350207 C16.6509277,6.11489183 15.9646186,5.7544142 15.2686727,5.69274562 L15.0597,5.6834 Z" id="Stroke-17" fill-rule="nonzero"/><path d="M10.651,0.4657 C10.053,1.2017 10.818,3.2017 11.355,3.3577 C12.881,3.7967 15.963,3.3577 18.361,6.4147 C18.081,5.3627 18.343,4.2537 16.907,3.4827 C14.798,2.3487 12.158,2.5887 10.651,0.4657" id="Fill-19"/><path d="M10.7529304,0.393345294 L10.5539857,0.386875922 C9.96006218,1.11785877 10.6064436,3.27040993 11.3201288,3.47773748 C11.5257835,3.5369006 11.7448708,3.58002383 12.0675536,3.62670774 L13.0335782,3.75542611 C14.4388763,3.95028985 15.0771788,4.11852411 15.9799038,4.57901321 C16.8314603,5.01340073 17.5901129,5.63449246 18.2626488,6.49184952 C18.3465388,6.59879349 18.5167542,6.51389761 18.4817946,6.38254935 C18.4580674,6.29340273 18.4374805,6.2008371 18.4182896,6.09856418 L18.366759,5.78219342 L18.344992,5.6292046 C18.1729402,4.40811625 17.9187948,3.88406332 16.9661298,3.37256978 C16.4372489,3.08819283 15.905319,2.89036633 15.0945074,2.65502962 L14.4813891,2.48287773 C12.387781,1.90407847 11.5278921,1.48507974 10.7529304,0.393345294 Z M10.662,0.692 L10.7753065,0.83561842 C11.5016408,1.72344289 12.3669084,2.1395997 14.1151042,2.63962886 L14.746155,2.81577484 C15.7032431,3.08361806 16.2803798,3.28769317 16.8478029,3.59279407 C17.6633127,4.03064789 17.9071339,4.46025079 18.0681065,5.4681783 L18.14,5.958 L17.9822847,5.78210306 C17.4096894,5.17463061 16.7808244,4.7069229 16.0935048,4.35631427 C15.1602936,3.88027384 14.5038795,3.7070965 13.0749796,3.50876471 L12.4597331,3.4273129 C11.9363845,3.36057221 11.6473444,3.311732 11.3895584,3.23757209 C10.8963833,3.09430295 10.3671316,1.46216668 10.6457097,0.727839853 L10.662,0.692 Z" id="Stroke-21" fill-rule="nonzero"/></g></g></g><g id="Glasses" transform="translate(244.000000, 318.000000) scale(1 1)"><g id="Glasses/None" stroke="none" stroke-width="1" fill="none" fill-rule="evenodd" fill-opacity="0"/></g><g id="Body in the Desk" transform="translate(149.000000, 224.000000) scale(1 1)"><g id="Body in the Desk/Working Leg Crossed" stroke="none" stroke-width="1" fill="none" fill-rule="evenodd"><path d="M49,172.309638 C55.8744292,176.443847 60.0500456,178.510951 61.526849,178.510951 C63.0036525,178.510951 67.868327,179.229258 76.1208727,180.665871 L73.8060161,189.863487 L105.565161,198.157989 C116.906906,200.052663 123.647723,201 125.787612,201 C127.927501,201 131.198864,201 135.601702,201 L135.601702,177.038702 L135.601702,174.160934 L147.745867,174.160934 L149,172.309638 C148.249022,154.259317 146.640592,144.293129 144.17471,142.411074 C141.708829,140.529019 135.579796,138.14085 125.787612,135.246567 L115.571673,134.426734 C111.379971,140.454189 108.044467,143.467917 105.565161,143.467917 C101.846203,143.467917 93.3698606,142.161652 89.2134125,137.749971 C86.442447,134.80885 84.6850455,133.235314 83.9412077,133.029363 C73.5593754,132.838563 67.2281908,133.577631 64.9476541,135.246567 C62.6671174,136.915503 57.3512327,149.26986 49,172.309638 Z" id="Path-54" fill="#FFF"/><path d="M63.5851733,210.616275 C60.7465381,224.82791 61.3032074,234.789719 65.2551812,240.501702 C69.207155,246.213684 76.1247676,250.043493 86.0080189,251.991127 L108.470742,253.08629 L106.774634,255.399743 L60,295.124217 L92.2964793,323 L151.136752,266.808137 C154.127904,262.918342 155.288493,260.044495 154.61852,258.186594 C153.948547,256.328693 152.787957,253.698367 151.136752,250.295615 C155.393862,250.695848 157.865823,251.261019 158.552635,251.991127 C159.239446,252.721236 172.406484,269.723525 198.053748,302.997996 L228,286.911656 C207.89398,252.667956 195.845848,233.926306 191.855604,230.686707 C187.865361,227.447107 175.452999,220.218205 154.61852,209 L63.5851733,210.616275 Z" id="Path-55" fill="#FFF"/><path d="M62.785602,315 L89.8078579,329.941105 L87.9352339,336.890386 C105.311745,340.307699 114,342.506174 114,343.48581 C114,344.465447 114,345.636843 114,347 L71.3515406,347 L71.3515406,342.28346 L69.319676,342.28346 L66.3929851,347 L52,347 C57.7873793,338.244918 60.6810689,332.049016 60.6810689,328.412294 C60.6810689,324.775572 61.3825799,320.304807 62.785602,315 Z" id="Path-56" fill="#FFF"/><path d="M207,320.998971 C212.912895,328.959082 215.869342,333.695089 215.869342,335.206991 C215.869342,336.718894 216.530737,341.649897 217.853526,350 L224.738685,347.8682 L225.148023,342.940806 C226.465971,345.505338 227.836059,346.787604 229.258287,346.787604 C230.680516,346.787604 243.59442,343.555912 268,337.092528 C267.583663,333.460386 266.407639,331.644315 264.471928,331.644315 C261.568362,331.644315 242.968635,333.927621 239.560579,331.430861 C237.288541,329.766354 234.411359,322.622733 230.929033,310 L207,320.998971 Z" id="Path-57" fill="#FFF"/><g id="Group-3" transform="translate(15.000000, 131.000000)" fill="#000"><path d="M214.1193,77.4988 C213.5953,75.1208 213.2063,74.7618 210.8523,74.5988 C212.1613,75.2678 211.7613,77.7828 214.1193,77.4988 M132.2503,75.7438 C132.4033,73.1608 131.3943,72.2848 128.4793,72.4248 C129.6483,73.4528 131.0153,74.6568 132.2503,75.7438 M36.1223,136.4058 L36.1223,138.4058 C36.4713,138.5058 36.6223,138.5848 36.7763,138.5888 C47.9543,138.8878 59.1343,139.1788 70.3133,139.4778 C71.6703,139.5138 72.4883,138.8038 73.2683,137.4408 C60.7323,138.3118 48.4753,138.5918 36.1223,136.4058 M202.7233,164.1318 C197.5873,166.7778 192.8203,169.2338 187.9223,171.7578 C188.8503,173.3028 189.6963,174.7108 190.5273,176.0928 C195.2483,173.3408 199.7713,170.7038 204.4833,167.9578 C203.9043,166.6998 203.3583,165.5118 202.7233,164.1318 M205.7693,170.4318 C201.0153,173.1278 196.4843,175.6958 191.8273,178.3378 C193.3863,180.7818 194.8553,183.0858 196.3273,185.3938 C200.7853,183.1048 205.0113,180.9358 209.4213,178.6718 C208.1933,175.9018 207.0173,173.2488 205.7693,170.4318 M51.7753,183.7088 C58.4713,187.6528 64.9693,191.4808 71.6263,195.4028 C72.4613,193.7108 73.2223,192.1688 74.0543,190.4808 C68.2323,185.5408 62.5393,180.7108 56.6613,175.7238 C54.9483,178.5238 53.3853,181.0778 51.7753,183.7088 M73.5903,199.2278 C69.0703,195.7818 50.2883,185.0158 48.0243,184.6128 C47.9603,185.6428 47.8803,186.6548 47.8363,187.6698 C47.6133,192.8138 46.8673,197.8418 44.5623,202.5288 C43.0123,205.6798 41.4703,208.8338 39.9363,211.9928 C39.5343,212.8208 39.1773,213.6728 38.7043,214.7268 L51.3323,214.7268 C52.3573,213.0378 53.3403,211.3058 54.4483,209.6578 C54.7963,209.1398 55.4743,208.5318 56.0113,208.5208 C56.8653,208.5048 56.9423,209.4108 57.0543,210.1448 C57.3053,211.7868 57.6103,213.4198 57.8923,215.0508 C58.4653,215.1328 58.8553,215.2318 59.2463,215.2378 C70.5913,215.3978 81.9353,215.5758 93.2813,215.6788 C95.2523,215.6958 97.2263,215.3888 99.1353,215.2358 C99.5503,213.6798 99.0143,212.8628 97.7453,212.4658 C97.1363,212.2738 96.5253,212.0848 95.9093,211.9188 C88.2833,209.8708 80.6563,207.8258 73.0293,205.7828 C71.3573,205.3348 71.0473,204.8018 71.7123,203.2298 C72.2703,201.9128 72.9243,200.6368 73.5903,199.2278 M193.8103,189.5828 C204.3663,207.6818 201.5123,205.5148 202.6493,216.9018 C204.2853,216.7638 205.9543,216.7348 207.5673,216.4188 C208.0613,216.3208 208.5013,215.4848 208.7863,214.8988 C209.1833,214.0808 209.4113,213.1798 209.8273,211.9838 C210.7653,212.5978 211.6323,212.8678 211.9883,213.4498 C213.1813,215.4008 214.8193,215.4368 216.7563,214.9858 C223.1913,213.4898 229.6623,212.1398 236.0753,210.5518 C240.9463,209.3448 245.7483,207.8608 250.5273,206.5158 C250.1833,205.6348 249.8363,204.9198 249.6203,204.1678 C248.7713,201.1948 248.3613,200.7598 245.3323,200.8058 C242.5453,200.8468 239.7643,201.1578 236.9773,201.2858 C232.6673,201.4828 228.3723,201.4288 224.1223,200.4958 C221.9953,200.0278 220.5063,198.8178 219.6893,196.8638 C218.8293,194.8088 217.9623,192.7308 217.3883,190.5858 C216.6063,187.6608 216.1303,184.6558 215.4553,181.7008 C215.2563,180.8268 214.8273,180.0058 214.4833,179.1058 C207.4503,182.6708 200.7093,186.0868 193.8103,189.5828 M120.1253,69.6478 C121.0923,69.7068 121.8793,69.7468 122.6653,69.8058 C124.9763,69.9788 127.2863,70.1628 129.5973,70.3368 C131.9433,70.5138 133.4473,71.7128 134.0873,73.9888 C134.2773,74.6658 134.5063,75.3308 134.7533,76.1138 C135.6493,76.1138 136.4423,76.1068 137.2353,76.1148 C149.4683,76.2298 161.7033,76.2558 173.9343,76.4918 C185.6653,76.7178 197.4253,76.0338 209.1223,77.4918 C210.0293,77.6048 210.5223,77.0818 210.2323,76.1788 C210.0273,75.5418 209.5983,74.8868 209.0853,74.4648 C208.4853,73.9708 207.7083,73.6598 206.9673,73.3758 C202.4953,71.6638 198.0033,70.0038 193.5363,68.2788 C191.7933,67.6048 190.0113,67.5108 188.4203,68.3638 C186.3763,69.4598 184.2553,69.5088 182.1393,69.1808 C174.7973,68.0418 167.4343,66.9778 160.1583,65.5008 C151.3753,63.7178 142.6153,61.9778 133.6043,62.0198 C133.4033,62.0198 133.2013,61.8088 133.1023,61.7528 C132.8743,55.9328 132.6493,50.2078 132.4093,44.1038 C128.2253,45.2638 124.3653,45.1558 120.2393,44.4358 C120.4263,48.7028 120.7613,52.8248 120.7433,56.9458 C120.7243,61.0878 120.3553,65.2288 120.1253,69.6478 M129.4453,76.5008 C129.5323,76.3178 129.6193,76.1358 129.7053,75.9528 C129.2463,75.6008 128.8383,75.1058 128.3193,74.9208 C126.4433,74.2508 124.5653,73.5218 122.6263,73.1118 C116.7533,71.8688 110.8173,71.0668 104.7923,71.2028 C101.6493,71.2738 98.5823,70.8948 95.5783,69.9538 C91.8463,68.7838 88.1463,67.4598 84.3473,66.5678 C79.2983,65.3818 74.1653,64.5568 69.0723,63.5608 C65.7033,62.9008 62.3323,62.2418 58.9733,61.5298 C56.3143,60.9668 56.0373,60.4808 56.7573,57.9318 C57.0823,56.7788 57.4653,55.6438 57.7963,54.4928 C58.1133,53.3908 58.3973,52.2788 58.7113,51.1148 C49.4393,50.5268 41.1853,47.5868 33.2393,43.4718 C31.4423,49.4798 30.4033,55.4558 29.6183,61.4698 C29.2583,64.2298 28.9843,67.0388 29.0763,69.8118 C29.2153,74.0068 31.0353,76.0348 35.0703,77.0768 C35.9923,77.3148 36.9543,77.4918 37.9023,77.5178 C40.5373,77.5878 43.1823,77.7068 45.8093,77.5518 C58.9113,76.7818 72.0303,76.7998 85.1263,77.1968 C97.9283,77.5848 110.6993,77.4008 123.4793,76.8438 C125.4693,76.7568 127.4563,76.6168 129.4453,76.5008 M59.5563,48.6288 C59.9123,47.3428 60.2693,46.0428 60.6353,44.7458 C60.7653,44.2868 60.8273,43.7718 61.0873,43.3978 C61.2763,43.1248 61.7733,42.8638 62.0683,42.9238 C62.3323,42.9768 62.6193,43.4508 62.6903,43.7828 C62.7683,44.1488 62.6583,44.5788 62.5503,44.9578 C61.8073,47.5648 61.0503,50.1678 60.2833,52.7678 C59.6613,54.8768 59.0183,56.9798 58.3513,59.1968 C59.3103,59.4488 59.9893,59.6628 60.6823,59.8038 C66.0813,60.8988 71.4753,62.0208 76.8873,63.0558 C81.9803,64.0288 87.0603,64.9868 91.9763,66.7368 C95.9613,68.1548 100.0293,69.3258 104.3573,69.2548 C107.4723,69.2048 110.5913,69.3538 113.7083,69.4448 C115.0503,69.4838 116.3903,69.5998 117.9323,69.6918 C118.1053,68.6988 118.3163,67.8658 118.3863,67.0218 C118.9103,60.6428 119.1873,54.2638 118.4593,47.8758 C118.2973,46.4528 118.2843,44.9988 118.3543,43.5668 C118.4123,42.3788 118.9353,42.0278 120.0993,42.2118 C120.8863,42.3378 121.6463,42.6378 122.4333,42.7448 C125.7673,43.1968 129.0743,43.3018 132.2223,41.8498 C132.2693,41.3848 132.3463,41.0668 132.3263,40.7548 C131.9773,35.2568 131.7563,29.7458 131.2053,24.2688 C130.8703,20.9458 130.1433,17.6538 128.7133,14.5618 C127.1463,11.1748 124.7323,8.7968 121.0783,7.8368 C117.9123,7.0058 114.7523,6.1218 111.5433,5.4988 C107.7203,4.7548 103.8483,4.2638 100.1023,3.6808 C99.2103,5.1198 98.5573,6.3128 97.7743,7.4128 C93.3783,13.5858 88.3133,14.8968 81.5273,11.6108 C77.5253,9.6728 74.0653,6.9948 71.0493,3.7298 C70.6313,3.2778 70.1403,2.7058 69.5983,2.5908 C68.4513,2.3478 67.2363,2.2198 66.0693,2.3108 C61.7693,2.6488 57.4713,3.0418 53.1843,3.5198 C50.0733,3.8658 47.6033,5.4948 45.8173,7.9928 C44.7133,9.5368 43.7103,11.2298 43.0533,13.0018 C40.1633,20.7848 37.2993,28.5818 34.6603,36.4518 C33.0433,41.2758 32.5433,41.0088 37.8173,43.6728 C42.5383,46.0578 47.6553,47.4738 52.8173,48.5668 C54.9583,49.0208 57.2193,49.3998 59.5563,48.6288 M44.4323,6.2458 C44.2573,6.0858 44.1623,5.9388 44.0293,5.8868 C43.6603,5.7418 43.2803,5.6168 42.8963,5.5168 C34.8943,3.4418 27.2083,4.7308 19.6943,7.7298 C13.0493,10.3828 7.9633,14.7908 4.7653,21.2398 C4.2793,22.2208 3.8953,23.3428 3.8233,24.4228 C3.3483,31.4368 2.8043,38.4528 2.6053,45.4778 C2.2943,56.4998 2.2443,67.5298 2.0713,78.5558 C1.9493,86.3248 2.4503,94.0458 3.7953,101.7038 C4.8473,107.6868 6.0203,113.5448 9.7613,118.6808 C14.2833,124.8878 19.7953,129.6828 27.1233,131.9938 C31.5213,133.3798 36.0873,134.4038 40.6543,135.0548 C52.1883,136.6968 63.7693,136.4368 75.3283,135.1068 C76.1403,135.0128 77.0393,134.6528 77.6653,134.1348 C81.4843,130.9778 85.2413,127.7458 88.9993,124.5158 C89.3623,124.2048 89.5933,123.7408 90.0993,123.0578 C84.7513,122.9008 79.8003,122.8498 74.8603,122.5798 C71.4403,122.3928 67.9553,122.2588 64.6423,121.4878 C54.6043,119.1498 48.1953,112.9518 46.1413,102.7158 C45.5003,99.5218 45.1663,96.2228 45.1143,92.9648 C45.0443,88.6008 45.3853,84.2298 45.5573,79.6688 C45.0363,79.6688 44.3373,79.6918 43.6393,79.6658 C41.3253,79.5788 38.9953,79.6178 36.7013,79.3488 C30.0833,78.5728 26.7773,74.6618 26.9423,67.9958 C26.9563,67.4368 27.0113,66.8788 27.0663,66.3228 C27.7983,58.9188 29.0983,51.6208 30.8893,44.3948 C31.9423,40.1478 32.3933,35.7588 34.1383,31.6758 C35.0153,29.6238 35.5773,27.4398 36.4173,25.3708 C39.0213,18.9588 40.4313,12.0508 44.4323,6.2458 M121.5373,78.8108 C116.1853,79.0528 110.8303,79.3838 105.4763,79.3918 C95.7243,79.4068 85.9713,79.1408 76.2183,79.1308 C67.4243,79.1218 58.6303,79.2938 49.8363,79.4008 C49.3043,79.4078 48.7733,79.5488 48.2183,79.6318 C48.0693,80.1218 47.9153,80.4878 47.8473,80.8708 C46.5053,88.3618 46.7463,95.8358 48.3293,103.2508 C49.7733,110.0178 53.7023,114.9048 59.9763,117.8788 C64.1023,119.8358 68.5083,120.5068 73.0123,120.6708 C78.3663,120.8668 83.7233,120.9838 89.0763,121.1928 C90.6323,121.2538 92.1813,121.5158 94.3573,121.7538 C91.6713,124.3858 89.5293,126.7328 87.1363,128.7888 C74.3413,139.7788 61.4813,150.6938 48.6523,161.6458 C47.7023,162.4568 46.8233,163.3518 45.8013,164.3108 C56.1643,172.9878 66.3213,181.4938 76.5793,190.0838 C77.2103,189.5438 77.9013,189.0038 78.5333,188.4028 C80.4963,186.5318 82.3733,184.5638 84.4063,182.7718 C86.8013,180.6618 89.4073,178.7888 91.7733,176.6478 C97.5783,171.3958 103.2993,166.0528 109.0493,160.7398 C118.2103,152.2728 127.3043,143.7408 135.4743,134.2828 C138.9743,130.2308 138.8503,125.8748 135.9653,121.7628 C133.7663,118.6298 131.3083,115.6678 128.8353,112.7408 C120.3723,102.7228 111.5113,93.0688 102.1533,83.8758 C101.9003,83.6268 101.7573,83.2658 101.4423,82.7638 C101.9793,82.6738 102.3623,82.4838 102.5253,82.6018 C104.3273,83.8978 106.2983,85.0428 107.8323,86.6108 C111.7933,90.6618 115.6103,94.8578 119.3893,99.0828 C124.1303,104.3848 128.8253,109.7308 133.4233,115.1568 C134.3913,116.2998 135.3593,117.2298 136.7433,117.7528 C137.5643,118.0628 138.3623,118.4358 139.1783,118.7618 C142.9183,120.2518 145.8853,122.5858 148.1323,126.0218 C150.6223,129.8298 153.3893,133.4648 156.1713,137.0698 C162.0773,144.7248 168.0573,152.3218 174.0363,159.9198 C176.9443,163.6158 179.9153,167.2628 182.9253,171.0148 C193.4963,167.3408 202.2403,160.9148 211.5893,155.2738 C210.8263,153.7848 210.2713,152.5528 209.5903,151.3938 C200.9703,136.7648 192.0913,122.2948 182.5603,108.2328 C180.3983,105.0418 178.1443,101.9178 174.9673,99.6818 C170.6553,96.6478 166.4003,93.4618 161.8003,90.9218 C154.8833,87.1008 147.6933,83.7728 140.6073,80.2568 C139.4653,79.6898 138.1243,79.4258 137.1323,78.6798 C136.1583,77.9478 135.3943,77.8288 134.3223,78.2838 C132.8243,78.9198 131.2743,79.0678 129.6503,78.5908 C128.9623,78.3878 128.1643,78.5568 126.8993,78.5568 C127.6123,79.1728 122.7993,78.7538 121.5373,78.8108 M211.4643,177.8108 C212.2803,177.5388 212.8033,177.3688 213.3223,177.1888 C215.1883,176.5438 215.9673,176.8048 216.6893,178.6298 C217.1833,179.8788 217.4443,181.2248 217.7623,182.5378 C218.5903,185.9488 219.3693,189.3728 220.2203,192.7778 C220.4313,193.6218 220.8023,194.4338 221.1693,195.2278 C222.0353,197.0998 223.4503,198.3968 225.5473,198.5198 C228.8913,198.7158 232.2463,198.7948 235.5963,198.7938 C239.1913,198.7918 242.7863,198.6418 246.3803,198.5538 C248.4733,198.5018 250.0703,199.2978 251.1543,201.1548 C251.5363,201.8108 252.3833,202.2358 252.6463,202.9118 C253.1433,204.1868 253.6233,205.5668 253.629315,206.9048 C253.6343,207.9418 252.3793,208.1448 251.4413,208.4198 C241.4883,211.3428 231.5243,214.2238 221.3603,216.3418 C219.7233,216.6838 218.0533,216.8678 216.4103,217.1868 C214.3663,217.5858 212.4493,217.4938 210.7053,215.7758 C210.3713,218.2268 208.8173,218.6538 206.8723,218.6668 C205.4453,218.6758 204.0203,218.9948 202.5923,219.0268 C200.7523,219.0688 200.4783,218.6408 200.3803,216.7898 C200.2033,213.4648 200.0613,210.1278 199.6503,206.8278 C199.1483,202.7998 197.3953,199.2018 195.1713,195.8458 C193.5873,193.4578 191.9213,191.1238 190.1903,188.6198 C191.4223,187.9468 192.6433,187.2808 194.0173,186.5298 C191.5773,181.5288 188.3803,177.1168 185.3723,172.5288 C184.6943,172.7278 184.2153,172.7978 183.8053,173.0028 C182.3903,173.7088 181.3553,173.2028 180.4743,172.0658 C179.2023,170.4268 177.9103,168.8028 176.6523,167.1518 C167.5083,155.1468 158.3623,143.1438 149.2393,131.1238 C147.6943,129.0878 146.2673,126.9628 144.7693,124.8908 C143.1093,122.5958 140.6753,121.5418 137.6463,120.3508 C138.1443,121.5648 138.3933,122.2908 138.7293,122.9738 C140.7043,126.9878 140.4293,130.7178 137.8763,134.4968 C134.8543,138.9718 131.1453,142.7988 127.2753,146.4718 C117.6453,155.6078 107.9123,164.6358 98.2223,173.7078 C97.7583,174.1428 97.3003,174.5828 96.7013,175.1508 C96.9563,175.9398 97.1953,176.7658 97.4903,177.5698 C101.8873,189.5738 106.2983,201.5728 110.6793,213.5828 C111.0153,214.5058 111.7393,215.4488 110.9643,216.5148 C109.5273,216.8688 109.4133,215.6918 109.1003,214.8588 C107.7233,211.1938 106.3883,207.5138 105.0403,203.8368 C102.0153,195.5848 98.9943,187.3328 95.9673,179.0808 C95.7223,178.4118 95.4513,177.7518 95.1013,176.8548 C94.4463,177.3518 93.8603,177.7198 93.3633,178.1838 C88.6283,182.5968 83.9003,187.0158 79.1933,191.4578 C78.1233,192.4688 77.0533,193.1728 75.4713,192.0378 C74.7313,193.5118 74.0633,194.8418 73.4383,196.0858 C73.5973,196.3808 73.6373,196.5648 73.7523,196.6538 C75.9743,198.3758 76.0093,198.4778 74.9203,200.9718 C74.5703,201.7748 74.1893,202.5638 73.7773,203.4578 C74.0433,203.6578 74.2533,203.9268 74.5173,203.9998 C81.8303,206.0048 89.1503,207.9898 96.4673,209.9808 C97.0843,210.1478 97.7053,210.3088 98.3073,210.5208 C100.5833,211.3278 101.8393,213.5958 101.1093,215.8598 C100.9343,216.4018 100.2023,216.9728 99.6183,217.1298 C98.4743,217.4368 97.2523,217.5988 96.0653,217.5858 C82.8683,217.4468 69.6713,217.2638 56.4743,217.0868 C56.3193,217.0848 56.1653,217.0198 55.7313,216.9178 C55.6623,215.6208 55.5893,214.2378 55.5013,212.5938 C53.6693,213.6788 53.1073,215.5078 52.0903,216.7278 L35.9073,216.7278 C36.3553,215.3558 36.5673,214.3548 36.9973,213.4578 C38.6893,209.9288 40.4003,206.4058 42.1973,202.9288 C44.9863,197.5298 45.7703,191.7108 45.9773,185.7558 C45.9973,185.1958 45.9963,184.6358 46.0383,184.0778 C46.1803,182.2058 46.8563,181.7368 48.7103,182.2318 C49.0873,182.3328 49.4463,182.4988 50.0213,182.7108 C51.6613,180.0478 53.2853,177.4128 54.9703,174.6768 C51.3273,170.8318 46.4553,168.3488 43.4453,163.6598 C51.5913,156.0198 60.3353,149.1818 68.6083,141.6118 C60.9793,141.2118 53.3953,140.8268 45.5943,140.7958 C45.2453,142.0508 44.8693,143.2448 44.5803,144.4588 C39.6023,165.3648 34.6373,186.2738 29.6633,207.1818 C29.4973,207.8798 29.3743,208.6118 29.0543,209.2388 C28.8933,209.5518 28.3453,209.7558 27.9473,209.8058 C27.8123,209.8218 27.4363,209.2058 27.4543,208.8948 C27.4953,208.1858 27.6943,207.4818 27.8603,206.7838 C32.2043,188.5238 36.5523,170.2668 40.8983,152.0078 C41.7653,148.3638 42.6263,144.7208 43.5583,140.7918 L35.9543,140.7918 C35.1643,143.1978 34.3033,145.8278 33.4363,148.4568 C27.6843,165.9048 21.9493,183.3588 16.1663,200.7978 C14.9343,204.5118 13.5323,208.1688 12.2023,211.8498 C12.0663,212.2248 11.9073,212.5958 11.7153,212.9438 C11.3903,213.5328 11.2193,214.5358 10.2413,214.0268 C9.4053,213.5918 9.8103,212.7598 10.0603,212.1028 C17.6183,192.2278 23.8283,171.9008 30.3183,151.6688 C31.2693,148.7018 32.2193,145.7328 33.2513,142.7948 C34.0133,140.6288 34.1473,138.4438 33.8243,135.9928 C32.6573,135.6748 31.4503,135.3088 30.2253,135.0188 C23.6153,133.4548 17.8623,130.3458 12.9623,125.6268 C9.3953,122.1908 6.8353,118.0508 4.6063,113.7048 C3.8943,112.3158 3.6273,110.6798 3.2653,109.1318 C0.4673,97.1378 -0.2457,84.9638 0.0683,72.6878 C0.2933,63.8968 0.3073,55.0998 0.5153,46.3078 C0.6093,42.3958 0.9813,38.4908 1.1663,34.5808 C1.2683,32.4318 1.1723,30.2738 1.2963,28.1278 C1.4193,25.9808 1.5803,23.8208 1.9793,21.7148 C2.1423,20.8558 3.0283,20.1538 3.4933,19.3288 C6.7773,13.4868 11.4683,9.1778 17.5873,6.4628 C25.2053,3.0828 33.0993,1.5528 41.4203,3.1228 C41.8123,3.1968 42.2233,3.2278 42.5913,3.3698 C44.8683,4.2448 46.8973,4.1988 49.1003,2.7538 C51.7803,0.9978 55.0793,1.1608 58.1653,0.8498 C61.8213,0.4808 65.4983,0.3388 69.1593,0.0098 C70.3523,-0.0972 70.8843,0.6318 71.4883,1.3708 C74.2613,4.7628 77.6463,7.4068 81.4903,9.4678 C82.4703,9.9928 83.5113,10.4388 84.5713,10.7698 C88.9383,12.1298 92.3813,11.1078 95.2073,7.4598 C96.5663,5.7068 97.6533,3.7428 99.0423,1.5998 C102.5803,2.0968 106.3123,2.4668 109.9783,3.1758 C113.9733,3.9478 117.9283,4.9528 121.8603,6.0058 C126.2873,7.1918 129.0973,10.2188 130.7903,14.3748 C132.2233,17.8878 132.7623,21.6038 133.2933,25.3268 C134.1893,31.6008 134.1593,37.9168 134.2863,44.2318 C134.3873,49.1818 134.6473,54.1288 134.8473,59.0778 C134.8563,59.3008 134.9753,59.5198 135.1053,59.9378 C137.2703,60.1268 139.4793,60.3488 141.6923,60.5078 C149.3743,61.0598 156.8603,62.7758 164.3803,64.2888 C168.1393,65.0448 171.8993,65.7948 175.6623,66.5318 C179.7203,67.3268 183.7893,67.2718 187.7993,66.3258 C190.0063,65.8048 192.0703,65.9458 194.1333,66.7658 C197.3253,68.0338 200.4963,69.3548 203.7133,70.5578 C205.0413,71.0538 206.4543,71.3398 207.8453,71.6498 C209.4773,72.0138 211.1673,72.1688 212.7603,72.6518 C214.8253,73.2788 216.2683,75.4998 216.2473,77.6208 C216.2343,78.9258 215.7323,79.5298 214.4253,79.6878 C213.8753,79.7548 213.3073,79.6588 212.7483,79.6748 C206.5043,79.8508 200.2993,79.0968 194.0763,78.8968 C183.0453,78.5448 172.0033,78.5218 160.9663,78.3948 C155.5283,78.3318 150.0893,78.3378 144.6503,78.3248 C143.8993,78.3238 143.1483,78.3958 142.3173,78.8398 C143.8473,79.6278 145.3543,80.4628 146.9113,81.1968 C154.5763,84.8098 162.1303,88.6058 169.2973,93.1718 C172.4543,95.1838 175.8943,96.8128 178.4293,99.6168 C182.5513,104.1758 186.6393,108.7518 189.8423,114.0788 C196.6383,125.3808 203.6603,136.5468 210.5093,147.8168 C212.1053,150.4438 213.3833,153.2638 214.8713,156.1168 C212.0903,158.9368 208.2613,160.3488 204.8183,162.8948 C206.9923,167.7738 209.1853,172.6948 211.4643,177.8108" id="Fill-1"/></g></g></g></g></g><g id="Table" transform="translate(248.000000, 460.000000) scale(1.059782608695652 1.0492957746478873)" fill="#000"><g id="Table/Long Table 1" stroke="none" stroke-width="1" fill="none" fill-rule="evenodd"><g id="Group-3" transform="translate(-8.000000, -3.000000)" fill="#000"><path d="M88.2359,3.1129 C62.1269,2.8809 36.3669,2.6499 10.3859,2.4189 C10.3859,4.0569 10.3869,5.4049 10.3869,6.7539 C10.3869,8.0859 10.3859,9.4189 10.3859,10.6899 C14.0269,11.2559 86.0049,10.9789 87.8769,10.3869 C87.9869,8.1579 88.0999,5.8639 88.2359,3.1129 M2.1049,140.7339 C2.3149,140.8839 2.5239,141.0329 2.7329,141.1809 C3.0909,140.8859 3.5969,140.6599 3.7719,140.2799 C4.0319,139.7159 4.0689,139.0449 4.1829,138.4149 C5.9079,128.9069 7.6289,119.3969 9.3519,109.8879 C12.3009,93.6189 15.2239,77.3439 18.2119,61.0829 C20.7359,47.3419 23.3249,33.6139 25.9139,19.8849 C26.4139,17.2319 26.4739,17.2339 29.1429,17.2119 C40.9749,17.1159 52.8069,17.0159 64.6389,16.9379 C69.1839,16.9089 73.7289,16.9329 78.4869,16.9329 C78.8339,18.2629 79.2899,19.6169 79.5339,21.0079 C82.6409,38.7059 85.7109,56.4109 88.8029,74.1119 C92.6239,95.9809 96.4569,117.8479 100.2839,139.7169 C100.6149,141.6049 100.9329,143.4959 101.2749,145.3819 C101.4549,146.3729 101.8709,147.0259 103.3299,146.3189 C98.2149,101.9079 93.0919,57.4309 87.9569,12.8454556 C87.0189,12.8454556 86.3869,12.8454556 85.7549,12.8454556 C74.3229,12.8729 62.8909,12.9129 51.4599,12.9229 C40.6669,12.9319 29.8749,12.9069 19.0819,12.9139 C18.1609,12.9149 17.2399,13.0479 16.1909,13.1289 C11.4779,55.8249 6.7919,98.2789 2.1049,140.7339 M263.3889,145.6739 L265.2749,145.6739 C273.1609,102.6879 281.0399,59.7469 288.9469,16.6469 C290.1879,16.6469 291.1319,16.6489 292.0769,16.6469 C303.7499,16.6189 315.4229,16.5879 327.0969,16.5609 C337.0109,16.5379 346.9249,16.5139 356.8389,16.5019 C359.7229,16.4979 360.0889,16.8139 360.6029,19.6759 C360.9699,21.7209 361.3199,23.7679 361.6589,25.8169 C364.4649,42.7609 367.2539,59.7089 370.0729,76.6509 C373.5479,97.5339 377.0459,118.4139 380.5429,139.2939 C380.6809,140.1149 380.9179,140.9199 381.1309,141.8259 C382.7299,141.3869 382.2699,140.4019 382.1919,139.6239 C381.0249,127.9369 379.8239,116.2539 378.6679,104.5659 C377.4559,92.3209 376.2989,80.0709 375.0899,67.8259 C373.5119,51.8419 371.9089,35.8609 370.3089,19.8809 C370.0479,17.2699 369.7439,14.6639 369.4499,11.9629 L279.3989,11.9629 C274.0569,56.5739 268.7339,101.0369 263.3889,145.6739 M368.9919,2.1839 C366.5289,1.7709 91.7989,2.9399 90.1569,3.3929 L90.1569,9.7059 C90.3409,9.8069 90.4769,9.9469 90.6119,9.9469 C182.8769,9.9319 275.1409,9.9079 367.4059,9.8789 C367.8809,9.8789 368.3559,9.8059 368.8299,9.7569 C368.8979,9.7499 368.9649,9.6799 369.0229,9.6309 C369.0829,9.5779 369.1319,9.5129 369.2709,9.3599 C369.2709,7.4769 369.2889,5.4879 369.2579,3.5009 C369.2509,3.0459 369.0779,2.5919 368.9919,2.1839 M261.1799,147.4689 C266.6139,102.1409 272.0049,57.1719 277.4059,12.1089 L89.9049,12.1089 C91.2469,23.6989 92.5629,35.0309 93.8699,46.3629 C95.1789,57.7169 96.4819,69.0699 97.7839,80.4239 C99.0759,91.6979 100.3969,102.9689 101.6429,114.2499 C102.8939,125.5809 104.5569,136.8729 105.3429,148.4599 C103.4649,148.5819 101.9789,148.6779 100.1469,148.7969 C98.3479,140.1649 97.0339,131.5159 95.4899,122.9149 C93.9379,114.2659 92.4639,105.6049 90.9489,96.9509 C89.4199,88.2169 87.8769,79.4849 86.3509,70.7509 C84.8399,62.0929 83.3519,53.4309 81.8359,44.7749 C80.3219,36.1389 78.7849,27.5079 77.2429,18.7879 C60.7719,18.9169 44.5609,19.0439 28.0409,19.1729 C23.8489,39.8219 20.3929,60.5339 16.6139,81.1829 C12.8479,101.7619 9.1319,122.3509 5.3599,143.1239 C3.6929,143.5119 1.9599,143.1119 -0.0001,142.7549 C4.7629,99.5159 9.5099,56.4309 14.2859,13.0799 C13.1269,13.0249 12.1869,13.0299 11.2579,12.9279 C8.9769,12.6789 8.5219,12.1769 8.5089,9.9269 C8.4929,7.1349 8.5059,4.3439 8.5059,1.6729 C9.9049,0.6159 11.2609,0.4379 12.7459,0.4549 C37.4489,0.7279 62.1529,1.0399 86.8569,1.1809 C98.7629,1.2509 110.6719,0.9249 122.5799,0.8819 C179.1169,0.6749 235.6549,0.5119 292.1929,0.3179 C317.4589,0.2319 342.7259,0.1089 367.9919,0.0039 C368.5519,0.000520478414 369.1119,-0.0061 369.6709,0.0129 C370.7379,0.0499 371.2459,0.5759 371.2309,1.6819 C371.2069,3.4399 371.1619,5.2069 371.2899,6.9579 C371.8079,14.0479 372.3249,21.1369 372.9649,28.2169 C373.6109,35.3769 374.4079,42.5219 375.1289,49.6759 C376.0569,58.8979 376.9819,68.1209 377.8969,77.3449 C378.7489,85.9309 379.5789,94.5199 380.4329,103.1059 C381.3259,112.0919 382.2359,121.0749 383.1359,130.0589 C383.5029,133.7159 383.8869,137.3709 384.2139,141.0309 C384.3889,142.9919 383.8719,143.5329 381.8159,143.7679 C379.8589,143.9939 379.3519,143.6919 379.0229,141.7719 C377.5779,133.3469 376.1669,124.9159 374.7579,116.4839 C372.1269,100.7229 369.5049,84.9609 366.8789,69.1989 C364.2259,53.2789 361.5749,37.3599 358.9169,21.4419 C358.7619,20.5129 358.5449,19.5939 358.3409,18.5979 L290.6229,18.5979 C290.2059,20.7699 289.7879,22.8609 289.4049,24.9589 C285.0109,49.0089 280.6319,73.0619 276.2269,97.1109 C273.4339,112.3559 270.5989,127.5929 267.8009,142.8389 C267.5859,144.0079 267.4809,145.2019 267.3949,146.3889 C267.3149,147.4929 266.6679,148.0139 265.6819,147.9729 C264.3459,147.9189 263.0169,147.6849 261.1799,147.4689" id="Fill-1"/></g></g></g><g id="Extras" transform="translate(513.000000, 396.000000) scale(0.7605633802816901 0.7727272727272727)" fill="#000"><g id="Extras/Big mug" stroke="none" stroke-width="1" fill="none" fill-rule="evenodd"><g id="Group-8" transform="translate(11.000000, 13.000000)" fill="#000"><g id="Group-3" transform="translate(0.000000, 43.324100)"><path d="M44.3061,7.039 C43.9511,11.064 43.5981,15.049 43.2351,19.167 C45.0191,19.211 46.4181,18.522 47.2521,17.048 C48.7211,14.451 49.0751,11.643 48.3001,8.738 C48.0301,7.722 47.3611,7.083 46.2531,7.043 C45.6211,7.02 44.9881,7.039 44.3061,7.039 M2.8211,10.51 C2.9921,12.018 3.1131,13.273 3.2781,14.522 C3.9671,19.727 5.9101,24.362 9.4661,28.29 C10.0351,28.92 10.5551,29.367 11.4491,29.393 C18.5551,29.599 25.6601,29.833 32.7661,30.061 C33.7081,30.092 34.3071,29.635 34.9931,28.97 C38.8471,25.236 40.7171,20.553 41.5831,15.42 C41.9601,13.182 42.3361,10.879 41.7911,8.343 C28.7671,9.066 15.8781,9.783 2.8211,10.51 M0.0001,3.455 C14.4471,2.279 28.6241,0.776 42.9511,0.932 C43.2371,1.826 43.4711,2.559 43.7601,3.463 C44.6591,3.463 45.5371,3.377 46.3951,3.478 C48.9201,3.778 50.6741,5.06 51.4631,7.57 C52.5671,11.083 52.2771,14.503 50.9151,17.873 C49.7431,20.771 47.5091,22.198 44.4711,22.482 C43.5981,22.564 42.7191,22.583 42.0941,22.616 C39.8971,25.67 37.8171,28.56 35.5451,31.716 C33.1951,31.811 30.6491,32.049 28.1111,31.991 C22.7591,31.869 17.4121,31.57 12.0621,31.392 C10.1911,31.329 8.8281,30.621 7.5541,29.163 C3.3631,24.366 1.6291,18.669 0.9571,12.514 C0.7321,10.45 0.4481,8.393 0.2141,6.33 C0.1181,5.481 0.0841,4.625 0.0001,3.455" id="Fill-1"/></g><path d="M21.4858,1.906 C20.7708,1.906 20.0488,1.959 19.3428,1.877 C19.1008,1.849 18.7058,1.472 18.7178,1.277 C18.7398,0.941 19.0048,0.606 19.2158,0.304 C19.2888,0.2 19.5038,0.172 19.6578,0.155 C23.0748,-0.22 26.3968,-0.054 29.2018,2.25 C31.4798,4.121 32.0758,6.601 31.3318,9.376 C31.0248,10.518 30.4848,11.609 29.9608,12.679 C28.9788,14.685 27.8568,16.625 26.9268,18.653 C25.3028,22.196 24.9258,25.828 26.2898,29.587 C27.2508,32.238 27.6548,35.007 27.3298,37.827 C27.2418,38.587 26.9388,39.366 26.5448,40.022 C26.3868,40.284 25.6928,40.351 25.2868,40.275 C25.1088,40.242 24.8588,39.572 24.9488,39.287 C26.0128,35.896 25.2588,32.653 24.1908,29.445 C22.5778,24.607 23.8128,20.157 25.9758,15.83 C26.9038,13.975 28.0018,12.199 28.8328,10.304 C30.6958,6.062 28.7228,2.67 24.1138,2.04 C23.2458,1.922 22.3638,1.901 21.4888,1.835 C21.4878,1.859 21.4868,1.882 21.4858,1.906" id="Fill-4"/><path d="M17.4838,30.4549 C17.3318,31.0539 17.1828,32.1839 16.7568,33.1979 C15.7998,35.4719 14.7188,37.6919 13.6578,39.9199 C13.4208,40.4189 13.1348,40.9579 12.7218,41.2919 C12.3548,41.5889 11.7788,41.6279 11.2958,41.7809 C11.2108,41.2909 10.9968,40.7779 11.0798,40.3179 C11.1578,39.8819 11.5878,39.5189 11.7918,39.0899 C12.8808,36.7879 14.0418,34.5129 14.9998,32.1559 C15.9478,29.8239 15.5218,27.6129 13.8618,25.6809 C12.9778,24.6509 12.0428,23.6639 11.2098,22.5969 C7.9968,18.4759 9.0468,13.3299 12.1468,9.6429 C12.4038,9.3379 13.0908,9.3959 13.5798,9.2859 C13.6108,9.7949 13.8088,10.3709 13.6368,10.7979 C13.3458,11.5259 12.7938,12.1439 12.3998,12.8369 C10.6348,15.9459 10.8978,19.1729 13.1498,21.9639 C14.0018,23.0179 14.9438,24.0019 15.7628,25.0799 C16.9708,26.6659 17.5318,28.3649 17.4838,30.4549" id="Fill-6"/></g></g></g><g id="Computer" transform="translate(351.000000, 342.000000) scale(1 0.9975161290322581)"><g id="Computer/Monitor" stroke="none" stroke-width="1" fill="none" fill-rule="evenodd"><path d="M93.4326761,97.7641695 L37.1813082,97.1075834 C32.6946749,94.8715589 29.8096498,92.7496434 28.5262328,90.7418368 C27.2428159,88.7340302 28.3069706,81.0594564 31.7186969,67.7181155 L44.7346151,8.46638842 C45.3024548,5.04041284 46.6562124,2.91056268 48.7958879,2.07683794 C52.7446586,0.538199076 61.2171479,1.10011694 66.513779,1.10011694 C74.8040868,1.10011694 88.8796338,1.42569061 108.74042,2.07683794 L161.097963,2.07683794 C166.137981,2.78570901 169.381658,4.02785185 170.828995,5.80326648 C173,8.46638842 173,9.35276961 173,15.2545574 C173,19.1890826 167.964384,43.7916036 157.893151,89.0621205 C157.108473,93.9880383 156.245237,96.6698592 155.303441,97.1075834 C154.361645,97.5453075 144.67459,97.7641695 126.242277,97.7641695 L132.354739,117.989658 L155.303441,119.451041 L155.303441,122 L74.1666227,122 L74.1666227,119.451041 L96.119518,119.451041 L93.4326761,97.7641695 Z" id="Path-72" fill="#FFF"/><g id="Group-5" transform="translate(26.000000, 0.000000)" fill="#000"><path d="M128.9622,121.522 C128.8132,119.304 128.8132,119.29 126.7902,119.303 C101.2752,119.479 75.7592,119.659 50.2432,119.837 C49.8442,119.84 49.4432,119.839 49.0442,119.856 C48.4042,119.882 47.6852,119.833 47.6616138,120.763 C47.6372,121.819 48.4162,121.818 49.1572,121.83 C49.8772,121.842 50.5972,121.848 51.3162,121.845 C72.8322,121.738 94.3482,121.626 115.8632,121.525 C120.1712,121.505 124.4782,121.522 128.9622,121.522 M141.7742,4.731 C141.8002,4.651 141.8262,4.571 141.8532,4.491 C140.6022,4.05 139.3792,3.375 138.0932,3.215 C134.7752,2.803 131.4302,2.391 128.0942,2.378 C94.9932,2.246 61.8932,2.187 28.7912,2.1389781 C27.0432,2.136 25.2952,2.442 23.5442,2.554 C21.8832,2.66 20.6222,3.492 19.8002,4.827 C19.0992,5.964 18.4912,7.228 18.1702,8.517 C17.2222,12.311 16.3992,16.138 15.5922,19.966 C11.1252,41.141 6.6922,62.323 2.1962,83.492 C1.7672,85.518 1.8802,87.455 2.3552,89.411 C2.4442,89.781 2.7532,90.098 3.0842,90.644 C3.4212,88.284 3.6062,86.209 4.0242,84.184 C8.0992,64.474 12.2082,44.771 16.3182,25.068 C17.2322,20.691 18.0602,16.291 19.1612,11.961 C20.4942,6.725 23.2742,4.496 28.6072,3.98 C29.3202,3.911 30.0442,3.925 30.7622,3.93 C58.6682,4.132 86.5742,4.338 114.4812,4.542 C123.5782,4.608 132.6762,4.668 141.7742,4.731 M70.9892,117.599 C74.1252,118.094 102.3032,117.77 104.1222,117.206 C104.0002,116.686 103.9032,116.15 103.7482,115.63 C100.1622,103.618 96.5742,91.606 92.9732,79.598 C92.3722,77.595 92.3432,77.591 90.1282,77.579 C82.3732,77.536 74.6172,77.502 66.8622,77.466 C66.3212,77.463 65.7802,77.466 64.9172,77.466 C66.9702,91.03 68.9832,104.334 70.9892,117.599 M100.2962,96.891 C100.8142,96.935 101.2052,97.003 101.5962,96.9982609 C108.3932,96.886 115.1902,96.777 121.9852,96.632 C122.9382,96.613 123.8892,96.429 124.8342,96.282 C127.3432,95.892 129.1492,94.54 129.9302,92.117 C130.7352,89.614 131.4832,87.077 132.0242,84.506 C136.8712,61.446 141.6652,38.375 146.4832,15.309 C147.1992,11.877 146.1172,9.261 142.9032,7.907 C141.0392,7.121 138.9152,6.587 136.9022,6.57 C101.8712,6.266 66.8402,6.05 31.8082,5.85868309 C29.9072,5.849 27.9702,6.076 26.1162,6.492 C25.1082,6.718 23.9822,7.379 23.3682,8.191 C22.3812,9.499 21.5682,11.026 21.0582,12.584 C20.3892,14.622 20.0662,16.776 19.6272,18.887 C15.6772,37.89 11.7192,56.893 7.7982,75.902 C6.8792,80.357 6.0402,84.831 5.2622,89.312 C4.6552,92.801 6.1102,94.619 9.5722,95.693 C11.1262,96.175 12.8752,96.145 14.5362,96.15 C30.6912,96.197 46.8472,96.203 63.0022,96.219 C63.8582,96.22 64.7122,96.219 65.7032,96.219 C64.9732,89.237 63.4182,82.648 62.8942,75.756 C64.0952,75.657 64.9532,75.521 65.8122,75.524 C74.4492,75.558 83.0872,75.606 91.7252,75.673 C93.8162,75.689 93.8862,75.76 94.5232,77.861 C95.8192,82.142 97.0822,86.434 98.3742,90.716 C98.9952,92.774 99.6502,94.822 100.2962,96.891 M100.9652,99.17 C102.8112,105.356 104.6042,111.367 106.4492,117.554 C109.7352,117.554 112.9132,117.567 116.0912,117.551 C120.1682,117.531 124.2452,117.468 128.3222,117.46 C130.2652,117.456 130.6882,117.831 130.8842,119.78 C130.9862,120.796 130.9012,121.832 130.9012,123.166 C129.7682,123.261 128.6942,123.427 127.6212,123.432 C109.3082,123.512 90.9942,123.565 72.6812,123.64 C65.0042,123.671 57.3262,123.739 49.6492,123.796329 C46.5892,123.82 45.4202,122.532 45.6512,119.443 C45.7172,118.568 46.1022,118.11 46.9502,118.043 C47.5072,117.998 48.0672,117.986 48.6262,117.982 C54.5442,117.94 60.4612,117.902 66.3782,117.865 C67.1692,117.86 67.9612,117.864 69.1202,117.864 C68.1072,111.237 67.1272,104.832 66.1332,98.326 C65.2502,98.28 64.5462,98.212 63.8402,98.211 C48.1672,98.186 32.4932,98.163 16.8192,98.158 C15.2242,98.158 13.6282,98.265 12.0342,98.356 C7.5492,98.609 2.3892,95.307 0.9332,91.079 C0.0162,88.417 -0.2938,85.713 0.3152,82.844 C4.7662,61.826 9.1072,40.784 13.5252,19.759 C14.3622,15.776 15.3792,11.83 16.3372,7.872 C17.5042,3.045 20.9452,-0.018 26.6212,0.000912112562 C51.0872,0.077 75.5542,0.189 100.0202,0.279 C110.6562,0.318 121.2932,0.344 131.9302,0.357 C135.0062,0.361 137.9672,0.975 140.8352,2.021 C144.0012,3.175 146.4492,5.413 147.6492,8.413 C148.7722,11.22 149.2612,14.239 148.2522,17.476 C146.9742,21.576 146.3362,25.876 145.4532,30.097 C142.1502,45.89 138.8612,61.686 135.5632,77.48 C134.8612,80.841 134.2212,84.218 133.4042,87.552 C132.9322,89.482 132.2482,91.373 131.5072,93.219 C130.4512,95.851 128.4332,97.512 125.6772,98.078 C123.8892,98.445 122.0382,98.601 120.2092,98.652 C114.5342,98.811 108.8572,98.87 103.1802,98.98 C102.5542,98.992 101.9292,99.085 100.9652,99.17" id="Fill-1"/><path d="M82.3128,45.4272 C84.0558,45.4752 84.9568,44.6042 84.9708,42.8512 C84.9858,41.1462 84.2528,40.0822 83.0538,40.0652 C81.8078,40.0482 79.7498,41.7902 79.6458,42.9522 C79.5358,44.1642 80.8528,45.3862 82.3128,45.4272 M87.0098,42.8122 C87.0618,45.5452 85.2478,47.2862 82.2938,47.3342 C79.7078,47.3772 77.6538,45.4462 77.6328,42.9532 C77.6118,40.2512 79.7748,38.2412 82.8018,38.1512 C85.3998,38.0732 86.9528,39.7932 87.0098,42.8122" id="Fill-3"/></g></g></g><g id="404" transform="translate(59.000000, 321.000000) scale(1 0.8614457831325302)"><g id="404/Right Pot" stroke="none" stroke-width="1" fill="none" fill-rule="evenodd"><g id="Vase" transform="translate(32.000000, 176.000000) scale(1 1)"><g id="Vase/Tall Vase 3" stroke="none" stroke-width="1" fill="none" fill-rule="evenodd"><g id="Vase"><g id="Group-3" fill="#000"><path d="M34.9721545,2.88824495 C34.9721545,3.58183081 34.9734727,4.13842172 34.9721545,4.69501263 C34.9405182,17.3314268 34.9115182,29.9686237 34.8759273,42.6058207 C34.8647227,46.9223359 34.8416545,51.238851 34.8100182,55.5553662 C34.8040864,56.349154 34.8607682,57.1249369 34.13445,57.6924874 C32.1598136,59.2362247 30.1864955,60.794053 28.3041318,62.4888763 C21.6387455,68.4900379 15.5810409,75.2395833 10.6721318,83.3301136 C6.91663182,89.519154 3.89865455,96.1551894 2.52576818,103.688346 C0.488518182,114.861654 2.58838182,124.758952 9.1292,133.236982 C13.1885409,138.499154 18.1818136,142.155745 23.6377682,144.995063 C30.1535409,148.386275 36.9962227,150.396578 44.0300409,151.402513 C48.6759727,152.066351 53.36145,152.693396 58.0291318,152.690277 C62.6981318,152.687134 67.3855864,152.058523 72.0315182,151.380593 C78.3719727,150.45529 84.5647909,148.693144 90.5144045,145.845215 C97.1000409,142.692765 103.06745,138.461578 107.710745,131.944533 C111.727245,126.308169 113.892359,119.804432 114.063064,112.387917 C114.229814,105.127184 112.483223,98.4473106 109.734814,92.0696086 C106.829541,85.3302399 102.987041,79.4003157 98.5652,73.9776641 C93.7828364,68.1127146 88.5153818,62.913952 82.7806318,58.4377399 C81.4051091,57.3644823 81.0716091,56.3225379 81.0676545,54.566654 C81.0307455,37.9276389 80.9332,21.2886237 80.8481773,4.64960859 C80.8455409,4.04604798 80.7914955,3.4432702 80.7631545,2.88824495 L34.9721545,2.88824495 Z M82.6916545,55.7479419 C88.0777455,60.0104419 93.0314727,64.6620076 97.5871091,69.8967803 C102.685177,75.7554672 107.229609,82.1472601 110.655564,89.5653409 C113.840291,96.4612753 115.886768,103.754886 115.878882,111.722513 C115.870291,119.503043 113.822495,126.442033 109.833677,132.606023 C105.645814,139.077664 100.1457,143.495947 93.9792455,146.820619 C85.8401318,151.209154 77.2370182,153.505972 68.3597227,154.417184 C65.5790182,154.702134 62.7884273,154.942462 60.0004727,154.985518 C48.6627909,155.161654 37.5089955,153.759609 26.7612,149.167538 C19.7399045,146.16774 13.2748818,142.04928 8.10892727,135.507967 C2.56465455,128.485997 -0.2523,120.180189 0.0179272727,110.473902 C0.2262,102.985366 2.17842727,96.1090025 5.18981364,89.6209217 C9.28276818,80.8047096 14.8646091,73.4320328 21.1444273,66.7513763 C24.8788364,62.7785227 28.8656773,59.1978662 33.1550409,55.7526389 C33.1550409,52.4616288 33.1379045,49.0884217 33.1583364,45.7159975 C33.2446773,31.5757702 33.3422227,17.4355429 33.4358136,3.29531566 C33.4371318,3.17006313 33.4358136,3.04481061 33.4397682,2.91955808 C33.4977682,0.816881313 33.7277909,0.523320707 35.4783364,0.549936869 C39.6925636,0.612563131 43.90745,0.765997475 48.1223364,0.766780303 C56.5534273,0.767563131 64.9851773,0.694760101 73.4162682,0.642310606 C75.7356091,0.628219697 78.0529727,0.569507576 80.3723136,0.549936869 C82.1848136,0.535063131 82.3733136,0.746426768 82.3891318,2.89137626 C82.4952455,17.0308207 82.5967455,31.1702652 82.6883591,45.3097096 C82.7114273,48.7486742 82.6916545,52.1892045 82.6916545,55.7479419 L82.6916545,55.7479419 Z" id="Fill-1"/></g><path d="M35.4023576,3 L81.4803447,3 C81.5088633,3.55575874 81.5632474,4.1593331 81.5659003,4.76369133 C81.6514559,21.4246955 81.7496127,38.0856996 81.7867531,54.7467037 C81.7907325,56.504908 82.1263226,57.5482294 83.5104662,58.6229054 C89.2811578,63.1050329 94.5816252,68.3106659 99.3939614,74.1833661 C103.843515,79.6131838 107.710098,85.5509447 110.633579,92.2992196 C113.399213,98.68535 115.15675,105.374051 114.988955,112.644379 C114.817181,120.070695 112.638498,126.583028 108.596825,132.22684 C103.924429,138.752498 97.9196197,142.989276 91.292709,146.145892 C85.3058072,148.997585 79.0741766,150.76206 72.6939844,151.688586 C68.018935,152.367411 63.3021026,152.996853 58.6038405,153 C53.9069048,153.003124 49.1920621,152.37525 44.5170127,151.710534 C37.4391113,150.70327 30.5535441,148.690311 23.9969349,145.294617 C18.5067861,142.451546 13.4822189,138.790123 9.3974368,133.520997 C2.81562518,125.031763 0.702601008,115.121385 2.75261912,103.933312 C4.13410981,96.3901997 7.17100173,89.7453946 10.9500387,83.5481752 C15.8897135,75.446953 21.9853837,68.6884878 28.6925442,62.6793954 C30.5867052,60.9823324 32.5723908,59.4224454 34.5594029,57.876668 C35.2902731,57.3083674 35.2332361,56.5315594 35.2392051,55.7367225 C35.2710397,51.4145029 35.2942525,47.0922834 35.3055272,42.7700638 C35.3413412,30.1161664 35.3705229,17.4622689 35.4023576,4.80915538 C35.403684,4.25182892 35.4023576,3.69450245 35.4023576,3" id="Fill-4" fill="#FFF"/></g></g></g></g></g><g id="404" transform="translate(787.000000, 275.000000) scale(1 1.1608391608391608)"><g id="404/Left Pot" stroke="none" stroke-width="1" fill="none" fill-rule="evenodd"><g id="Short Pot" transform="translate(13.000000, 175.000000) scale(1 1)"><g id="Short Pot/Large Pot" stroke="none" stroke-width="1" fill="none" fill-rule="evenodd"><g id="Group-6" transform="translate(1.000000, -0.000000)"><g id="Group-3" transform="translate(0.000000, 0.136000)" fill="#000"><path d="M3.1914,3.6853 C3.2704,4.4953 3.2764,5.0563 3.3844,5.5973 C5.8094,17.6753 8.9404,49.2423 13.7924,60.5983 C18.8544,72.4483 25.2764,83.4413 34.4424,92.6463 C41.9684,100.2063 50.6804,105.8383 61.1204,108.4903 C65.0684,109.4933 69.0664,110.3013 73.2024,109.9083 C84.1284,108.8703 93.7124,104.6223 102.2004,97.7943 C113.1634,88.9763 120.6844,77.5773 126.6084,65.0073 C131.3604,54.9243 132.7164,44.1073 135.2664,33.2773 C136.0764,28.3123 138.7914,7.1793 139.5344,3.6853 L3.1914,3.6853 Z M71.3694,0.9303 C94.0804,0.9303 116.7914,0.9303 139.5024,0.9313 C139.9814,0.9313 140.4644,0.9063 140.9404,0.9573 C142.4154,1.1163 142.7164,1.4733 142.4894,2.9293 C140.1034,18.1673 135.6924,52.5433 129.1454,66.5213 C124.7144,75.9813 119.1944,84.7423 112.0974,92.4553 C103.2234,102.1003 92.7034,109.0333 79.7374,111.8483 C77.3284,112.3703 74.8734,112.8813 72.4224,112.9763 C66.3464,113.2113 60.5474,111.6693 54.9104,109.5733 C43.9024,105.4793 35.1064,98.3543 27.6404,89.4463 C20.1254,80.4763 14.5314,70.3703 10.1694,59.5723 C5.3964,47.7603 2.0264,15.8463 0.1024,3.2363 C-0.1866,1.3363 0.0394,0.9963 2.0384,0.9593 C6.1154,0.8843 10.1934,0.8703 14.2724,0.8693 C33.3044,0.8603 52.3374,0.8653 71.3694,0.8653 L71.3694,0.9303 Z" id="Fill-1"/></g><path d="M3.1914,3.8213 L139.5344,3.8213 C138.7914,7.3153 136.1824,29.5133 135.4054,32.8173 C132.8564,43.6473 131.3604,55.0603 126.6084,65.1433 C120.6844,77.7133 113.1634,89.1123 102.2004,97.9303 C93.7124,104.7583 84.1284,109.0063 73.2024,110.0443 C69.0664,110.4373 65.0684,109.6293 61.1204,108.6263 C50.6804,105.9743 41.9684,100.3423 34.4424,92.7823 C25.2764,83.5773 18.8544,72.5843 13.7924,60.7343 C8.9404,49.3783 5.8094,17.8113 3.3844,5.7333 C3.2764,5.1923 3.2704,4.6313 3.1914,3.8213" id="Fill-4" fill="#FFF"/></g></g></g></g></g><g id="404" transform="translate(689.000000, 324.000000) scale(1 0.9895104895104895)"><g id="404/Left Pot" stroke="none" stroke-width="1" fill="none" fill-rule="evenodd"><g id="Short Pot" transform="translate(13.000000, 175.000000) scale(1 1)"><g id="Short Pot/Texture Small Pot" stroke="none" stroke-width="1" fill="none" fill-rule="evenodd"><g id="Group-16" transform="translate(44.000000, 1.000000)"><g id="Group-3" transform="translate(0.000000, 0.513000)" fill="#000"><path d="M6.9012,81.437 C6.9142,82.025 6.9262,82.613 6.9392,83.202 C8.1372,90.848 10.9222,97.535 18.1262,101.943 C18.4702,100.067 18.6682,98.501 19.0632,96.987 C19.3892,95.738 20.4432,95.09 21.5802,95.291 C22.8392,95.513 23.4552,96.408 23.7192,97.591 C24.1722,99.616 24.6092,101.645 25.0802,103.666 C25.5232,105.57 25.6492,105.658 27.6202,105.822 C30.9072,106.097 33.6732,104.636 36.4482,103.193 C37.2592,102.771 37.1582,102.059 37.1092,101.322 C36.9992,99.652 36.8282,97.976 36.8742,96.308 C36.9272,94.325 37.7102,92.739 39.3222,91.351 C41.6592,89.339 44.3642,90.382 44.9622,93.48 C45.0752,94.067 45.2002,94.651 45.3842,95.557 C47.5022,92.981 48.3592,90.232 49.1532,87.494 C51.2302,80.326 52.1702,72.964 52.7272,65.54 C52.8342,64.127 52.6592,62.92 51.8682,61.694 C50.0462,58.869 49.1762,55.685 49.3022,52.353 C49.4572,48.289 49.8902,44.235 50.2142,40.178 C50.3012,39.08 50.9112,38.447 52.0022,38.242 C52.5202,38.145 53.0232,37.971 53.6742,37.793 L53.6742,19.445 L42.4052,19.445 C42.5852,23.211 42.8612,26.705 42.8812,30.2 C42.8962,32.714 40.2552,34.031 38.3202,32.445 C37.2732,31.587 36.3482,30.254 35.9862,28.962 C35.3902,26.841 35.2612,24.583 35.0092,22.374 C34.9052,21.459 34.9922,20.522 34.9922,19.511 C24.2402,19.337 13.7902,20.443 3.1352,18.606 C3.1352,19.71 3.1252,20.567 3.1372,21.424 C3.2422,28.856 3.3632,36.288 3.4562,43.719 C3.5822,53.79 3.7262,63.86 5.0792,73.86 C5.4262,76.434 5.4652,79.112 6.9012,81.437 M56.8752,33.719 C56.3832,45.766 56.0512,57.823 55.3412,69.857 C54.9412,76.63 53.5722,83.286 51.6202,89.825 C48.6912,99.629 41.7652,105.204 32.4772,108.336 C30.1002,109.138 27.5412,109.249 25.1342,108.475 C18.1332,106.221 11.9402,102.801 8.0972,96.133 C6.4032,93.192 5.3292,90.028 4.4612,86.784 C2.6592,80.049 1.5592,73.172 1.3172,66.228 C0.8232,52.102 0.5962,37.967 0.2992,23.835 C0.1562,16.97 0.0992,10.102 0.0062,3.235 C-0.0308,0.518 -0.0058,0.45 2.8152,0.498 C10.2502,0.625 17.6842,0.93 25.1182,0.92 C34.3912,0.907 43.6642,0.644 52.9372,0.499 C56.8952,0.437 56.9412,0.45 56.9042,4.471 C56.8162,14.216 56.6812,23.96 56.5652,33.705 C56.6692,33.71 56.7712,33.714 56.8752,33.719" id="Fill-1"/></g><path d="M33.8622,87.3396 C33.3592,83.6016 32.8492,79.7426 32.3072,75.8886 C32.2432,75.4276 32.0592,74.9576 31.8292,74.5496 C31.0362,73.1456 29.1522,73.0436 28.3532,74.4246 C27.9312,75.1546 27.6232,76.0566 27.6002,76.8886 C27.5272,79.6596 27.5152,82.4386 27.6572,85.2046 C27.7572,87.1246 28.3202,88.9746 29.6752,90.4436 C30.8652,91.7306 32.6862,91.4236 33.3322,89.8076 C33.6202,89.0866 33.6712,88.2706 33.8622,87.3396 M18.7492,56.5606 C18.7902,56.5616 18.8312,56.5626 18.8732,56.5636 C18.8222,57.4386 18.6912,58.3186 18.7382,59.1886 C18.8662,61.5686 18.9242,63.9686 19.3112,66.3116 C19.4762,67.3046 20.2202,68.3796 21.0102,69.0556 C22.6222,70.4346 24.2162,69.9316 24.8712,67.9186 C25.2612,66.7186 25.3542,65.4236 25.6042,64.1756 C26.3162,60.6066 26.4092,57.0146 25.5822,53.4776 C25.2082,51.8766 24.4662,50.3206 23.6572,48.8756 C22.9962,47.6946 21.4252,47.2796 20.2922,47.6476 C19.3192,47.9626 18.7242,49.1466 18.7422,50.5926 C18.7672,52.5816 18.7492,54.5706 18.7492,56.5606 M14.6942,33.9716 C14.6652,33.9696 14.6352,33.9676 14.6062,33.9656 C14.6062,32.9286 14.6732,31.8866 14.5922,30.8556 C14.4372,28.8596 14.1512,26.8746 12.9982,25.1616 C12.4632,24.3676 11.8512,23.6566 10.7162,23.6474668 C9.2222,23.6356 8.2202,24.4336 7.8582,26.2816 C7.5212,28.0026 7.2542,29.7426 7.0772,31.4856 C6.8432,33.7826 6.6152,36.0896 6.5962,38.3946 C6.5792,40.5536 7.3372,42.4836 9.2412,43.7426 C11.2572,45.0756 13.8592,43.9306 14.0862,41.5986 C14.3332,39.0606 14.4952,36.5146 14.6942,33.9716 M36.2932,57.9026 C36.2382,61.7686 36.9392,65.5046 38.0002,69.1986 C38.3982,70.5886 39.2242,71.5106 40.6152,71.6006 C41.9942,71.6906 42.6012,70.5576 43.1912,69.4756 C44.4642,67.1426 44.1272,64.6766 43.8442,62.2316 C43.3792,58.2066 42.7442,54.1996 42.3572,50.1686 C42.2232,48.7686 41.3782,48.2486 40.3902,47.7726 C39.7082,47.4436 38.1032,48.2756 37.6492,49.2536 C37.2212,50.1756 36.9052,51.1926 36.7722,52.1986 C36.5232,54.0886 36.4432,56.0006 36.2932,57.9026 M6.9012,81.9496 C5.4662,79.6256 5.4262,76.9466 5.0792,74.3736 C3.7262,64.3736 3.5822,54.3026 3.4562,44.2326 C3.3632,36.8006 3.2422,29.3686 3.1372,21.9366 C3.1252,21.0796 3.1352,20.2226 3.1352,19.1196 C13.7902,20.9556 24.2402,19.8506 34.9922,20.0246 C34.9922,21.0346 34.9052,21.9716 35.0092,22.8866 C35.2612,25.0956 35.3902,27.3536 35.9862,29.4746 C36.3482,30.7666 37.2732,32.1006 38.3202,32.9586 C40.2552,34.5446 42.8962,33.2266 42.8822,30.7126 C42.8612,27.2176 42.5852,23.7236 42.4052,19.9586 L53.6742,19.9586 L53.6742,38.3066 C53.0232,38.4836 52.5202,38.6576 52.0022,38.7546 C50.9112,38.9596 50.3012,39.5926 50.2142,40.6916 C49.8902,44.7486 49.4572,48.8016 49.3022,52.8656 C49.1762,56.1976 50.0462,59.3816 51.8682,62.2066 C52.6592,63.4336 52.8342,64.6406 52.7272,66.0526 C52.1702,73.4766 51.2302,80.8386 49.1532,88.0066 C48.3592,90.7456 47.5022,93.4936 45.3842,96.0696 C45.2002,95.1646 45.0752,94.5796 44.9622,93.9926 C44.3642,90.8956 41.6592,89.8526 39.3222,91.8636 C37.7102,93.2526 36.9272,94.8376 36.8742,96.8206 C36.8282,98.4886 36.9992,100.1646 37.1092,101.8356 C37.1582,102.5716 37.2592,103.2836 36.4482,103.7056 C33.6742,105.1496 30.9072,106.6106 27.6202,106.3356 C25.6492,106.1706 25.5232,106.0826 25.0802,104.1796 C24.6092,102.1586 24.1732,100.1296 23.7192,98.1046 C23.4552,96.9216 22.8402,96.0256 21.5802,95.8036 C20.4432,95.6036 19.3892,96.2516 19.0632,97.5006 C18.6682,99.0146 18.4702,100.5796 18.1262,102.4566 C10.9222,98.0476 8.1372,91.3606 6.9392,83.7146 C7.4562,84.8746 7.9112,86.0666 8.5062,87.1856 C9.2052,88.5016 10.8132,89.4316 11.7392,89.1946 C13.4482,88.7586 14.2532,87.9496 14.3022,86.0196 C14.3832,82.9286 14.5452,79.7936 14.1332,76.7496 C13.7532,73.9436 12.8002,71.1846 11.8432,68.4956 C11.1092,66.4336 9.0062,66.2396 7.8022,68.0556 C7.2132,68.9446 6.8502,70.0596 6.6612,71.1216 C6.3832,72.6816 6.2022,74.2916 6.2572,75.8696 C6.3282,77.9016 6.6742,79.9236 6.9012,81.9496" id="Fill-4" fill="#FFF"/><path d="M6.9012,81.95 C6.6732,79.924 6.3282,77.901 6.2562,75.869 C6.2022,74.291 6.3832,72.682 6.6612,71.122 C6.8502,70.06 7.2132,68.945 7.8022,68.055 C9.0052,66.24 11.1092,66.433 11.8432,68.496 C12.8002,71.184 13.7532,73.943 14.1322,76.749 C14.5452,79.793 14.3832,82.929 14.3022,86.019 C14.2532,87.95 13.4482,88.759 11.7392,89.195 C10.8132,89.432 9.2052,88.502 8.5052,87.185 C7.9112,86.067 7.4562,84.874 6.9392,83.715 C6.9262,83.126 6.9142,82.538 6.9012,81.95" id="Fill-6" fill="#000"/><path d="M36.2928,57.9031 C36.4428,56.0001 36.5228,54.0881 36.7718,52.1981 C36.9048,51.1931 37.2218,50.1751 37.6488,49.2531 C38.1038,48.2751 39.7078,47.4441 40.3908,47.7731 C41.3778,48.2491 42.2238,48.7681 42.3568,50.1681 C42.7438,54.2001 43.3788,58.2071 43.8448,62.2321 C44.1268,64.6771 44.4638,67.1431 43.1908,69.4751 C42.6018,70.5571 41.9938,71.6911 40.6148,71.6011 C39.2248,71.5101 38.3978,70.5891 37.9998,69.1991 C36.9388,65.5051 36.2378,61.7691 36.2928,57.9031" id="Fill-8" fill="#000"/><path d="M14.6942,33.9714 C14.4952,36.5144 14.3332,39.0604 14.0862,41.5984 C13.8592,43.9304 11.2562,45.0754 9.2412,43.7424 C7.3372,42.4834 6.5792,40.5544 6.5962,38.3944 C6.6152,36.0904 6.8432,33.7824 7.0772,31.4864 C7.2542,29.7424 7.5212,28.0024 7.8582,26.2824 C8.2202,24.4334 9.2222,23.6364 10.7162,23.6472878 C11.8512,23.6574 12.4632,24.3674 12.9982,25.1614 C14.1512,26.8744 14.4372,28.8594 14.5922,30.8554 C14.6732,31.8864 14.6062,32.9294 14.6062,33.9664 C14.6352,33.9684 14.6652,33.9704 14.6942,33.9714" id="Fill-10" fill="#000"/><path d="M18.7489,56.5603 C18.7489,54.5713 18.7679,52.5813 18.7419,50.5933 C18.7249,49.1463 19.3189,47.9623 20.2919,47.6473 C21.4259,47.2803 22.9959,47.6943 23.6569,48.8753 C24.4669,50.3203 25.2079,51.8763 25.5819,53.4773 C26.4089,57.0143 26.3159,60.6063 25.6039,64.1753 C25.3539,65.4233 25.2619,66.7183 24.8709,67.9183 C24.2169,69.9313 22.6219,70.4353 21.0109,69.0553 C20.2209,68.3793 19.4769,67.3053 19.3109,66.3113 C18.9239,63.9693 18.8659,61.5683 18.7379,59.1883 C18.6909,58.3183 18.8219,57.4383 18.8729,56.5633 C18.8309,56.5623 18.7899,56.5613 18.7489,56.5603" id="Fill-12" fill="#000"/><path d="M33.8622,87.3396 C33.6712,88.2706 33.6202,89.0866 33.3322,89.8076 C32.6862,91.4236 30.8652,91.7306 29.6752,90.4436 C28.3202,88.9746 27.7572,87.1246 27.6572,85.2046 C27.5152,82.4386 27.5272,79.6596 27.6002,76.8886 C27.6232,76.0566 27.9312,75.1546 28.3532,74.4246 C29.1522,73.0436 31.0362,73.1456 31.8292,74.5496 C32.0592,74.9576 32.2432,75.4276 32.3072,75.8886 C32.8492,79.7426 33.3592,83.6016 33.8622,87.3396" id="Fill-14" fill="#000"/></g></g></g></g></g></g></svg>